<svg width="28" height="28" viewBox="0 0 28 28" fill="none" xmlns="http://www.w3.org/2000/svg">
<circle cx="14" cy="14" r="14" fill="#68DBBA"/>
<path fill-rule="evenodd" clip-rule="evenodd" d="M14 5C9.02944 5 5 9.02944 5 14C5 18.9706 9.02944 23 14 23C18.9706 23 23 18.9706 23 14C23 9.02944 18.9706 5 14 5ZM4 14C4 8.47715 8.47715 4 14 4C19.5228 4 24 8.47715 24 14C24 19.5228 19.5228 24 14 24C8.47715 24 4 19.5228 4 14Z" fill="white"/>
<path fill-rule="evenodd" clip-rule="evenodd" d="M9 14C9 13.7239 9.22386 13.5 9.5 13.5H18.5C18.7761 13.5 19 13.7239 19 14C19 14.2761 18.7761 14.5 18.5 14.5H9.5C9.22386 14.5 9 14.2761 9 14Z" fill="white"/>
<path fill-rule="evenodd" clip-rule="evenodd" d="M14 9C14.2761 9 14.5 9.22386 14.5 9.5V18.5C14.5 18.7761 14.2761 19 14 19C13.7239 19 13.5 18.7761 13.5 18.5V9.5C13.5 9.22386 13.7239 9 14 9Z" fill="white"/>
</svg>
