<svg width="331" height="223" viewBox="0 0 331 223" fill="none" xmlns="http://www.w3.org/2000/svg">
<g opacity="0.8">
<path opacity="0.5" d="M266.691 219.85C297.256 219.85 328.647 213.508 328.647 176.589C328.647 136.191 279.742 136.449 279.742 94.0974C279.742 55.6544 262.729 31.6643 239.635 31.6643C207.711 31.6643 177.785 68.7287 122.837 28.288C56.4287 -20.5877 9.89074 38.6595 41.1345 85.5739C63.3831 118.974 1.74365 125.246 1.74365 173.196C1.74365 216.127 40.6469 219.85 60.3446 219.85C80.0446 219.85 266.691 219.85 266.691 219.85Z" fill="url(#paint0_linear_132_2916)"/>
<path d="M330.391 219.421C330.391 221.081 256.43 222.424 165.196 222.424C73.9609 222.424 0 221.079 0 219.421C0 217.762 73.9609 216.417 165.196 216.417C256.43 216.417 330.391 217.764 330.391 219.421Z" fill="#DBE4FF"/>
<path fill-rule="evenodd" clip-rule="evenodd" d="M47.3088 163.595C47.3088 161.588 48.9324 159.969 50.9368 159.969C52.9367 159.969 54.5603 161.586 54.5603 163.595C54.5603 165.59 52.9367 167.22 50.9368 167.22C48.9301 167.218 47.3088 165.59 47.3088 163.595Z" fill="#C9D5FD"/>
<path fill-rule="evenodd" clip-rule="evenodd" d="M50.9344 168.25V177.116L43.3451 169.735L47.4765 166.713C47.5286 166.771 47.5853 166.828 47.642 166.885C48.4878 167.728 49.651 168.25 50.9344 168.25ZM50.2496 177.782L42.5651 170.309L40.1253 172.093C39.962 172.218 39.7285 172.225 39.5539 172.098L37.1095 170.309L29.425 177.782H50.2496ZM28.7402 177.116V164.184L36.3272 169.735L28.7402 177.116ZM29.5475 163.595L39.8351 171.123L46.9142 165.946C46.5083 165.255 46.2747 164.452 46.2747 163.597H29.5475V163.595Z" fill="#CAD7FF"/>
<path fill-rule="evenodd" clip-rule="evenodd" d="M51.2268 162.021V165.168H50.9025V162.311H50.1588V162.021H51.2268Z" fill="white"/>
<path d="M51.227 165.488H50.9005C50.7236 165.488 50.5808 165.345 50.5808 165.168V162.631H50.1568C49.9822 162.631 49.837 162.488 49.837 162.311V162.021C49.837 161.844 49.9799 161.701 50.1568 161.701H51.2247C51.4016 161.701 51.5445 161.844 51.5445 162.021V165.168C51.5467 165.345 51.4039 165.488 51.227 165.488Z" fill="white"/>
<path d="M46.2125 20.8587C45.3395 20.8587 44.9473 19.6387 44.9473 18.4279C44.9473 17.2193 45.3373 15.9994 46.2125 15.9994C47.0855 15.9994 47.4778 17.2193 47.4778 18.4279C47.4755 19.6387 47.0855 20.8587 46.2125 20.8587ZM46.2125 17.2012C46.1105 17.4325 46.0016 17.8588 46.0016 18.4302C46.0016 18.9993 46.1105 19.4279 46.2125 19.6592C46.3146 19.4279 46.4234 19.0016 46.4234 18.4302C46.4211 17.8588 46.3123 17.4325 46.2125 17.2012Z" fill="#CAD7FF"/>
<path d="M46.2125 25.8857C44.8883 25.8857 43.6004 25.2848 42.5845 24.1919C42.3873 23.9788 42.3986 23.6454 42.6117 23.4459C42.8249 23.2486 43.1582 23.26 43.3578 23.4731C44.1831 24.362 45.1717 24.8291 46.2125 24.8291C48.7771 24.8291 50.8631 21.9562 50.8631 18.4257C50.8631 17.6751 50.7679 16.9382 50.582 16.2376C50.5071 15.9564 50.6749 15.6684 50.9561 15.5936C51.2373 15.5188 51.5252 15.6866 51.6001 15.9677C51.8109 16.7568 51.9175 17.5844 51.9175 18.4257C51.9175 22.5412 49.3575 25.8857 46.2125 25.8857ZM41.4735 21.7589C41.2535 21.7589 41.0472 21.6183 40.9724 21.3984C40.6617 20.4596 40.5052 19.4619 40.5052 18.4302C40.5052 14.3193 43.0652 10.9747 46.2103 10.9747C47.6977 10.9747 49.1013 11.7116 50.167 13.0517C50.3484 13.2785 50.3099 13.6118 50.0831 13.7932C49.8564 13.9746 49.5231 13.936 49.3417 13.7093C48.48 12.6254 47.3667 12.0291 46.2103 12.0291C43.6457 12.0291 41.5596 14.902 41.5596 18.4325C41.5596 19.3508 41.698 20.2374 41.9746 21.0696C42.0653 21.3462 41.9156 21.6432 41.639 21.7362C41.5846 21.7498 41.5302 21.7589 41.4735 21.7589Z" fill="#CAD7FF"/>
<path d="M54.1895 25.6362C54.1033 25.6362 54.0194 25.6158 53.9378 25.5727C53.6815 25.4344 53.5863 25.1147 53.7269 24.8585C54.7563 22.9583 55.3028 20.7362 55.3028 18.4302C55.3028 15.3917 54.3618 12.5301 52.6544 10.3738C52.473 10.1447 52.5115 9.81369 52.7405 9.63229C52.9696 9.4509 53.3006 9.48944 53.4797 9.71846C55.3345 12.063 56.3549 15.1559 56.3549 18.4302C56.3549 20.9108 55.7654 23.3075 54.652 25.3596C54.5591 25.5365 54.3777 25.6362 54.1895 25.6362ZM38.2331 25.6362C38.0472 25.6362 37.8658 25.5365 37.7706 25.3596C37.2513 24.4004 36.8409 23.3597 36.5552 22.2667C36.4826 21.9856 36.6504 21.6976 36.9316 21.6228C37.2128 21.5479 37.5008 21.718 37.5756 21.9992C37.8409 23.0127 38.2173 23.9742 38.698 24.8585C38.8363 25.1147 38.7411 25.4344 38.4871 25.5727C38.4032 25.6158 38.317 25.6362 38.2331 25.6362ZM36.6051 19.5639C36.3239 19.5639 36.0904 19.3417 36.079 19.0582C36.07 18.8474 36.0654 18.6365 36.0654 18.4302C36.0654 11.5461 40.6163 5.94536 46.2102 5.94536C47.9607 5.94536 49.6885 6.50316 51.2032 7.55754C51.4413 7.72307 51.5002 8.05186 51.3347 8.28994C51.1692 8.52803 50.8404 8.58698 50.6 8.42146C49.2622 7.48952 47.7453 6.99747 46.2079 6.99747C41.1945 6.99747 37.1175 12.1243 37.1175 18.4279C37.1175 18.6206 37.1221 18.8179 37.1289 19.0152C37.1402 19.3054 36.9135 19.5526 36.6232 19.5616C36.6187 19.5639 36.6119 19.5639 36.6051 19.5639Z" fill="#CAD7FF"/>
<path d="M47.8225 22.6613C47.6841 22.6613 47.5481 22.6069 47.4438 22.5003C47.2397 22.2917 47.2465 21.9584 47.4551 21.7543C48.1989 21.0333 48.6433 19.7884 48.6433 18.4279C48.6433 16.3192 47.53 14.5392 46.2125 14.5392C44.8951 14.5392 43.7818 16.3214 43.7818 18.4279C43.7818 19.7884 44.2262 21.0333 44.97 21.7543C45.1786 21.9561 45.1831 22.2895 44.9813 22.5003C44.7795 22.7089 44.4439 22.7135 44.2353 22.5117C43.292 21.5956 42.7274 20.0673 42.7274 18.4279C42.7274 15.657 44.258 13.4848 46.2125 13.4848C48.1671 13.4848 49.6977 15.657 49.6977 18.4279C49.6977 20.0696 49.1331 21.5956 48.1898 22.5117C48.0855 22.6137 47.954 22.6613 47.8225 22.6613Z" fill="#CAD7FF"/>
<path d="M50.1556 26.9469C50.0014 26.9469 49.8495 26.8811 49.7452 26.7496C49.5615 26.5228 49.5978 26.1918 49.8246 26.0081C51.8631 24.3642 53.0807 21.5298 53.0807 18.4279C53.0807 13.512 49.9992 9.51215 46.2102 9.51215C44.6728 9.51215 43.2194 10.1584 42.0063 11.3828C41.7999 11.5892 41.4666 11.5914 41.2603 11.3851C41.0539 11.181 41.0517 10.8454 41.258 10.6391C42.6548 9.23325 44.4121 8.45776 46.2102 8.45776C50.5797 8.45776 54.1351 12.9315 54.1351 18.4279C54.1351 21.845 52.77 24.9855 50.4867 26.829C50.3892 26.9083 50.2735 26.9469 50.1556 26.9469ZM42.267 26.9469C42.1514 26.9469 42.0335 26.9083 41.936 26.8312C39.6504 24.9878 38.2876 21.8473 38.2876 18.4302C38.2876 16.5844 38.6912 14.7818 39.4531 13.2172C39.5801 12.9565 39.8952 12.8476 40.1583 12.9746C40.419 13.1016 40.5279 13.419 40.4009 13.6798C39.707 15.1015 39.342 16.7432 39.342 18.4302C39.342 21.5321 40.5596 24.3665 42.5981 26.0104C42.8248 26.1941 42.8611 26.5251 42.6775 26.7519C42.5732 26.8788 42.4212 26.9469 42.267 26.9469Z" fill="#CAD7FF"/>
<path d="M46.2125 34.6291C36.6664 34.6291 28.8979 26.8607 28.8979 17.3145C28.8979 7.76842 36.6641 0 46.2125 0C55.7586 0 63.527 7.76615 63.527 17.3145C63.5248 26.8607 55.7586 34.6291 46.2125 34.6291ZM46.2125 0.689317C37.045 0.689317 29.5873 8.14709 29.5873 17.3145C29.5873 26.482 37.045 33.9398 46.2125 33.9398C55.3799 33.9398 62.8377 26.482 62.8377 17.3145C62.8377 8.14709 55.3799 0.689317 46.2125 0.689317Z" fill="#CAD7FF"/>
<path fill-rule="evenodd" clip-rule="evenodd" d="M150.557 196.343H184.671C185.367 196.343 185.934 196.912 185.934 197.606C185.934 198.302 185.365 198.869 184.671 198.869H150.557C149.861 198.869 149.294 198.3 149.294 197.606C149.294 196.912 149.863 196.343 150.557 196.343ZM167.851 201.951H178.118C178.814 201.951 179.381 202.52 179.381 203.214C179.381 203.91 178.812 204.476 178.118 204.476H167.851C167.157 204.476 166.588 203.907 166.588 203.214C166.588 202.52 167.157 201.951 167.851 201.951ZM150.557 201.951H160.822C161.518 201.951 162.085 202.52 162.085 203.214C162.085 203.91 161.518 204.476 160.822 204.476H150.557C149.863 204.476 149.294 203.907 149.294 203.214C149.294 202.52 149.863 201.951 150.557 201.951Z" fill="#CAD7FF"/>
<path d="M183.856 149.692C181.511 149.692 179.604 151.599 179.604 153.944C179.604 156.288 181.511 158.195 183.856 158.195C186.2 158.195 188.107 156.288 188.107 153.944C188.107 151.599 186.2 149.692 183.856 149.692ZM186.665 154.037C186.617 155.508 185.42 156.706 183.949 156.753C182.325 156.805 180.996 155.477 181.049 153.853C181.096 152.382 182.293 151.184 183.765 151.137C185.388 151.085 186.717 152.411 186.665 154.037Z" fill="#CAD7FF"/>
<path d="M190.926 154.753C190.955 154.488 190.971 154.218 190.971 153.944C190.971 153.669 190.955 153.4 190.926 153.134L189.889 152.83C189.792 152.291 189.622 151.776 189.393 151.298L190.05 150.443C189.783 149.971 189.463 149.531 189.098 149.134L188.084 149.495C187.694 149.123 187.255 148.803 186.778 148.545L186.808 147.468C186.323 147.246 185.808 147.076 185.271 146.969L184.663 147.858C184.398 147.824 184.128 147.806 183.856 147.806C183.581 147.806 183.311 147.824 183.048 147.858L182.441 146.969C181.903 147.078 181.389 147.246 180.903 147.468L180.933 148.545C180.457 148.803 180.017 149.123 179.627 149.495L178.613 149.134C178.248 149.531 177.928 149.971 177.661 150.443L178.318 151.298C178.089 151.778 177.919 152.293 177.822 152.83L176.786 153.134C176.756 153.4 176.74 153.669 176.74 153.944C176.74 154.218 176.756 154.488 176.786 154.753L177.824 155.059C177.924 155.597 178.092 156.109 178.321 156.588L177.661 157.447C177.928 157.919 178.248 158.359 178.613 158.755L179.636 158.39C180.024 158.758 180.459 159.075 180.933 159.334L180.903 160.42C181.389 160.642 181.903 160.81 182.441 160.919L183.055 160.021C183.318 160.055 183.586 160.073 183.856 160.073C184.128 160.073 184.395 160.055 184.656 160.021L185.271 160.919C185.808 160.81 186.323 160.642 186.808 160.42L186.778 159.334C187.252 159.077 187.688 158.758 188.075 158.39L189.098 158.755C189.463 158.359 189.783 157.919 190.05 157.447L189.388 156.588C189.617 156.109 189.787 155.597 189.885 155.059L190.926 154.753ZM183.856 158.805C181.175 158.805 178.994 156.624 178.994 153.944C178.994 151.264 181.175 149.082 183.856 149.082C186.536 149.082 188.717 151.264 188.717 153.944C188.717 156.624 186.536 158.805 183.856 158.805Z" fill="#CAD7FF"/>
<path d="M11.7861 95.5281H7.12189C6.48246 95.5281 5.96094 96.0496 5.96094 96.6891V106.326C5.96094 106.965 6.48246 107.487 7.12189 107.487H11.7861C11.9925 107.487 12.1602 107.319 12.1602 107.113V95.9045C12.1602 95.6959 11.9925 95.5281 11.7861 95.5281ZM9.06059 105.133C8.54134 105.133 8.11959 104.709 8.11959 104.192C8.11959 103.675 8.54134 103.251 9.06059 103.251C9.57985 103.251 10.0039 103.675 10.0039 104.192C10.0039 104.709 9.57985 105.133 9.06059 105.133ZM27.8921 96.0995C27.6177 95.7367 27.1982 95.5281 26.7447 95.5281H21.1259L21.9173 89.6326C21.9739 89.1973 21.8424 88.7574 21.5545 88.4309C21.2688 88.1043 20.8515 87.9161 20.4139 87.9161C20.2824 87.9161 20.1599 87.9864 20.0919 88.0998L16.2349 94.6256C15.8903 95.2061 15.3302 95.5281 14.6545 95.5281H13.8133C13.6069 95.5281 13.4391 95.6959 13.4391 95.9022V107.11C13.4391 107.317 13.6069 107.485 13.8133 107.485H22.5816C24.1825 107.485 25.6019 106.408 26.0327 104.863L28.137 97.3648C28.2594 96.9249 28.171 96.4646 27.8921 96.0995Z" fill="#E7EDFF"/>
<path d="M41.6469 87.5577C41.5199 87.5055 41.4383 87.3808 41.4383 87.2448V82.6576H35.2254C33.3048 82.6576 31.7402 81.0976 31.7402 79.1793V67.4473C31.7402 65.529 33.3048 63.969 35.2254 63.969H60.4194C62.34 63.969 63.9023 65.529 63.9023 67.4473V79.1793C63.9023 81.0976 62.34 82.6576 60.4194 82.6576H46.8417L42.0142 87.4851C41.9485 87.5509 41.8623 87.5849 41.7761 87.5849C41.7331 87.5826 41.69 87.5735 41.6469 87.5577ZM35.2231 64.6447C33.6744 64.6447 32.4137 65.9009 32.4137 67.4473V79.1793C32.4137 80.7235 33.6744 81.9819 35.2231 81.9819H41.7761C41.9621 81.9819 42.114 82.1338 42.114 82.3198V86.4285L46.463 82.0794C46.5265 82.0159 46.6127 81.9797 46.7034 81.9797H60.4194C61.9681 81.9797 63.2266 80.7235 63.2266 79.177V67.4451C63.2266 65.8986 61.9681 64.6424 60.4194 64.6424H35.2231V64.6447Z" fill="#C9D5FD"/>
<path d="M38.5519 72.0595H36.0667C35.5294 72.0595 35.094 71.6218 35.094 71.0867V68.6015C35.094 68.0641 35.5294 67.6265 36.0667 67.6265H38.5519C39.0893 67.6265 39.5247 68.0641 39.5247 68.6015V71.0867C39.5247 71.6218 39.0893 72.0595 38.5519 72.0595ZM36.0667 68.3022C35.9012 68.3022 35.772 68.4337 35.772 68.5993V71.0844C35.772 71.2454 35.908 71.3815 36.0667 71.3815H38.5519C38.7129 71.3815 38.8467 71.2454 38.8467 71.0844V68.5993C38.8467 68.4337 38.7174 68.3022 38.5519 68.3022H36.0667Z" fill="#C9D5FD"/>
<path d="M60.5874 71.25H50.1252C49.9393 71.25 49.7874 71.0981 49.7874 70.9122C49.7874 70.7262 49.9393 70.5743 50.1252 70.5743H60.5874C60.7734 70.5743 60.9253 70.7262 60.9253 70.9122C60.9253 71.0981 60.7734 71.25 60.5874 71.25ZM46.9258 71.25H41.697C41.5111 71.25 41.3591 71.0981 41.3591 70.9122C41.3591 70.7262 41.5111 70.5743 41.697 70.5743H46.9258C47.1117 70.5743 47.2637 70.7262 47.2637 70.9122C47.2659 71.0981 47.114 71.25 46.9258 71.25ZM60.5874 69.1095H55.3586C55.1727 69.1095 55.0207 68.9576 55.0207 68.7716C55.0207 68.5857 55.1727 68.4338 55.3586 68.4338H60.5874C60.7734 68.4338 60.9253 68.5857 60.9253 68.7716C60.9253 68.9576 60.7734 69.1095 60.5874 69.1095ZM52.1592 69.1095H41.6993C41.5133 69.1095 41.3614 68.9576 41.3614 68.7716C41.3614 68.5857 41.5133 68.4338 41.6993 68.4338H52.1592C52.3451 68.4338 52.497 68.5857 52.497 68.7716C52.497 68.9576 52.3451 69.1095 52.1592 69.1095Z" fill="#C9D5FD"/>
<path d="M38.5519 79.0003H36.0667C35.5294 79.0003 35.094 78.5627 35.094 78.0253V75.5401C35.094 75.0027 35.5294 74.5673 36.0667 74.5673H38.5519C39.0893 74.5673 39.5247 75.005 39.5247 75.5401V78.0253C39.5247 78.5627 39.0893 79.0003 38.5519 79.0003ZM36.0667 75.2431C35.9012 75.2431 35.772 75.3746 35.772 75.5401V78.0253C35.772 78.1863 35.908 78.3223 36.0667 78.3223H38.5519C38.7129 78.3223 38.8467 78.1863 38.8467 78.0253V75.5401C38.8467 75.3723 38.7174 75.2431 38.5519 75.2431H36.0667Z" fill="#C9D5FD"/>
<path d="M60.5874 78.1908H50.1252C49.9393 78.1908 49.7874 78.0389 49.7874 77.853C49.7874 77.6648 49.9393 77.5151 50.1252 77.5151H60.5874C60.7734 77.5151 60.9253 77.667 60.9253 77.853C60.9253 78.0412 60.7734 78.1908 60.5874 78.1908ZM46.9258 78.1908H41.697C41.5111 78.1908 41.3591 78.0389 41.3591 77.853C41.3591 77.6648 41.5111 77.5151 41.697 77.5151H46.9258C47.1117 77.5151 47.2637 77.667 47.2637 77.853C47.2659 78.0412 47.114 78.1908 46.9258 78.1908ZM60.5874 76.0503H55.3586C55.1727 76.0503 55.0207 75.8984 55.0207 75.7125C55.0207 75.5242 55.1727 75.3746 55.3586 75.3746H60.5874C60.7734 75.3746 60.9253 75.5265 60.9253 75.7125C60.9253 75.9007 60.7734 76.0503 60.5874 76.0503ZM52.1592 76.0503H41.6993C41.5133 76.0503 41.3614 75.8984 41.3614 75.7125C41.3614 75.5242 41.5133 75.3746 41.6993 75.3746H52.1592C52.3451 75.3746 52.497 75.5265 52.497 75.7125C52.497 75.9007 52.3451 76.0503 52.1592 76.0503Z" fill="#C9D5FD"/>
</g>
<path d="M196.624 216.478L195.359 219.487C195.359 219.487 191.461 219.525 190.506 219.487C190.264 219.476 190.164 219.177 190.347 219.018C191.836 217.751 196.624 216.478 196.624 216.478Z" fill="#212529"/>
<path d="M203.779 52.4663C203.779 52.4663 188.525 50.9592 170.424 31.0118H167.073C167.073 31.0118 172.64 67.8576 197.912 72.1226L203.779 52.4663Z" fill="#FFA8A8"/>
<path d="M197.913 72.1225C178.647 68.8712 170.834 46.6914 168.208 36.3281C177.682 61.8374 195.734 62.8996 195.734 62.8996L199.239 67.6714L197.913 72.1225Z" fill="#FF8787"/>
<path d="M230.596 46.4326C230.596 46.4326 216.019 51.7194 200.555 50.0722C200.342 50.0479 200.131 50.1449 200.01 50.3229C198.967 51.8596 194.335 59.5323 195.564 73.1658C195.564 73.1658 210.648 79.4528 224.098 76.1826C237.551 72.9151 230.596 46.4326 230.596 46.4326Z" fill="#4C6EF4"/>
<path fill-rule="evenodd" clip-rule="evenodd" d="M224.657 57.8851L225.436 75.754C225.013 75.9238 224.57 76.0694 224.101 76.1826C210.651 79.4528 195.567 73.1659 195.567 73.1659C195.214 69.2513 195.346 65.8274 195.737 62.8996C212.714 65.1588 224.657 57.8851 224.657 57.8851Z" fill="#3E65E5"/>
<path d="M215.428 87.9991C215.428 87.9991 205.873 118.17 206.628 150.602C207.383 183.035 195.359 219.489 195.359 219.489C195.359 219.489 230.01 183.035 225.985 147.836L235.035 93.2805L215.428 87.9991Z" fill="#393F44"/>
<path d="M225.986 147.836C212.611 126.719 221.162 103.091 221.162 103.091L230.62 119.914L225.986 147.836Z" fill="#212529"/>
<path d="M220.205 92.0214C220.205 92.0214 222.713 132.749 232.394 159.652C242.078 186.553 250.122 207.924 251.883 219.489C251.883 219.489 264.705 164.934 246.354 145.323C246.354 145.323 252.889 109.623 244.216 92.0241H220.205V92.0214Z" fill="#393F44"/>
<path d="M236.085 92.0214H244.213C250.81 105.407 248.608 129.266 247.176 139.921C240.606 127.837 239.085 99.7939 239.085 99.7939C232.575 100.4 223.47 98.241 223.47 98.241L236.085 92.0214Z" fill="#212529"/>
<path d="M208.818 138.322C209.454 144.161 210.759 150.621 212.562 157.275C220.505 186.531 238.179 219.489 251.794 219.489C264.988 219.489 283.819 183.938 291.622 153.905C293.037 148.453 294.091 143.188 294.682 138.344C295.223 133.887 292.854 129.574 288.796 127.649C275.678 121.424 263.384 118.517 251.794 118.428C240.609 118.35 228.288 121.394 214.776 127.727C210.732 129.619 208.332 133.879 208.818 138.322Z" fill="#FFD43B"/>
<path d="M251.791 211.695C264.975 211.695 284.814 168.671 288.063 141.347C288.521 137.481 286.518 133.744 283.086 132.075C271.99 126.678 261.594 124.16 251.791 124.082C242.329 124.015 231.909 126.657 220.48 132.143C217.057 133.787 215.029 137.478 215.439 141.331C218.351 168.652 237.656 211.695 251.791 211.695Z" fill="#FAB005"/>
<path fill-rule="evenodd" clip-rule="evenodd" d="M263.907 156.358C266.083 156.358 267.862 158.137 267.862 160.313V179.713C267.862 181.889 266.083 183.668 263.907 183.668H239.611C237.435 183.668 235.656 181.889 235.656 179.713V160.313C235.656 158.137 237.435 156.358 239.611 156.358H263.907ZM248.791 168.177C248.791 169.32 249.438 170.312 250.387 170.808L249.144 174.817H251.759H254.371L253.128 170.808C254.077 170.312 254.724 169.32 254.724 168.177C254.724 166.538 253.395 165.212 251.759 165.212C250.122 165.212 248.791 166.538 248.791 168.177Z" fill="#FFD43B"/>
<path fill-rule="evenodd" clip-rule="evenodd" d="M243.987 156.358V152.066C243.987 149.931 244.863 147.99 246.27 146.58C247.68 145.17 249.621 144.296 251.756 144.296C253.891 144.296 255.833 145.172 257.243 146.58C258.653 147.99 259.526 149.931 259.526 152.066V156.358H263.904V152.066C263.904 148.723 262.537 145.685 260.338 143.485C258.138 141.285 255.099 139.918 251.756 139.918C248.413 139.918 245.375 141.285 243.175 143.485C240.975 145.685 239.608 148.723 239.608 152.066V156.358H243.987Z" fill="#FFD43B"/>
<path d="M230.596 46.4326C230.596 46.4326 217.159 68.9385 212.244 94.7713C212.204 94.9816 212.306 95.1945 212.498 95.2943C214.53 96.3349 226.201 101.517 246.159 95.0301C246.386 94.9573 246.537 94.7389 246.521 94.5017C246.305 91.0104 244.305 65.5928 230.596 46.4326Z" fill="#4C6EF4"/>
<path d="M235.381 61.096L243.504 85.9878L244.1 78.3987C245.941 86.5944 246.421 92.8895 246.521 94.5017C246.534 94.7389 246.386 94.9573 246.159 95.0301C243.536 95.8847 241.056 96.5345 238.721 97.0197L235.381 61.096Z" fill="#3E65E5"/>
<path d="M268.139 77.439C268.139 77.439 263.028 84.7289 243.501 85.9879C243.501 85.9879 250.834 74.2982 268.139 77.439Z" fill="#1B4DBC"/>
<path d="M263.449 73.2899C263.449 73.2899 275.138 96.0438 258.043 120.054C258.043 120.054 260.397 123.748 255.822 123.448C252.7 123.243 253.886 118.426 255.142 118.426C255.142 118.426 254.272 90.1369 244.216 80.8359L263.449 73.2899Z" fill="#FFA8A8"/>
<path d="M260.421 74.4761L263.845 74.1525C265.743 78.5092 273.184 98.7856 258.041 120.054C266.859 100.913 262.252 82.5316 262.252 82.5316C255.401 80.7711 246.456 83.4132 246.456 83.4132L246.451 83.4078C245.995 82.7716 245.515 82.1811 245.011 81.6365L244.324 80.7927L260.421 74.4761Z" fill="#FF8787"/>
<path d="M230.595 46.4326C230.595 46.4326 254.395 46.4326 268.139 77.4389C268.139 77.4389 252.05 76.9375 243.501 85.9878L230.595 46.4326Z" fill="#4C6EF4"/>
<path d="M229.104 42.7203C229.104 42.7203 226.675 48.2632 227.759 51.2396C229.665 50.4038 231.671 47.6944 231.725 47.1201C231.827 46.0202 231.73 44.5832 231.73 44.5832L229.104 42.7203Z" fill="#FFA8A8"/>
<path d="M229.943 44.8529C229.28 44.9958 228.662 45.1846 228.161 45.3841C227.77 46.724 227.425 48.355 227.495 49.7758C229.072 48.2364 229.892 46.8237 229.943 44.8529Z" fill="#FF8787"/>
<path d="M226.514 43.61C224.479 41.4371 223.964 32.4811 225.756 31.4269C227.261 30.5427 229.93 32.0901 231.712 35.2202C236.414 35.1474 234.41 44.1519 230.547 45.4055C229.887 45.1925 226.514 43.61 226.514 43.61Z" fill="#212529"/>
<path d="M230.779 42.6557C230.73 42.6907 230.674 42.6449 230.692 42.5883C231.256 40.7469 230.706 38.4715 229.037 38.1372C226.214 37.5738 225.274 47.344 226.754 47.867C228.455 48.4682 233.108 43.4753 232.278 42.475C231.852 41.9682 231.097 42.4238 230.779 42.6557Z" fill="#FFA8A8"/>
<path d="M229.765 41.6824C229.681 41.2483 228.929 41.065 228.487 41.4532C228.951 41.3615 229.571 41.5125 229.765 41.6824Z" fill="#212529"/>
<path d="M226.449 44.8933C226.349 45.2842 226.511 46.0526 226.567 46.2925C227.042 46.4651 229.142 46.1685 229.555 44.4053C229.032 44.7639 226.837 45.3435 226.449 44.8933Z" fill="white"/>
<path d="M206.628 150.599C206.542 146.898 206.59 143.223 206.744 139.621C209.036 149.944 211.626 165.212 210.397 177.5C208.332 198.108 195.359 219.487 195.359 219.487C195.359 219.487 207.383 183.032 206.628 150.599Z" fill="#212529"/>
<path opacity="0.43" fill-rule="evenodd" clip-rule="evenodd" d="M286.742 126.6L282.25 127.988L286.742 129.374L288.13 133.866L289.516 129.374L294.008 127.988L289.516 126.6L288.13 122.108L286.742 126.6Z" fill="#FAB005"/>
<path fill-rule="evenodd" clip-rule="evenodd" d="M139.742 180.668H78.8859C71.8468 180.668 67.6707 174.963 69.5579 167.924L103.875 39.8546C105.762 32.8182 112.995 27.1108 120.032 27.1108H180.888C187.924 27.1108 192.103 32.8155 190.216 39.8546L155.899 167.927C154.014 174.963 146.781 180.668 139.742 180.668Z" fill="#7B93F6"/>
<path fill-rule="evenodd" clip-rule="evenodd" d="M135.407 180.668H74.5509C67.5144 180.668 63.3383 174.963 65.2228 167.924L99.5398 39.8519C101.424 32.8154 108.66 27.108 115.697 27.108H176.553C183.592 27.108 187.765 32.8127 185.881 39.8519L151.564 167.926C149.679 174.963 142.446 180.668 135.407 180.668Z" fill="#BAC8FF"/>
<path fill-rule="evenodd" clip-rule="evenodd" d="M175.828 29.8202C181.36 29.8202 184.654 34.3225 183.174 39.8546L148.855 167.926C147.372 173.459 141.665 177.961 136.132 177.961H75.2791C69.7469 177.961 66.4525 173.459 67.9353 167.926L102.252 39.8546C103.735 34.3225 109.442 29.8202 114.974 29.8202H175.828Z" fill="#DBE4FF"/>
<path fill-rule="evenodd" clip-rule="evenodd" d="M114.535 31.4459H125.901C126.837 31.4459 127.395 32.2062 127.144 33.1444L126.936 33.9127C126.327 36.1854 127.675 38.0268 129.948 38.0268H156.452C158.725 38.0268 161.059 36.1854 161.669 33.9127L161.876 33.1444C162.127 32.2062 163.089 31.4459 164.028 31.4459H175.394C180.039 31.4459 182.794 35.2095 181.549 39.8546L147.232 167.927C145.989 172.569 141.214 176.335 136.572 176.335H75.7131C71.068 176.335 68.3127 172.569 69.5582 167.927L103.875 39.8546C105.118 35.2095 109.893 31.4459 114.535 31.4459Z" fill="white"/>
<path fill-rule="evenodd" clip-rule="evenodd" d="M133.733 32.7777H155.487C156.153 32.7777 156.549 33.3196 156.371 33.9855C156.193 34.6514 155.506 35.1933 154.84 35.1933H133.089C132.42 35.1933 132.024 34.6514 132.205 33.9855C132.38 33.3169 133.065 32.7777 133.733 32.7777Z" fill="#7B93F6"/>
<path fill-rule="evenodd" clip-rule="evenodd" d="M133.733 32.7777H155.487C156.153 32.7777 156.549 33.3196 156.371 33.9855C156.193 34.6514 155.506 35.1933 154.84 35.1933H133.089C132.42 35.1933 132.024 34.6514 132.205 33.9855C132.38 33.3169 133.065 32.7777 133.733 32.7777Z" fill="#7B93F6"/>
<path fill-rule="evenodd" clip-rule="evenodd" d="M103.875 39.8546C105.121 35.2095 109.893 31.4459 114.538 31.4459H125.901C126.837 31.4459 127.395 32.2062 127.144 33.1444L126.937 33.9127C126.327 36.1854 127.675 38.0268 129.948 38.0268H156.452C158.725 38.0268 161.059 36.1854 161.669 33.9127L161.876 33.1444C162.127 32.2062 163.09 31.4459 164.028 31.4459H175.394C180.039 31.4459 182.794 35.2095 181.549 39.8546L181.026 41.8038H103.352L103.875 39.8546Z" fill="#BAC8FF"/>
<path fill-rule="evenodd" clip-rule="evenodd" d="M168.505 36.6627H168.265L168.362 36.2987C168.378 36.2421 168.346 36.1963 168.287 36.1963H164.461C164.405 36.1963 164.345 36.2421 164.329 36.2987L163.855 38.0726C163.838 38.1293 163.874 38.1751 163.93 38.1751H167.756C167.812 38.1751 167.872 38.1293 167.885 38.0726L167.982 37.7087H168.222C168.279 37.7087 168.338 37.6629 168.352 37.6062L168.575 36.7651C168.597 36.7085 168.562 36.6627 168.505 36.6627ZM167.554 37.8192H166.494L166.834 36.5521H167.893C167.917 36.5521 167.936 36.5737 167.928 36.5979L167.613 37.7707C167.605 37.7977 167.58 37.8192 167.554 37.8192Z" fill="#DBE4FF"/>
<path fill-rule="evenodd" clip-rule="evenodd" d="M172.33 36.8675H171.745C171.686 36.8675 171.627 36.9133 171.611 36.9726L171.29 38.1723H172.085L172.409 36.9726C172.422 36.916 172.387 36.8675 172.33 36.8675Z" fill="#DBE4FF"/>
<path fill-rule="evenodd" clip-rule="evenodd" d="M173.541 36.3418H172.956C172.897 36.3418 172.837 36.3903 172.821 36.4469L172.357 38.1751H173.153L173.616 36.4469C173.633 36.3876 173.6 36.3418 173.541 36.3418Z" fill="#DBE4FF"/>
<path fill-rule="evenodd" clip-rule="evenodd" d="M174.752 35.8133H174.167C174.107 35.8133 174.048 35.8619 174.032 35.9185L173.428 38.1723H174.223L174.827 35.9185C174.846 35.8619 174.811 35.8133 174.752 35.8133Z" fill="#DBE4FF"/>
<path fill-rule="evenodd" clip-rule="evenodd" d="M175.965 35.2877H175.38C175.323 35.2877 175.261 35.3362 175.245 35.3955L174.501 38.175H175.296L176.04 35.3955C176.056 35.3362 176.021 35.2877 175.965 35.2877Z" fill="#DBE4FF"/>
<path fill-rule="evenodd" clip-rule="evenodd" d="M120.188 34.5867C119.684 34.2389 119.053 34.0556 118.36 34.0556C117.667 34.0556 116.937 34.2389 116.247 34.5867C116.133 34.6433 116.069 34.77 116.098 34.8671C116.12 34.9318 116.177 34.9696 116.249 34.9696C116.284 34.9696 116.322 34.9615 116.36 34.9426C116.977 34.6299 117.632 34.4654 118.252 34.4654C118.875 34.4654 119.439 34.6299 119.889 34.9426C119.97 34.9992 120.105 34.9669 120.188 34.8698C120.269 34.7701 120.269 34.646 120.188 34.5867Z" fill="#DBE4FF"/>
<path fill-rule="evenodd" clip-rule="evenodd" d="M119.35 35.5734C118.994 35.3253 118.544 35.1959 118.056 35.1959C117.565 35.1959 117.047 35.3253 116.557 35.5734C116.443 35.63 116.379 35.7567 116.408 35.8537C116.441 35.9508 116.557 35.9831 116.67 35.9265C117.088 35.7162 117.527 35.6057 117.948 35.6057C118.366 35.6057 118.748 35.7162 119.053 35.9265C119.08 35.9454 119.112 35.9535 119.147 35.9535C119.218 35.9535 119.296 35.9184 119.35 35.8537C119.43 35.7567 119.43 35.6327 119.35 35.5734Z" fill="#DBE4FF"/>
<path fill-rule="evenodd" clip-rule="evenodd" d="M118.511 36.56C118.301 36.4144 118.037 36.3363 117.748 36.3363C117.46 36.3363 117.155 36.4117 116.867 36.56C116.753 36.6166 116.689 36.7407 116.718 36.8404C116.748 36.9375 116.864 36.9698 116.977 36.9132C117.193 36.8054 117.422 36.746 117.638 36.746C117.853 36.746 118.05 36.8027 118.209 36.9132C118.236 36.9321 118.269 36.9402 118.304 36.9402C118.374 36.9402 118.452 36.9051 118.508 36.8404C118.592 36.7407 118.592 36.6166 118.511 36.56Z" fill="#DBE4FF"/>
<path fill-rule="evenodd" clip-rule="evenodd" d="M117.797 37.5387C117.756 37.4039 117.638 37.3231 117.484 37.3231C117.33 37.3231 117.169 37.4039 117.055 37.5387C117.05 37.5441 117.044 37.5495 117.042 37.5576C116.996 37.6169 116.964 37.6816 116.945 37.7463C116.883 37.9755 117.015 38.1615 117.239 38.1723C117.244 38.1723 117.252 38.175 117.257 38.175C117.263 38.175 117.271 38.175 117.276 38.1723C117.506 38.1642 117.737 37.9782 117.799 37.7463C117.818 37.6816 117.818 37.6142 117.805 37.5576C117.802 37.5522 117.799 37.5441 117.797 37.5387Z" fill="#DBE4FF"/>
<path fill-rule="evenodd" clip-rule="evenodd" d="M174.409 91.8625C174.693 91.8625 174.981 91.6361 175.056 91.353L179.853 73.4491C179.928 73.1687 179.761 72.9395 179.481 72.9395H178.885C178.604 72.9395 178.313 73.166 178.238 73.4491L173.442 91.353C173.366 91.6334 173.533 91.8625 173.814 91.8625H174.409Z" fill="#BAC8FF"/>
<path fill-rule="evenodd" clip-rule="evenodd" d="M96.119 156.461C95.6688 156.461 95.2051 156.827 95.0838 157.277C94.9624 157.728 95.232 158.094 95.6823 158.094C96.1325 158.094 96.5962 157.73 96.7175 157.277C96.8361 156.827 96.5693 156.461 96.119 156.461ZM126.707 156.461C126.257 156.461 125.794 156.827 125.672 157.277C125.551 157.728 125.818 158.094 126.271 158.094C126.721 158.094 127.182 157.73 127.306 157.277C127.425 156.827 127.158 156.461 126.707 156.461ZM119.062 156.461C118.611 156.461 118.148 156.827 118.029 157.277C117.908 157.728 118.175 158.094 118.625 158.094C119.075 158.094 119.539 157.73 119.66 157.277C119.779 156.827 119.509 156.461 119.062 156.461ZM111.413 156.461C110.963 156.461 110.499 156.827 110.378 157.277C110.257 157.728 110.526 158.094 110.974 158.094C111.424 158.094 111.888 157.73 112.009 157.277C112.13 156.827 111.863 156.461 111.413 156.461ZM103.765 156.461C103.315 156.461 102.851 156.827 102.73 157.277C102.608 157.728 102.878 158.094 103.328 158.094C103.778 158.094 104.242 157.73 104.363 157.277C104.485 156.827 104.215 156.461 103.765 156.461Z" fill="#DBE4FF"/>
<path fill-rule="evenodd" clip-rule="evenodd" d="M112.581 87.4545C112.254 88.6758 111.001 89.6625 109.78 89.6625C108.558 89.6625 107.836 88.6731 108.162 87.4545C108.488 86.236 109.742 85.2465 110.963 85.2465C112.182 85.2438 112.907 86.2333 112.581 87.4545Z" fill="#DBE4FF"/>
<path fill-rule="evenodd" clip-rule="evenodd" d="M132.167 87.4545C131.841 88.6758 130.587 89.6625 129.366 89.6625C128.145 89.6625 127.422 88.6731 127.748 87.4545C128.075 86.236 129.331 85.2465 130.552 85.2465C131.771 85.2438 132.493 86.2333 132.167 87.4545Z" fill="#DBE4FF"/>
<path fill-rule="evenodd" clip-rule="evenodd" d="M151.753 87.4545C151.427 88.6758 150.173 89.6625 148.952 89.6625C147.733 89.6625 147.008 88.6731 147.334 87.4545C147.661 86.236 148.917 85.2465 150.135 85.2465C151.357 85.2438 152.082 86.2333 151.753 87.4545Z" fill="#DBE4FF"/>
<path fill-rule="evenodd" clip-rule="evenodd" d="M109.723 98.1091C109.397 99.3303 108.143 100.32 106.922 100.32C105.701 100.32 104.978 99.3303 105.305 98.1091C105.631 96.8905 106.884 95.9011 108.106 95.9011C109.327 95.9011 110.052 96.8905 109.723 98.1091Z" fill="#DBE4FF"/>
<path fill-rule="evenodd" clip-rule="evenodd" d="M129.312 98.1091C128.986 99.3303 127.732 100.32 126.511 100.32C125.29 100.32 124.564 99.3303 124.893 98.1091C125.219 96.8905 126.476 95.9011 127.697 95.9011C128.916 95.9011 129.638 96.8905 129.312 98.1091Z" fill="#DBE4FF"/>
<path fill-rule="evenodd" clip-rule="evenodd" d="M148.898 98.1091C148.572 99.3303 147.318 100.32 146.097 100.32C144.876 100.32 144.153 99.3303 144.479 98.1091C144.806 96.8905 146.062 95.9011 147.281 95.9011C148.502 95.9011 149.224 96.8905 148.898 98.1091Z" fill="#DBE4FF"/>
<path fill-rule="evenodd" clip-rule="evenodd" d="M106.868 108.766C106.542 109.987 105.288 110.974 104.067 110.974C102.846 110.974 102.123 109.985 102.449 108.766C102.775 107.548 104.029 106.558 105.25 106.558C106.472 106.556 107.197 107.545 106.868 108.766Z" fill="#DBE4FF"/>
<path fill-rule="evenodd" clip-rule="evenodd" d="M126.457 108.766C126.13 109.987 124.877 110.974 123.656 110.974C122.434 110.974 121.709 109.985 122.038 108.766C122.364 107.548 123.621 106.558 124.839 106.558C126.06 106.556 126.783 107.545 126.457 108.766Z" fill="#DBE4FF"/>
<path fill-rule="evenodd" clip-rule="evenodd" d="M146.043 108.766C145.717 109.987 144.463 110.974 143.242 110.974C142.024 110.974 141.298 109.985 141.625 108.766C141.951 107.548 143.207 106.558 144.426 106.558C145.647 106.556 146.37 107.545 146.043 108.766Z" fill="#DBE4FF"/>
<path fill-rule="evenodd" clip-rule="evenodd" d="M104.013 119.421C103.687 120.642 102.43 121.629 101.212 121.629C99.9905 121.629 99.268 120.642 99.5942 119.421C99.9204 118.202 101.174 117.213 102.395 117.213C103.617 117.213 104.342 118.202 104.013 119.421Z" fill="#DBE4FF"/>
<path fill-rule="evenodd" clip-rule="evenodd" d="M123.602 119.421C123.276 120.642 122.022 121.629 120.801 121.629C119.58 121.629 118.855 120.642 119.183 119.421C119.51 118.202 120.763 117.213 121.985 117.213C123.203 117.213 123.928 118.202 123.602 119.421Z" fill="#DBE4FF"/>
<path fill-rule="evenodd" clip-rule="evenodd" d="M143.188 119.421C142.862 120.642 141.608 121.629 140.387 121.629C139.169 121.629 138.443 120.642 138.77 119.421C139.096 118.202 140.352 117.213 141.571 117.213C142.792 117.213 143.514 118.202 143.188 119.421Z" fill="#DBE4FF"/>
<path d="M136.372 130.423H100.405C100.171 130.423 100.033 130.234 100.095 130C100.157 129.768 100.397 129.576 100.632 129.576H136.596C136.831 129.576 136.968 129.768 136.906 130C136.847 130.234 136.607 130.423 136.372 130.423Z" fill="#DBE4FF"/>
<path fill-rule="evenodd" clip-rule="evenodd" d="M120.741 142.172C120.871 141.692 120.542 141.304 120.005 141.304H110.941C110.408 141.304 109.871 141.692 109.742 142.172L107.563 150.3C107.434 150.78 107.763 151.168 108.299 151.168H117.363C117.897 151.168 118.434 150.78 118.563 150.3L120.741 142.172Z" fill="#CAD7FF"/>
<path fill-rule="evenodd" clip-rule="evenodd" d="M118.328 141.35L118.752 139.767C118.962 138.98 118.832 138.263 118.452 137.742C118.072 137.222 117.441 136.901 116.654 136.901C115.867 136.901 115.064 137.225 114.403 137.742C113.742 138.263 113.23 138.98 113.017 139.767L112.594 141.35H110.979L111.402 139.767C111.734 138.535 112.537 137.414 113.567 136.602C114.597 135.791 115.851 135.286 117.085 135.286C118.32 135.286 119.304 135.791 119.897 136.602C120.493 137.414 120.695 138.532 120.366 139.767L119.943 141.35H118.328Z" fill="#CAD7FF"/>
<path fill-rule="evenodd" clip-rule="evenodd" d="M110.54 146.653C110.37 146.423 110.473 146.051 110.764 145.822C111.055 145.593 111.427 145.593 111.594 145.822L112.797 147.464L117.485 143.765C117.776 143.536 118.148 143.536 118.315 143.765C118.482 143.994 118.383 144.366 118.091 144.596L112.875 148.71C112.584 148.939 112.212 148.939 112.044 148.71L110.54 146.653Z" fill="white"/>
<path fill-rule="evenodd" clip-rule="evenodd" d="M114.365 170.086H101.266C99.7586 170.086 98.8635 168.865 99.2679 167.358C99.6723 165.848 101.22 164.629 102.727 164.629H115.827C117.334 164.629 118.229 165.851 117.824 167.358C117.423 168.865 115.872 170.086 114.365 170.086Z" fill="#DBE4FF"/>
<path fill-rule="evenodd" clip-rule="evenodd" d="M139.402 52.0054C136.264 52.0054 133.083 53.2752 130.476 55.3322C127.869 57.3892 125.836 60.2308 124.995 63.3662C124.332 65.8438 124.51 68.1381 125.356 70.0064C128.373 67.7391 131.988 66.3479 135.558 66.3479C139.127 66.3479 141.999 67.7391 143.799 70.0064C145.646 68.1381 147.056 65.8438 147.719 63.3662C148.56 60.2281 148.051 57.3866 146.544 55.3322C145.04 53.2752 142.538 52.0054 139.402 52.0054ZM134.124 58.2439C134.45 54.3266 143.112 54.3266 141.338 58.2439C140.427 60.2551 138.993 62.3525 136.992 63.6412C136.483 63.9701 135.911 63.9701 135.577 63.6412C134.266 62.3525 133.956 60.2551 134.124 58.2439ZM139.963 49.9106C147.396 49.9106 151.806 55.9361 149.814 63.3662C147.822 70.799 140.184 76.8218 132.751 76.8218C125.319 76.8218 120.908 70.7963 122.9 63.3662C124.893 55.9334 132.53 49.9106 139.963 49.9106Z" fill="#DBE4FF"/>
<path d="M171.762 27.1025C171.762 27.1025 169.778 30.1625 167.64 28.6312C165.505 27.0998 167.314 26.504 167.314 26.504C167.314 26.504 172.746 24.9673 171.762 27.1025Z" fill="#FFA8A8"/>
<defs>
<linearGradient id="paint0_linear_132_2916" x1="165.195" y1="219.85" x2="165.195" y2="9.96673" gradientUnits="userSpaceOnUse">
<stop stop-color="#FAFBFF"/>
<stop offset="1" stop-color="#DBE4FF"/>
</linearGradient>
</defs>
</svg>
