<svg width="315" height="208" viewBox="0 0 315 208" fill="none" xmlns="http://www.w3.org/2000/svg">
<path opacity="0.5" d="M48.0285 206.73C21.2017 206.73 0 186.265 0 164.544C0 131.547 31.8004 118.489 43.2686 97.2967C58.4136 69.311 34.6162 14.1746 78.75 7.49154C121.924 0.955154 122.884 84.3469 165.721 84.3469C213.316 84.3469 240.067 39.0884 268.268 60.5376C296.826 82.2587 267.2 115.094 278.653 136.558C291.069 159.826 315 156.066 315 179.58C315 199.212 299.855 206.73 284.71 206.73C255.29 206.73 48.0285 206.73 48.0285 206.73Z" fill="url(#paint0_linear_132_2779)"/>
<path d="M185.679 26.6952C185.679 30.8553 182.306 34.2304 178.143 34.2304C173.981 34.2304 170.608 30.8575 170.608 26.6952C170.608 22.533 173.981 19.1601 178.143 19.1601C182.306 19.1601 185.679 22.5352 185.679 26.6952Z" fill="white"/>
<path d="M170.609 59.9372H140.766V76.3359H170.609V59.9372Z" fill="white"/>
<path d="M171.32 117.04H141.477V133.438H171.32V117.04Z" fill="white"/>
<path d="M171.32 136.097H141.477V155.599H171.32V136.097Z" fill="white"/>
<path d="M158.539 207.77C238.06 207.77 302.525 206.606 302.525 205.171C302.525 203.736 238.06 202.572 158.539 202.572C79.0187 202.572 14.5543 203.736 14.5543 205.171C14.5543 206.606 79.0187 207.77 158.539 207.77Z" fill="#E7EDFF"/>
<path d="M163.657 63.0615C153.634 69.7358 140.098 67.0235 133.424 57.0004C126.75 46.9773 129.462 33.4417 139.485 26.7674C149.508 20.0931 163.044 22.808 169.718 32.8285C176.395 42.849 173.68 56.3873 163.657 63.0615Z" fill="#FFD43B"/>
<path d="M136.942 55.717C136.768 55.4806 136.599 55.2416 136.435 54.9948C130.876 46.6474 133.146 35.3357 141.491 29.7759C145.534 27.0818 150.384 26.1257 155.146 27.0818C159.908 28.0379 164.013 30.7892 166.707 34.8317C172.267 43.1791 169.999 54.4908 161.652 60.0505C153.554 65.444 142.658 63.4669 136.942 55.717ZM165.715 34.4575C163.117 30.9346 159.352 28.5367 155.029 27.6689C150.423 26.7466 145.734 27.6715 141.824 30.2747C133.752 35.65 131.559 46.5902 136.934 54.6622C142.309 62.7317 153.25 64.927 161.322 59.5517L161.488 59.8011L161.322 59.5517C169.394 54.1764 171.586 43.2362 166.211 35.1642C166.05 34.9252 165.884 34.6888 165.715 34.4575Z" fill="#FAB005"/>
<path d="M134.812 56.0756C128.657 46.8319 131.169 34.3069 140.41 28.1496C149.654 21.9949 162.179 24.5072 168.334 33.7483C174.488 42.992 171.976 55.517 162.735 61.6717C153.491 67.8316 140.966 65.3193 134.812 56.0756ZM167.866 34.0627C161.883 25.0787 149.706 22.6366 140.722 28.6198C131.738 34.603 129.296 46.7799 135.279 55.7638C141.262 64.7478 153.439 67.1899 162.423 61.2067C171.407 55.2235 173.849 43.0466 167.866 34.0627Z" fill="#FAB005"/>
<path d="M157.163 53.4359C160.933 47.0838 151.011 41.3812 152.17 39.4275C152.603 38.6948 153.461 38.6844 154.718 39.4301C156.306 40.3731 157.241 41.5293 158.142 43.2647C158.337 43.6388 158.776 43.8181 159.176 43.683L162.668 42.5009C163.107 42.3528 163.346 41.88 163.211 41.4357C162.585 39.3963 161.483 37.5205 159.566 35.9565L160.086 35.081C160.327 34.6757 160.192 34.1509 159.787 33.9093L157.35 32.4622C156.945 32.2206 156.42 32.3557 156.178 32.761L155.62 33.704C151.658 32.1894 148.215 33.0571 146.41 36.0994C142.515 42.6594 152.603 48.084 151.195 50.456C150.78 51.1549 149.909 51.1081 148.621 50.3417C146.771 49.2427 145.441 47.6657 144.046 45.2574C143.819 44.8677 143.326 44.7248 142.923 44.9275L139.351 46.7305C138.951 46.9305 138.772 47.4085 138.946 47.819C139.938 50.191 141.84 52.3941 143.682 53.8126L143.102 54.7895C142.861 55.1948 142.996 55.7196 143.401 55.9612L145.838 57.4083C146.243 57.6499 146.768 57.5148 147.01 57.1095L147.688 55.969C152.032 57.546 155.448 56.3223 157.163 53.4359Z" fill="#F59F00"/>
<path d="M189.978 202.138L188.547 204.661C188.547 204.661 185.416 204.692 184.652 204.661C184.457 204.653 184.377 204.411 184.525 204.284C185.717 203.266 189.978 202.138 189.978 202.138Z" fill="#212529"/>
<path d="M244.666 204.284C245.858 203.266 248.719 202.531 248.719 202.531L248.493 204.661C248.493 204.661 245.557 204.692 244.793 204.661C244.598 204.653 244.518 204.411 244.666 204.284Z" fill="#212529"/>
<path d="M218.02 62.7237C214.533 58.4785 213.206 47.702 215.744 47.0317C218.282 46.3614 222.618 51.6458 222.816 52.5473C240.971 56.9379 243.828 81.0241 241.566 82.6271C240.698 83.2428 238.458 82.0893 237.055 80.4629C238.16 88.7713 229.929 100.525 225.484 100.06C221.46 99.6388 213.99 89.7066 213.99 89.7066L221.163 67.6028L218.02 62.7237Z" fill="#212529"/>
<path d="M195.654 59.8503C195.654 59.8503 192.004 65.8075 194.116 75.9891C194.119 75.9891 199.946 69.3278 195.654 59.8503Z" fill="#C11F61"/>
<path d="M198.281 63.5006C198.281 63.5006 179.578 55.8157 174.712 46.9123C174.712 46.9123 174.715 44.6157 173.886 43.6181C173 42.5529 173.431 45.1821 173.304 46.3356C173.177 47.4891 171.446 47.6813 171.639 48.3205C171.831 48.9622 173.239 48.705 173.239 48.705C173.239 48.705 184.478 70.5438 198.281 74.7708V63.5006Z" fill="#FFA8A8"/>
<path d="M194.119 68.4809C194.119 68.4809 182.335 61.0038 173.239 48.7074C173.239 48.7074 184.478 70.5463 198.281 74.7733V63.5005C198.281 63.5005 197.455 63.1602 196.107 62.5418C196.107 62.5418 195.655 66.9429 194.119 68.4809Z" fill="#FF8787"/>
<path d="M195.654 59.8503C195.654 59.8503 207.054 65.7426 219.992 65.2308L217.173 80.8578C217.173 80.8578 205.004 83.1622 194.116 75.9891C194.119 75.9891 197.831 69.2005 195.654 59.8503Z" fill="#E64980"/>
<path d="M215.22 69.7305C215.22 69.7305 208.156 72.3779 196.093 69.2992C196.093 69.2992 196.093 69.2992 196.09 69.2992C195.514 73.4327 194.116 75.9891 194.116 75.9891C204.266 82.6764 215.529 81.1254 217.007 80.8838L215.22 69.7305Z" fill="#D6336C"/>
<path d="M208.528 103.479C208.528 103.479 201.228 127.227 200.266 147.98C199.305 168.73 196.808 184.872 188.547 204.661C188.547 204.661 217.943 176.223 214.485 145.673C214.485 145.673 226.013 122.772 223.901 105.017L208.528 103.479Z" fill="#393F44"/>
<path d="M211.913 110.896C206.075 127.227 214.485 145.673 214.485 145.673C214.485 145.673 221.884 130.973 223.739 115.996C218.904 108.607 214.214 104.458 211.913 110.896Z" fill="#212529"/>
<path d="M240.488 94.0506C240.488 94.0506 248.365 88.4778 250.992 80.3461C250.992 80.3461 241.32 83.9963 240.488 94.0506Z" fill="#C11F61"/>
<path d="M211.988 101.678C211.988 101.678 209.299 129.916 225.053 155.088C240.81 180.258 248.495 204.661 248.495 204.661C248.495 204.661 255.796 169.499 233.507 142.023C233.507 142.023 237.926 117.583 229.088 104.248L211.988 101.678Z" fill="#393F44"/>
<path d="M224.617 106.55C231.099 117.191 233.507 142.023 233.507 142.023C233.507 142.023 237.927 117.583 229.088 104.248L223.375 103.39C223.508 104.321 223.9 105.37 224.617 106.55Z" fill="#212529"/>
<path d="M219.992 65.231C219.992 65.231 213.108 72.3625 205.963 76.748C205.698 76.9091 205.566 77.2208 205.636 77.5222L209.746 95.3757L206.345 104.396C206.241 104.674 206.379 104.986 206.657 105.092C208.93 105.957 218.701 109.137 230.27 105.066C230.556 104.965 230.735 104.679 230.699 104.378C230.483 102.531 229.527 96.1499 226.269 92.1308C226.269 92.1308 230.881 84.5732 230.753 79.8344C230.623 75.0931 219.992 65.231 219.992 65.231Z" fill="#E64980"/>
<path d="M244.554 78.0391C244.554 78.0391 258.581 85.8201 259.254 110.896C259.254 110.896 260.854 112.242 260.854 113.073C260.854 113.905 259.958 116.531 258.742 116.147C257.526 115.762 256.949 111.982 256.949 111.982C256.949 111.982 250.608 93.9207 238.953 87.7712L244.554 78.0391Z" fill="#FFA8A8"/>
<path d="M259.254 110.896C258.581 85.8227 244.554 78.0391 244.554 78.0391L238.95 87.7738C240.049 88.3532 241.101 89.039 242.107 89.8081C242.107 89.8081 244.554 87.023 248.781 85.7266C248.781 85.724 255.892 94.6585 259.254 110.896Z" fill="#FF8787"/>
<path d="M219.992 65.231C219.992 65.231 236.773 67.0236 250.992 80.3462C250.992 80.3462 242.538 85.4695 240.488 94.0507C240.488 94.0507 231.008 87.2621 226.781 85.3396C222.554 83.4197 219.992 65.231 219.992 65.231Z" fill="#E64980"/>
<path d="M220.92 65.618C220.676 64.8593 220.749 62.9004 220.749 62.9004C222.035 61.3988 221.954 60.0167 221.03 60.5544C220.985 60.5804 220.928 60.5518 220.931 60.4999C221.027 59.1333 220.414 58.3072 219.712 58.0214C218.78 57.6421 217.6 58.3799 216.987 59.892C216.08 62.1262 216.189 64.4385 217.057 64.7892C217.408 64.9321 217.901 64.81 218.387 64.5891C218.374 65.605 217.54 66.7143 218.291 67.0598C219.289 67.5249 221.11 66.2051 220.92 65.618Z" fill="#FFA8A8"/>
<path d="M219.13 61.2169C218.992 60.9285 218.473 60.6817 218.114 60.9389C218.088 60.6531 218.377 60.292 218.839 60.3881C219.226 60.4661 219.517 61.0272 219.13 61.2169Z" fill="#212529"/>
<path d="M216.87 62.5133C216.797 62.7601 216.844 63.1654 216.878 63.3628C217.574 63.6798 218.309 63.4304 218.707 62.7315C218.164 62.903 217.127 62.8276 216.87 62.5133Z" fill="white"/>
<path d="M220.076 63.3498C220.076 63.3498 219.499 63.8876 218.39 64.5917C218.379 65.3451 217.922 66.1479 217.99 66.6545C219 66.1609 219.894 64.6021 220.076 63.3498Z" fill="#FF8787"/>
<path d="M229.088 86.5502L221.923 82.5701C221.869 82.5389 221.806 82.5987 221.84 82.6532C222.404 83.6275 224.739 88.1012 223.326 93.0245C223.326 93.0245 225.207 101.068 224.62 106.547C226.436 106.228 228.33 105.747 230.276 105.064C230.561 104.962 230.738 104.677 230.702 104.375C230.486 102.531 229.533 96.1473 226.272 92.1282C226.27 92.1308 227.813 89.6003 229.088 86.5502Z" fill="#D6336C"/>
<path d="M219.641 144.829C221.146 148.253 222.93 151.698 225.05 155.088C240.807 180.258 248.492 204.661 248.492 204.661C248.492 204.661 245.931 185.254 240.485 170.076C236.04 157.673 223.928 147.967 219.641 144.829Z" fill="#212529"/>
<path d="M201.391 136.123C200.853 140.061 200.446 144.073 200.266 147.977C199.305 168.728 196.808 184.869 188.547 204.658C188.547 204.658 201.804 185.555 203.727 169.263C204.883 159.445 203.038 145.585 201.391 136.123Z" fill="#212529"/>
<path fill-rule="evenodd" clip-rule="evenodd" d="M61.7022 55.8312H58.67C58.5794 55.8312 58.5061 55.732 58.5061 55.6112V51.9364C58.5061 51.8156 58.5794 51.7164 58.67 51.7164H61.7022C61.7928 51.7164 61.8661 51.8156 61.8661 51.9364V55.6112C61.8661 55.7342 61.7928 55.8312 61.7022 55.8312ZM81.1095 55.8312H78.1657C78.0514 55.8312 77.9565 55.7061 77.9565 55.553V38.462C77.9565 38.3089 78.0492 38.1838 78.1657 38.1838H81.1095C81.2238 38.1838 81.3186 38.3089 81.3186 38.462V55.553C81.3165 55.7083 81.2238 55.8312 81.1095 55.8312ZM76.5029 55.8312H73.557C73.4427 55.8312 73.35 55.7061 73.35 55.553V42.8032C73.35 42.6501 73.4427 42.525 73.557 42.525H76.5029C76.6172 42.525 76.7121 42.6501 76.7121 42.8032V55.553C76.7121 55.7083 76.6194 55.8312 76.5029 55.8312ZM71.6031 55.8312H68.5947C68.4976 55.8312 68.4178 55.7255 68.4178 55.5961V46.67C68.4178 46.5406 68.4976 46.4349 68.5947 46.4349H71.6031C71.7002 46.4349 71.78 46.5406 71.78 46.67V55.594C71.78 55.7255 71.7023 55.8312 71.6031 55.8312ZM66.6408 55.8312H63.697C63.5827 55.8312 63.4879 55.7061 63.4879 55.553V48.956C63.4879 48.8029 63.5806 48.6778 63.697 48.6778H66.6408C66.7551 48.6778 66.85 48.8029 66.85 48.956V55.553C66.85 55.7083 66.7573 55.8312 66.6408 55.8312Z" fill="#CAD7FF"/>
<path fill-rule="evenodd" clip-rule="evenodd" d="M58.918 38.1838H70.0504C70.2768 38.1838 70.4623 38.4318 70.4623 38.7337C70.4623 39.0356 70.2768 39.2836 70.0504 39.2836H58.918C58.6916 39.2836 58.5061 39.0356 58.5061 38.7337C58.5061 38.4318 58.6916 38.1838 58.918 38.1838ZM64.5618 40.6272H67.911C68.1375 40.6272 68.3229 40.8752 68.3229 41.1771C68.3229 41.4791 68.1375 41.7292 67.911 41.7292H64.5618C64.3354 41.7292 64.1499 41.4812 64.1499 41.1771C64.1478 40.8752 64.3332 40.6272 64.5618 40.6272ZM58.918 40.6272H62.2672C62.4937 40.6272 62.6791 40.8752 62.6791 41.1771C62.6791 41.4791 62.4937 41.7292 62.2672 41.7292H58.918C58.6916 41.7292 58.5061 41.4812 58.5061 41.1771C58.5061 40.8752 58.6916 40.6272 58.918 40.6272Z" fill="#CAD7FF"/>
<path fill-rule="evenodd" clip-rule="evenodd" d="M292.932 120.12C292.561 119.838 292.479 119.3 292.752 118.917C293.025 118.534 293.548 118.451 293.919 118.732L302.005 124.829L310.091 118.732C310.464 118.451 310.987 118.534 311.26 118.917C311.533 119.302 311.452 119.841 311.081 120.12L302.513 126.58C302.227 126.806 301.817 126.822 301.512 126.589L292.932 120.12ZM292.081 114.206C290.39 114.206 289.01 115.629 289.01 117.373V129.751C289.01 131.496 290.39 132.919 292.081 132.919H311.929C313.62 132.919 315 131.496 315 129.751V117.373C315 115.629 313.62 114.206 311.929 114.206H292.081ZM292.081 115.429C291.044 115.429 290.198 116.302 290.198 117.371V129.749C290.198 130.818 291.044 131.691 292.081 131.691H311.929C312.966 131.691 313.812 130.818 313.812 129.749V117.371C313.812 116.302 312.966 115.429 311.929 115.429H292.081Z" fill="#E7EDFF"/>
<path fill-rule="evenodd" clip-rule="evenodd" d="M15.0741 93.3844C17.8088 93.3844 20.2878 94.4939 22.08 96.286C23.8721 98.0782 24.9817 100.555 24.9817 103.292C24.9817 106.027 23.8721 108.506 22.08 110.298C20.2878 112.09 17.8109 113.2 15.0741 113.2C12.3373 113.2 9.86037 112.09 8.06821 110.298C6.27606 108.506 5.16653 106.029 5.16653 103.292C5.16653 100.555 6.27606 98.0782 8.06821 96.286C9.86248 94.4918 12.3394 93.3844 15.0741 93.3844ZM18.1723 103.29C18.1723 101.941 17.3101 100.794 16.1075 100.369V96.9729C16.1075 96.4044 15.6426 95.9416 15.0762 95.9416C14.5098 95.9416 14.0449 96.4065 14.0449 96.9729V100.369C13.1657 100.68 12.4683 101.377 12.1576 102.258H8.75718C8.18867 102.258 7.72584 102.723 7.72584 103.29C7.72584 103.858 8.19079 104.321 8.75718 104.321H12.1534C12.5782 105.524 13.7258 106.386 15.0741 106.386C16.7838 106.388 18.1723 105 18.1723 103.29ZM16.1075 103.29C16.1075 102.719 15.6447 102.258 15.0762 102.258C14.5056 102.258 14.0449 102.721 14.0449 103.29C14.0449 103.86 14.5077 104.321 15.0762 104.321C15.6447 104.323 16.1075 103.86 16.1075 103.29ZM27.0295 103.29C27.0295 96.6876 21.6763 91.3344 15.0741 91.3344C8.47187 91.3344 3.11865 96.6876 3.11865 103.29C3.11865 109.892 8.47187 115.245 15.0741 115.245C21.6763 115.245 27.0295 109.894 27.0295 103.29Z" fill="#E7EDFF"/>
<path fill-rule="evenodd" clip-rule="evenodd" d="M97.5122 170.019H164.892C172.683 170.019 177.308 163.703 175.219 155.912L137.223 14.1098C135.134 6.31836 127.127 0 119.333 0H51.9535C44.1621 0 39.5376 6.31576 41.6264 14.1098L79.6223 155.912C81.7111 163.703 89.7182 170.019 97.5122 170.019Z" fill="#7B93F6"/>
<path fill-rule="evenodd" clip-rule="evenodd" d="M102.311 170.019H169.69C177.481 170.019 182.106 163.703 180.017 155.912L142.024 14.1098C139.935 6.31833 131.928 -3.05176e-05 124.134 -3.05176e-05H56.7545C48.963 -3.05176e-05 44.3385 6.31573 46.4274 14.1098L84.4233 155.912C86.5095 163.703 94.5192 170.019 102.311 170.019Z" fill="#BAC8FF"/>
<path fill-rule="evenodd" clip-rule="evenodd" d="M57.5574 3.00071C51.4313 3.00071 47.7836 7.98369 49.4256 14.1098L87.4215 155.912C89.0634 162.038 95.3818 167.021 101.508 167.021H168.887C175.013 167.021 178.661 162.038 177.019 155.912L139.023 14.1098C137.381 7.98369 131.063 3.00071 124.937 3.00071H57.5574Z" fill="#DBE4FF"/>
<path fill-rule="evenodd" clip-rule="evenodd" d="M125.42 4.80106H112.835C111.796 4.80106 111.182 5.64281 111.46 6.67942L111.689 7.53157C112.362 10.0464 110.871 12.0859 108.356 12.0859H79.0087C76.4938 12.0859 73.9088 10.0464 73.2333 7.53157L73.0047 6.67942C72.7267 5.64281 71.6615 4.80106 70.6223 4.80106H58.0402C52.8987 4.80106 49.8487 8.96827 51.2256 14.1097L89.2215 155.912C90.5984 161.053 95.8828 165.22 101.024 165.22H168.404C173.545 165.22 176.595 161.053 175.218 155.912L137.222 14.1097C135.845 8.96827 130.561 4.80106 125.42 4.80106Z" fill="white"/>
<path fill-rule="evenodd" clip-rule="evenodd" d="M104.166 6.27412H80.0823C79.3444 6.27412 78.9054 6.87426 79.1028 7.61209C79.3003 8.34992 80.0615 8.95007 80.7993 8.95007H104.883C105.621 8.95007 106.06 8.34992 105.862 7.61209C105.665 6.87166 104.906 6.27412 104.166 6.27412Z" fill="#7B93F6"/>
<path fill-rule="evenodd" clip-rule="evenodd" d="M137.222 14.1097C135.845 8.96827 130.561 4.80106 125.42 4.80106H112.835C111.796 4.80106 111.182 5.64281 111.46 6.67942L111.689 7.53157C112.362 10.0464 110.871 12.0859 108.356 12.0859H79.0087C76.4939 12.0859 73.9088 10.0464 73.2333 7.53157L73.0047 6.67942C72.7267 5.64281 71.6615 4.80106 70.6223 4.80106H58.0402C52.8987 4.80106 49.8487 8.96827 51.2256 14.1097L51.805 16.2687H137.804L137.222 14.1097Z" fill="#BAC8FF"/>
<path fill-rule="evenodd" clip-rule="evenodd" d="M120.892 10.5765H120.627L120.518 10.1738C120.502 10.1115 120.437 10.0595 120.375 10.0595H116.137C116.075 10.0595 116.039 10.1115 116.054 10.1738L116.579 12.1379C116.597 12.2003 116.659 12.2522 116.724 12.2522H120.962C121.024 12.2522 121.061 12.2003 121.045 12.1379L120.936 11.7352H121.201C121.263 11.7352 121.3 11.6833 121.284 11.6209L121.035 10.6908C121.019 10.6259 120.954 10.5765 120.892 10.5765ZM120.523 11.8573H119.351L118.977 10.4544H120.149C120.177 10.4544 120.206 10.4778 120.214 10.5064L120.562 11.8054C120.567 11.8339 120.551 11.8573 120.523 11.8573Z" fill="#DBE4FF"/>
<path fill-rule="evenodd" clip-rule="evenodd" d="M125.249 10.8027H124.602C124.537 10.8027 124.498 10.8546 124.516 10.9196L124.872 12.2497H125.753L125.397 10.9196C125.379 10.8572 125.311 10.8027 125.249 10.8027Z" fill="#DBE4FF"/>
<path fill-rule="evenodd" clip-rule="evenodd" d="M126.275 10.2207H125.628C125.563 10.2207 125.524 10.2726 125.542 10.3376L126.054 12.2497H126.937L126.425 10.3376C126.407 10.2726 126.34 10.2207 126.275 10.2207Z" fill="#DBE4FF"/>
<path fill-rule="evenodd" clip-rule="evenodd" d="M127.304 9.63869H126.657C126.592 9.63869 126.553 9.69065 126.571 9.7556L127.239 12.2523H128.119L127.452 9.7556C127.436 9.69065 127.368 9.63869 127.304 9.63869Z" fill="#DBE4FF"/>
<path fill-rule="evenodd" clip-rule="evenodd" d="M128.333 9.05421H127.686C127.621 9.05421 127.582 9.10617 127.6 9.17112L128.426 12.2498H129.307L128.483 9.17112C128.465 9.10617 128.398 9.05421 128.333 9.05421Z" fill="#DBE4FF"/>
<path fill-rule="evenodd" clip-rule="evenodd" d="M66.162 8.27992C65.3982 7.89542 64.5902 7.69017 63.8212 7.69017C63.0522 7.69017 62.3533 7.89282 61.7974 8.27992C61.7064 8.34227 61.7064 8.47997 61.8 8.58908C61.8623 8.66183 61.9481 8.7008 62.026 8.7008C62.065 8.7008 62.1013 8.69041 62.1325 8.66962C62.6313 8.32409 63.2575 8.14223 63.9459 8.14223C64.6344 8.14223 65.3592 8.32409 66.0425 8.66962C66.1672 8.73197 66.2945 8.6956 66.3309 8.58908C66.3621 8.47997 66.2867 8.34227 66.162 8.27992Z" fill="#DBE4FF"/>
<path fill-rule="evenodd" clip-rule="evenodd" d="M65.8188 9.37114C65.2758 9.09835 64.7043 8.95286 64.1613 8.95286C63.6183 8.95286 63.1221 9.09835 62.7272 9.37114C62.6363 9.43349 62.6362 9.57378 62.7298 9.6803C62.8207 9.78942 62.9688 9.82319 63.0597 9.76084C63.3975 9.52702 63.8183 9.40491 64.2834 9.40491C64.7458 9.40491 65.2343 9.52962 65.6967 9.76084C65.7383 9.78162 65.7798 9.79202 65.8188 9.79202C65.8968 9.79202 65.9617 9.75045 65.9851 9.6803C66.0163 9.57378 65.9435 9.43349 65.8188 9.37114Z" fill="#DBE4FF"/>
<path fill-rule="evenodd" clip-rule="evenodd" d="M65.4762 10.4623C65.1566 10.3012 64.8189 10.2155 64.4993 10.2155C64.1798 10.2155 63.8862 10.3012 63.655 10.4623C63.5641 10.5246 63.5641 10.6649 63.655 10.7714C63.7459 10.8806 63.894 10.9143 63.9875 10.852C64.1616 10.7325 64.3798 10.6675 64.6214 10.6675C64.8605 10.6675 65.1151 10.7325 65.3541 10.852C65.3956 10.8728 65.4372 10.8832 65.4762 10.8832C65.5541 10.8832 65.6191 10.8442 65.6425 10.7714C65.6736 10.6623 65.6009 10.5246 65.4762 10.4623Z" fill="#DBE4FF"/>
<path fill-rule="evenodd" clip-rule="evenodd" d="M65.266 11.5457C65.1413 11.3976 64.9594 11.3067 64.7905 11.3067C64.6217 11.3067 64.4892 11.3976 64.445 11.5457C64.4424 11.5535 64.4424 11.5587 64.4398 11.5665C64.4242 11.6314 64.4268 11.7042 64.445 11.7769C64.5125 12.0289 64.7697 12.2368 65.0218 12.2472C65.0295 12.2472 65.0347 12.2472 65.0425 12.2472C65.0503 12.2472 65.0555 12.2472 65.0633 12.2472C65.3101 12.2368 65.4556 12.0289 65.3881 11.7769C65.3673 11.7042 65.3309 11.6314 65.2816 11.5665C65.279 11.5613 65.2738 11.5535 65.266 11.5457Z" fill="#DBE4FF"/>
<path fill-rule="evenodd" clip-rule="evenodd" d="M59.1263 71.6919C58.8145 71.6919 58.495 71.4399 58.4118 71.1282L53.1015 51.3054C53.0184 50.9936 53.2028 50.7416 53.5146 50.7416H54.1745C54.4863 50.7416 54.8058 50.9936 54.8889 51.3054L60.1993 71.1282C60.2824 71.4399 60.098 71.6919 59.7862 71.6919H59.1263ZM52.8859 45.9457C53.1976 45.9457 53.3821 45.6937 53.299 45.3819L51.5973 39.0324C51.5141 38.7206 51.192 38.4686 50.8828 38.4686H50.2229C49.9112 38.4686 49.7267 38.7206 49.8098 39.0324L51.5115 45.3819C51.5947 45.6937 51.9142 45.9457 52.226 45.9457H52.8859ZM66.6267 97.2303C66.9385 97.2303 67.123 96.9783 67.0398 96.6666L61.7295 76.8438C61.6464 76.532 61.3268 76.28 61.0151 76.28H60.3552C60.0434 76.28 59.8589 76.532 59.9421 76.8438L65.2524 96.6666C65.3355 96.9783 65.6551 97.2303 65.9669 97.2303H66.6267Z" fill="#BAC8FF"/>
<path fill-rule="evenodd" clip-rule="evenodd" d="M140.13 140.368H115.979C113.199 140.368 110.344 138.113 109.598 135.336C108.853 132.556 110.502 130.303 113.282 130.303H137.433C140.211 130.303 143.069 132.553 143.812 135.336C144.557 138.113 142.91 140.368 140.13 140.368Z" fill="#DBE4FF"/>
<path fill-rule="evenodd" clip-rule="evenodd" d="M111.71 149.011C111.162 149.011 110.834 149.456 110.983 150.006C111.131 150.557 111.694 151.002 112.245 151.002C112.796 151.002 113.121 150.557 112.975 150.006C112.825 149.458 112.258 149.011 111.71 149.011ZM149.033 149.011C148.482 149.011 148.157 149.456 148.305 150.006C148.454 150.557 149.017 151.002 149.568 151.002C150.119 151.002 150.444 150.557 150.298 150.006C150.147 149.458 149.581 149.011 149.033 149.011ZM139.703 149.011C139.153 149.011 138.828 149.456 138.973 150.006C139.121 150.557 139.685 151.002 140.236 151.002C140.784 151.002 141.112 150.557 140.963 150.006C140.815 149.458 140.252 149.011 139.703 149.011ZM130.371 149.011C129.821 149.011 129.496 149.456 129.641 150.006C129.789 150.557 130.353 151.002 130.904 151.002C131.455 151.002 131.78 150.557 131.634 150.006C131.486 149.458 130.92 149.011 130.371 149.011ZM121.042 149.011C120.491 149.011 120.166 149.456 120.312 150.006C120.46 150.557 121.024 151.002 121.575 151.002C122.125 151.002 122.45 150.557 122.305 150.006C122.154 149.458 121.59 149.011 121.042 149.011Z" fill="#DBE4FF"/>
<path fill-rule="evenodd" clip-rule="evenodd" d="M75.2785 45.26H98.5956C99.879 45.26 101.209 46.3096 101.552 47.5904L107.8 70.9075C108.143 72.1909 107.374 73.2379 106.093 73.2379H82.7764C81.493 73.2379 80.1628 72.1883 79.8199 70.9075L73.5717 47.5904C73.2287 46.307 73.9977 45.26 75.2785 45.26Z" fill="#DBE4FF"/>
<path fill-rule="evenodd" clip-rule="evenodd" d="M75.5121 46.1329H98.8292C99.6294 46.1329 100.463 46.7902 100.676 47.5904L106.925 70.9075C107.14 71.7077 106.66 72.365 105.857 72.365H82.5397C81.7395 72.365 80.9056 71.7077 80.6925 70.9075L74.4443 47.5904C74.2313 46.7902 74.7119 46.1329 75.5121 46.1329Z" fill="white"/>
<path fill-rule="evenodd" clip-rule="evenodd" d="M106.546 45.2599H129.863C131.146 45.2599 132.476 46.3095 132.819 47.5903L139.067 70.9074C139.41 72.1909 138.644 73.2379 137.36 73.2379H114.043C112.76 73.2379 111.43 72.1883 111.087 70.9074L104.839 47.5903C104.496 46.3069 105.265 45.2599 106.546 45.2599Z" fill="#DBE4FF"/>
<path fill-rule="evenodd" clip-rule="evenodd" d="M106.782 46.1329H130.099C130.899 46.1329 131.733 46.7902 131.946 47.5904L138.194 70.9075C138.41 71.7077 137.929 72.365 137.126 72.365H113.809C113.009 72.365 112.175 71.7077 111.962 70.9075L105.714 47.5904C105.498 46.7902 105.979 46.1329 106.782 46.1329Z" fill="white"/>
<path fill-rule="evenodd" clip-rule="evenodd" d="M83.6566 76.5269H106.974C108.257 76.5269 109.587 77.5765 109.93 78.8573L116.178 102.174C116.521 103.458 115.755 104.505 114.472 104.505H91.1544C89.871 104.505 88.5408 103.455 88.1979 102.174L81.9497 78.8573C81.6068 77.5765 82.3758 76.5269 83.6566 76.5269Z" fill="#DBE4FF"/>
<path fill-rule="evenodd" clip-rule="evenodd" d="M83.8906 77.3999H107.208C108.008 77.3999 108.842 78.0546 109.055 78.8574L115.303 102.175C115.519 102.975 115.038 103.632 114.235 103.632H90.9182C90.1181 103.632 89.2841 102.977 89.0711 102.175L82.8229 78.8574C82.6098 78.0572 83.0904 77.3999 83.8906 77.3999Z" fill="white"/>
<path fill-rule="evenodd" clip-rule="evenodd" d="M114.924 76.5269H138.241C139.525 76.5269 140.855 77.5765 141.198 78.8573L147.446 102.174C147.789 103.458 147.023 104.505 145.739 104.505H122.422C121.139 104.505 119.808 103.455 119.466 102.174L113.217 78.8573C112.874 77.5765 113.641 76.5269 114.924 76.5269Z" fill="#DBE4FF"/>
<path fill-rule="evenodd" clip-rule="evenodd" d="M115.158 77.3999H138.475C139.275 77.3999 140.109 78.0546 140.322 78.8574L146.57 102.175C146.786 102.975 146.305 103.632 145.502 103.632H122.185C121.385 103.632 120.551 102.977 120.338 102.175L114.09 78.8574C113.877 78.0572 114.357 77.3999 115.158 77.3999Z" fill="white"/>
<path fill-rule="evenodd" clip-rule="evenodd" d="M89.9364 66.244L90.908 67.5092C91.1418 67.8132 91.4796 67.9924 91.8199 67.9924H93.028H94.2361C94.5764 67.9924 94.818 67.8132 94.8882 67.5092L95.1818 66.244C95.6624 66.244 95.9508 65.8517 95.8209 65.371C95.691 64.8904 95.1947 64.4955 94.7115 64.4955H89.4661C88.9855 64.4955 88.6971 64.8878 88.827 65.371C88.9569 65.8491 89.4557 66.244 89.9364 66.244ZM88.3438 50.5052C84.9638 50.5052 82.9581 53.2461 83.8622 56.6261C84.4312 58.7487 86.0134 60.6193 87.9463 61.7156C88.4399 61.9962 88.8114 62.4041 89.0115 62.8822C89.1933 63.3108 89.6402 63.6226 90.0741 63.6226H90.5443L89.0219 57.9381H88.1463C87.6631 57.9381 87.1747 57.7433 86.772 57.4263C86.3719 57.1094 86.0575 56.6729 85.9276 56.1897C85.7977 55.7064 85.8757 55.27 86.1095 54.953C86.3407 54.6361 86.7252 54.4412 87.2085 54.4412C87.6917 54.4412 88.1801 54.6361 88.5828 54.953C89.0011 55.283 89.3024 55.7246 89.4272 56.1897L89.661 57.0652H90.5391L90.3027 56.1897C90.1728 55.7064 90.2507 55.27 90.4845 54.953C90.7158 54.6361 91.1003 54.4412 91.5835 54.4412C92.0667 54.4412 92.5552 54.6361 92.9579 54.953C93.3579 55.27 93.6723 55.7064 93.8022 56.1897C93.9321 56.6729 93.8542 57.1094 93.6203 57.4263C93.3891 57.7433 93.0046 57.9381 92.5214 57.9381H91.6458L93.1683 63.6226H93.6411C94.075 63.6226 94.3556 63.3108 94.3062 62.8822C94.2517 62.4041 94.4049 61.9962 94.7479 61.7156C96.0936 60.6193 96.6756 58.7487 96.1066 56.6261C95.1973 53.2461 91.7238 50.5052 88.3438 50.5052ZM91.4172 63.62L89.8948 57.9355H90.7729L92.2954 63.62H91.4172ZM91.4094 57.0626L91.1756 56.1871C91.1107 55.9455 91.1496 55.7272 91.2665 55.5687C91.3835 55.4103 91.5757 55.3115 91.8173 55.3115C92.0589 55.3115 92.3032 55.4103 92.5032 55.5687C92.7033 55.7272 92.8591 55.9455 92.9241 56.1871C92.989 56.4287 92.9501 56.6469 92.8331 56.8054C92.7162 56.9639 92.524 57.0626 92.2824 57.0626H91.4094ZM87.9151 57.0626C87.6735 57.0626 87.4293 56.9639 87.2292 56.8054C87.0292 56.6469 86.8707 56.4287 86.8084 56.1871C86.7434 55.9455 86.7824 55.7272 86.8993 55.5687C87.0162 55.4103 87.2085 55.3115 87.4501 55.3115C87.6917 55.3115 87.9359 55.4103 88.1385 55.5687C88.3386 55.7272 88.4971 55.9455 88.562 56.1871L88.7958 57.0626H87.9151Z" fill="#BAC8FF"/>
<path fill-rule="evenodd" clip-rule="evenodd" d="M93.472 95.7627H94.3476C94.5892 95.7627 94.8386 95.9601 94.9009 96.1991L95.0179 96.6356C95.1478 97.1162 95.6466 97.5085 96.1272 97.5085H97.0027C97.4834 97.5085 97.7717 97.1162 97.6418 96.6356L97.5249 96.1991C97.46 95.9575 97.6055 95.7627 97.8445 95.7627H98.7174C98.959 95.7627 99.2084 95.9601 99.2708 96.1991L99.3877 96.6356C99.5176 97.1162 100.016 97.5085 100.497 97.5085H101.373C101.853 97.5085 102.142 97.1162 102.012 96.6356L101.895 96.1991C101.83 95.9575 101.973 95.7627 102.214 95.7627H103.095C103.337 95.7627 103.583 95.9601 103.648 96.1991L103.765 96.6356C103.895 97.1162 104.394 97.5085 104.875 97.5085H105.755C106.236 97.5085 106.524 97.1162 106.395 96.6356L106.278 96.1991C106.213 95.9575 106.356 95.7627 106.597 95.7627H107.468C107.709 95.7627 107.956 95.9601 108.021 96.1991L108.605 98.3841C108.735 98.8647 108.447 99.257 107.966 99.257H94.8464C94.3657 99.257 93.8669 98.8647 93.737 98.3841L93.1525 96.1991C93.0875 95.9575 93.2304 95.7627 93.472 95.7627ZM100.12 91.0577C99.7228 90.7095 99.3383 90.4004 98.9642 90.1042C98.9331 90.1458 98.9019 90.1873 98.8733 90.2289C98.2264 91.107 97.6574 91.7877 98.0186 93.1387C98.2784 94.1051 99.2708 94.8871 100.235 94.8871C101.201 94.8871 101.773 94.1051 101.515 93.1387C101.284 92.2709 100.853 91.702 100.12 91.0577ZM105.852 93.0945C105.748 93.8479 105.483 94.5312 105.08 95.1132C105.007 95.2275 104.864 95.2846 104.693 95.2483C104.443 95.1937 104.236 94.9599 104.225 94.726C104.22 94.5546 104.202 94.3805 104.176 94.1987C104.15 94.0272 104.111 93.8505 104.062 93.6635C104.033 93.5517 104.067 93.6687 104.046 93.6037L104.028 93.5414C103.381 91.2811 101.814 90.1613 100.25 89.039C99.5644 88.548 98.8811 88.0569 98.2498 87.4724C97.9328 88.0569 97.5093 88.548 97.0885 89.039C96.1246 90.1613 95.1607 91.2811 95.7219 93.5388L95.7375 93.6037C95.7531 93.6687 95.7245 93.5517 95.7557 93.6635C95.805 93.8453 95.8596 94.0194 95.9246 94.1857L95.9298 94.1987C95.9999 94.3779 96.0752 94.5546 96.161 94.726C96.2337 94.8689 96.2337 95.0274 96.148 95.1365C96.0181 95.3028 95.7427 95.2976 95.5271 95.1235C94.8074 94.539 94.1709 93.8531 93.6591 93.0945C93.1655 92.3645 92.7888 91.5669 92.5653 90.7329C92.5523 90.6809 92.5731 90.7537 92.5445 90.6472L92.5237 90.5614C91.7262 87.3425 93.1785 85.8201 94.6307 84.2976C95.3218 83.5728 96.0103 82.8505 96.4156 81.9568C96.4338 81.9178 96.4571 81.8815 96.4909 81.8529C96.6494 81.7126 96.9326 81.7568 97.1248 81.9516C98.0082 82.8479 99.0889 83.5728 100.17 84.2976C102.435 85.8175 104.701 87.3399 105.628 90.5536L105.654 90.6472C105.685 90.7537 105.665 90.6783 105.68 90.7329C105.904 91.5669 105.953 92.3645 105.852 93.0945Z" fill="#BAC8FF"/>
<path fill-rule="evenodd" clip-rule="evenodd" d="M116.574 58.6916L119.291 50.7183C119.309 50.6585 119.346 50.6066 119.4 50.5676C119.572 50.4429 119.857 50.5078 120.039 50.7131L127.036 58.6916C127.449 59.1618 127.81 59.6762 128.109 60.2192C128.397 60.7466 128.626 61.3 128.776 61.8689C129.228 63.5602 128.956 65.0905 128.142 66.1972C127.332 67.304 125.986 67.9898 124.295 67.9898C122.604 67.9898 120.891 67.304 119.486 66.1972C118.08 65.0905 116.987 63.5602 116.535 61.8689C116.381 61.3 116.314 60.7466 116.319 60.2192C116.327 59.6762 116.412 59.1644 116.574 58.6916ZM115.355 50.9417C114.63 50.9417 114.202 51.5289 114.394 52.2537C114.589 52.9785 115.332 53.5657 116.057 53.5657C116.781 53.5657 117.21 52.9785 117.018 52.2537C116.823 51.5289 116.08 50.9417 115.355 50.9417ZM114.661 54.8777C114.178 54.8777 113.892 55.27 114.022 55.7532C114.152 56.2364 114.648 56.6287 115.132 56.6287C115.615 56.6287 115.901 56.2364 115.771 55.7532C115.641 55.2674 115.145 54.8777 114.661 54.8777ZM124.1 50.9417C123.375 50.9417 122.946 51.5289 123.139 52.2537C123.334 52.9785 124.077 53.5657 124.801 53.5657C125.526 53.5657 125.955 52.9785 125.763 52.2537C125.568 51.5289 124.822 50.9417 124.1 50.9417ZM126.901 54.8777C126.417 54.8777 126.132 55.27 126.262 55.7532C126.391 56.2364 126.888 56.6287 127.371 56.6287C127.854 56.6287 128.14 56.2364 128.01 55.7532C127.88 55.2674 127.384 54.8777 126.901 54.8777ZM120.962 55.6909L119.915 58.7617C119.798 59.1046 119.795 59.4917 119.904 59.8944C120.229 61.1025 121.468 62.0794 122.676 62.0794C123.884 62.0794 124.601 61.1025 124.277 59.8944C124.168 59.4917 123.96 59.1046 123.658 58.7617L120.962 55.6909Z" fill="#BAC8FF"/>
<path fill-rule="evenodd" clip-rule="evenodd" d="M120.767 86.6411L127.781 81.8348C127.893 81.7569 128.059 81.7491 128.223 81.8322L137.815 86.6385C138.049 86.7555 138.194 87.0127 138.142 87.2205L137.919 88.083C137.875 88.2857 137.662 88.3792 137.425 88.2961L128.935 85.298L122.053 88.2961C121.871 88.3766 121.611 88.2909 121.453 88.0934L120.756 87.2205C120.593 87.0153 120.595 86.7581 120.767 86.6411ZM124.508 94.8872H129.753L128.465 90.0783C128.4 89.8367 128.543 89.6419 128.784 89.6419H131.408C131.65 89.6419 131.899 89.8393 131.962 90.0783L133.25 94.8872H138.496L136.911 88.9664L129.184 86.2385L122.921 88.9664L124.508 94.8872ZM124.773 97.5112H139.636C139.878 97.5112 140.021 97.3138 139.956 97.0748L139.722 96.1992C139.657 95.9576 139.407 95.7628 139.168 95.7628H124.305C124.064 95.7628 123.921 95.9602 123.986 96.1992L124.22 97.0748C124.282 97.3138 124.531 97.5112 124.773 97.5112Z" fill="#BAC8FF"/>
<path fill-rule="evenodd" clip-rule="evenodd" d="M124.978 31.9659L126.932 33.5065L125.804 35.0471L124.978 31.9659Z" fill="#DBE4FF"/>
<path fill-rule="evenodd" clip-rule="evenodd" d="M73.0415 31.9659L71.9114 33.5065L73.8677 35.0472L73.0415 31.9659Z" fill="#DBE4FF"/>
<path fill-rule="evenodd" clip-rule="evenodd" d="M130.393 38.5388H71.1476C68.3678 38.5388 65.5125 36.2837 64.7695 33.5065C64.0239 30.7266 65.6736 28.4741 68.4509 28.4741H127.698C130.476 28.4741 133.334 30.724 134.077 33.5065C134.82 36.2837 133.172 38.5388 130.393 38.5388ZM71.0099 38.0296H130.258C131.507 38.0296 132.502 37.523 133.1 36.7046C133.7 35.8862 133.903 34.7561 133.567 33.5065C133.232 32.2568 132.424 31.1267 131.385 30.3083C130.346 29.4899 129.081 28.9833 127.831 28.9833H68.586C67.3363 28.9833 66.3413 29.4899 65.7438 30.3083C65.1462 31.1267 64.941 32.2568 65.2761 33.5065C65.6113 34.7535 66.4192 35.8862 67.4584 36.7046C68.4951 37.523 69.7629 38.0296 71.0099 38.0296Z" fill="#DBE4FF"/>
<path fill-rule="evenodd" clip-rule="evenodd" d="M84.904 31.2462H86.6993C86.9954 31.2462 87.302 31.4878 87.3825 31.784L88.3048 35.2315C88.3854 35.5277 88.2061 35.7693 87.9099 35.7693H86.1147C85.8185 35.7693 85.512 35.5277 85.4314 35.2315L84.5091 31.784C84.4312 31.4878 84.6079 31.2462 84.904 31.2462Z" fill="#DBE4FF"/>
<path fill-rule="evenodd" clip-rule="evenodd" d="M90.1104 31.2462H91.9055C92.2017 31.2462 92.5083 31.4878 92.5888 31.7839L93.5111 35.2315C93.5916 35.5277 93.4124 35.7693 93.1162 35.7693H91.321C91.0248 35.7693 90.7183 35.5277 90.6377 35.2315L89.7155 31.7839C89.6349 31.4878 89.8142 31.2462 90.1104 31.2462Z" fill="#DBE4FF"/>
<path fill-rule="evenodd" clip-rule="evenodd" d="M95.3141 31.2462H97.1093C97.4054 31.2462 97.712 31.4878 97.7925 31.7839L98.7148 35.2315C98.7954 35.5277 98.6161 35.7693 98.3199 35.7693H96.5247C96.2286 35.7693 95.922 35.5277 95.8415 35.2315L94.9192 31.7839C94.8412 31.4878 95.0179 31.2462 95.3141 31.2462Z" fill="#DBE4FF"/>
<path fill-rule="evenodd" clip-rule="evenodd" d="M100.521 31.2462H102.316C102.612 31.2462 102.919 31.4878 102.999 31.7839L103.922 35.2315C104.002 35.5277 103.823 35.7693 103.527 35.7693H101.732C101.435 35.7693 101.129 35.5277 101.048 35.2315L100.126 31.7839C100.048 31.4878 100.225 31.2462 100.521 31.2462Z" fill="#DBE4FF"/>
<path fill-rule="evenodd" clip-rule="evenodd" d="M105.727 31.2462H107.523C107.819 31.2462 108.125 31.4878 108.206 31.7839L109.128 35.2315C109.209 35.5277 109.029 35.7693 108.733 35.7693H106.938C106.642 35.7693 106.335 35.5277 106.255 35.2315L105.332 31.7839C105.255 31.4878 105.431 31.2462 105.727 31.2462Z" fill="#DBE4FF"/>
<path fill-rule="evenodd" clip-rule="evenodd" d="M110.933 31.2462H112.729C113.025 31.2462 113.331 31.4878 113.412 31.7839L114.334 35.2315C114.415 35.5277 114.235 35.7693 113.939 35.7693H112.144C111.848 35.7693 111.541 35.5277 111.461 35.2315L110.538 31.7839C110.458 31.4878 110.637 31.2462 110.933 31.2462Z" fill="#DBE4FF"/>
<path fill-rule="evenodd" clip-rule="evenodd" d="M118.868 117.277C118.514 116.999 118.395 116.547 118.598 116.269C118.8 115.991 119.252 115.991 119.606 116.269L122.133 118.261L125.42 113.772C125.623 113.494 126.075 113.494 126.428 113.772C126.781 114.05 126.903 114.502 126.698 114.78L123.043 119.774C122.837 120.052 122.388 120.052 122.035 119.774L118.868 117.277ZM120.491 112.135C117.34 112.135 115.47 114.692 116.314 117.843C117.158 120.995 120.398 123.551 123.552 123.551C126.703 123.551 128.574 120.995 127.729 117.843C127.576 117.269 127.342 116.716 127.046 116.193C127.012 116.131 126.953 116.087 126.885 116.071C126.818 116.056 126.76 116.071 126.727 116.118L126.298 116.703C126.267 116.747 126.264 116.804 126.293 116.866C126.443 117.181 126.568 117.505 126.657 117.841C127.342 120.402 125.823 122.478 123.261 122.478C120.699 122.478 118.068 120.402 117.382 117.841C116.696 115.279 118.216 113.203 120.777 113.203C121.85 113.203 122.936 113.569 123.887 114.18C123.973 114.235 124.072 114.229 124.118 114.164L124.49 113.655C124.516 113.619 124.521 113.572 124.505 113.52C124.49 113.468 124.453 113.424 124.404 113.39C123.217 112.608 121.845 112.135 120.491 112.135Z" fill="#BAC8FF"/>
<path fill-rule="evenodd" clip-rule="evenodd" d="M143.686 118.342H134.728C134.453 118.342 134.172 118.119 134.097 117.846C134.024 117.57 134.188 117.347 134.461 117.347H143.419C143.694 117.347 143.975 117.57 144.05 117.846C144.123 118.119 143.959 118.342 143.686 118.342Z" fill="#DBE4FF"/>
<path fill-rule="evenodd" clip-rule="evenodd" d="M109.58 118.342H100.622C100.347 118.342 100.066 118.119 99.9908 117.846C99.918 117.57 100.082 117.347 100.355 117.347H109.312C109.588 117.347 109.868 117.57 109.944 117.846C110.016 118.119 109.853 118.342 109.58 118.342Z" fill="#DBE4FF"/>
<path fill-rule="evenodd" clip-rule="evenodd" d="M11.4234 147.717H41.4712C42.0837 147.717 42.584 148.218 42.584 148.83C42.584 149.443 42.0837 149.943 41.4712 149.943H11.4234C10.8109 149.943 10.3105 149.443 10.3105 148.83C10.3105 148.22 10.8109 147.717 11.4234 147.717ZM26.6554 152.658H35.698C36.3105 152.658 36.8108 153.159 36.8108 153.771C36.8108 154.383 36.3105 154.884 35.698 154.884H26.6554C26.0429 154.884 25.5426 154.383 25.5426 153.771C25.5426 153.159 26.0451 152.658 26.6554 152.658ZM11.4234 152.658H20.466C21.0784 152.658 21.5788 153.159 21.5788 153.771C21.5788 154.383 21.0784 154.884 20.466 154.884H11.4234C10.8109 154.884 10.3105 154.383 10.3105 153.771C10.3105 153.159 10.8109 152.658 11.4234 152.658Z" fill="#CAD7FF"/>
<path d="M264.912 24.0459L259.686 22.5473L258.072 17.6946C258.038 17.5918 257.936 17.5225 257.821 17.5225C257.706 17.5225 257.604 17.5939 257.568 17.6946L255.954 22.5473L250.73 24.0459C250.619 24.0774 250.545 24.1719 250.545 24.281C250.545 24.3881 250.619 24.4825 250.73 24.514L255.956 26.0126L257.57 30.8653C257.604 30.9681 257.705 31.0374 257.823 31.0374C257.941 31.0374 258.04 30.9681 258.074 30.8653L259.688 26.0126L264.914 24.514C265.025 24.4825 265.099 24.3881 265.099 24.281C265.099 24.1719 265.022 24.0774 264.912 24.0459Z" fill="#E7EDFF"/>
<path d="M24.7353 38.5422L22.343 37.8032L21.604 35.4108C21.5643 35.2835 21.4453 35.1958 21.3117 35.1958C21.1781 35.1958 21.0591 35.2835 21.0195 35.4108L20.2805 37.8032L17.8881 38.5422C17.7608 38.5818 17.6731 38.7008 17.6731 38.8344C17.6731 38.968 17.7608 39.087 17.8881 39.1267L20.2805 39.8657L21.0195 42.258C21.0591 42.3854 21.1781 42.473 21.3117 42.473C21.4453 42.473 21.5643 42.3854 21.604 42.258L22.343 39.8657L24.7353 39.1267C24.8626 39.087 24.9503 38.968 24.9503 38.8344C24.9503 38.7008 24.8626 38.5818 24.7353 38.5422Z" fill="#E7EDFF"/>
<path d="M208.077 43.1094C204.84 43.1094 202.205 40.4762 202.205 37.237C202.205 34 204.838 31.3646 208.077 31.3646C211.314 31.3646 213.95 33.9978 213.95 37.237C213.95 40.4762 211.317 43.1094 208.077 43.1094ZM208.077 32.3178C205.364 32.3178 203.158 34.524 203.158 37.237C203.158 39.95 205.364 42.1562 208.077 42.1562C210.79 42.1562 212.997 39.95 212.997 37.237C212.999 34.5262 210.79 32.3178 208.077 32.3178Z" fill="#BAC8FF"/>
<path d="M209.195 36.1545V35.5636H207.028V36.148L209.689 37.4787C209.84 37.5541 209.963 37.6663 210.047 37.8043C210.133 37.9423 210.179 38.1019 210.179 38.2701V39.012C210.179 39.2557 210.079 39.4778 209.918 39.6396C209.758 39.7992 209.536 39.9005 209.29 39.9005H208.602V40.2952H207.617V39.9005H206.926C206.683 39.9005 206.461 39.8013 206.299 39.6396C206.139 39.48 206.04 39.2557 206.04 39.012V38.324H207.026V38.915H209.193V38.3305L206.532 36.9999C206.379 36.9244 206.258 36.8123 206.174 36.6721C206.087 36.5341 206.04 36.3745 206.04 36.2063V35.4644C206.04 35.2207 206.139 34.9986 206.299 34.8368C206.458 34.6772 206.683 34.5759 206.926 34.5759H207.617V34.1812H208.602V34.5759H209.29C209.534 34.5759 209.756 34.6751 209.918 34.8368C210.077 34.9964 210.179 35.2185 210.179 35.4644V36.1545H209.195Z" fill="#BAC8FF"/>
<defs>
<linearGradient id="paint0_linear_132_2779" x1="157.5" y1="206.731" x2="157.5" y2="7.12589" gradientUnits="userSpaceOnUse">
<stop stop-color="#FAFBFF"/>
<stop offset="1" stop-color="#DBE4FF"/>
</linearGradient>
</defs>
</svg>
