<svg width="315" height="213" viewBox="0 0 315 213" fill="none" xmlns="http://www.w3.org/2000/svg">
<g opacity="0.5">
<path opacity="0.5" d="M242.237 90.5938C242.237 76.0375 256.822 62.2341 256.822 41.2931C256.822 25.9054 245.066 11.1588 225.405 11.1588C195.914 11.1588 192.042 42.5361 168.963 42.5361C136.053 42.5361 127.056 28.8588 96.924 28.8588C75.1247 28.8588 48.7547 45.715 48.7547 83.5432C48.7547 122.223 0 129.038 0 165.625C0 201.954 32.2873 208.196 61.1393 208.196C61.1393 208.196 243.306 208.196 261.899 208.196C280.493 208.196 314.172 203.665 314.172 168.192C314.168 121.047 242.237 123.504 242.237 90.5938Z" fill="url(#paint0_linear_132_2644)"/>
</g>
<path fill-rule="evenodd" clip-rule="evenodd" d="M43.326 128.974H76.027C76.6929 128.974 77.2369 129.518 77.2369 130.186C77.2369 130.852 76.6929 131.398 76.027 131.398H43.326C42.66 131.398 42.114 130.854 42.114 130.186C42.114 129.52 42.66 128.974 43.326 128.974ZM59.903 134.35H69.7437C70.4096 134.35 70.9556 134.894 70.9556 135.562C70.9556 136.228 70.4117 136.774 69.7437 136.774H59.903C59.237 136.774 58.691 136.23 58.691 135.562C58.693 134.894 59.237 134.35 59.903 134.35ZM43.326 134.35H53.1667C53.8327 134.35 54.3766 134.894 54.3766 135.562C54.3766 136.228 53.8327 136.774 53.1667 136.774H43.326C42.66 136.774 42.114 136.23 42.114 135.562C42.114 134.894 42.66 134.35 43.326 134.35Z" fill="#CAD7FF"/>
<path fill-rule="evenodd" clip-rule="evenodd" d="M33.8623 70.95C33.2584 70.3693 33.2584 69.4292 33.8623 68.8486C34.4663 68.2679 35.4441 68.2679 36.048 68.8486L40.3662 73.0003L50.0955 63.6461C50.6994 63.0655 51.6772 63.0655 52.2811 63.6461C52.8851 64.2268 52.8851 65.1669 52.2811 65.7475L41.459 76.1524C40.8551 76.7331 39.8773 76.7331 39.2734 76.1524L33.8623 70.95ZM40.3662 60.2388C33.5349 60.2388 28 65.5625 28 72.1304C28 78.6984 33.5371 84.0221 40.3662 84.0221C47.1975 84.0221 52.7346 78.6984 52.7346 72.1304C52.7346 70.9351 52.551 69.7823 52.2104 68.6954C52.1705 68.5657 52.071 68.4742 51.9338 68.4423C51.7989 68.4104 51.6661 68.4445 51.5666 68.5402L50.2968 69.761C50.2017 69.8525 50.1641 69.9737 50.1928 70.1013C50.3388 70.7564 50.4163 71.4349 50.4163 72.1326C50.4163 77.469 45.9166 81.7931 40.3684 81.7931C34.818 81.7931 30.3206 77.4669 30.3206 72.1326C30.3206 66.7961 34.8202 62.472 40.3684 62.472C42.6957 62.472 44.8371 63.2314 46.5383 64.5075C46.6931 64.6224 46.9099 64.6117 47.0493 64.4777L48.151 63.4185C48.2306 63.342 48.2704 63.2441 48.2638 63.1357C48.2571 63.0272 48.2085 62.9357 48.12 62.8655C45.9963 61.2214 43.2996 60.2388 40.3662 60.2388Z" fill="#CAD7FF"/>
<path fill-rule="evenodd" clip-rule="evenodd" d="M214.285 49.9824C213.876 49.6953 213.787 49.149 214.088 48.7571C214.386 48.3671 214.96 48.282 215.371 48.569L224.251 54.7687L233.132 48.569C233.54 48.284 234.114 48.3671 234.415 48.7571C234.715 49.147 234.626 49.6953 234.218 49.9824L224.809 56.5502C224.494 56.7799 224.046 56.7957 223.71 56.5601L214.285 49.9824ZM213.35 43.9688C211.493 43.9688 209.978 45.4157 209.978 47.1893V59.7748C209.978 61.5484 211.493 62.9954 213.35 62.9954H235.146C237.003 62.9954 238.518 61.5484 238.518 59.7748V47.1893C238.518 45.4157 237.003 43.9688 235.146 43.9688H213.35ZM213.35 45.2119C212.212 45.2119 211.282 46.1006 211.282 47.1874V59.7728C211.282 60.8596 212.212 61.7483 213.35 61.7483H235.146C236.284 61.7483 237.214 60.8596 237.214 59.7728V47.1874C237.214 46.1006 236.284 45.2119 235.146 45.2119H213.35Z" fill="#CAD7FF"/>
<path d="M103.253 192.832H78.8024C76.821 192.832 75.2098 191.221 75.2098 189.242V187.099C75.2098 186.87 75.396 186.683 75.6256 186.683C75.8551 186.683 76.0413 186.87 76.0413 187.099V189.242C76.0413 190.764 77.2801 192.003 78.8044 192.003H103.257C104.782 192.003 106.02 190.764 106.02 189.242V176.506C106.02 174.983 104.782 173.744 103.257 173.744H78.8024C77.2801 173.744 76.0392 174.983 76.0392 176.506V178.648C76.0392 178.878 75.8531 179.064 75.6235 179.064C75.3939 179.064 75.2078 178.878 75.2078 178.648V176.506C75.2078 174.526 76.8189 172.915 78.8003 172.915H103.253C105.235 172.915 106.846 174.526 106.846 176.506V189.242C106.848 191.221 105.235 192.832 103.253 192.832Z" fill="#CAD7FF"/>
<path fill-rule="evenodd" clip-rule="evenodd" d="M86.1425 182.506L83.0298 179.608C82.7113 179.322 82.1922 179.54 82.1922 179.974V180.274C82.1922 180.547 81.9709 180.776 81.6979 180.776H68.579C68.3019 180.776 68.0806 180.994 68.0806 181.267V184.477C68.0806 184.75 68.3019 184.979 68.579 184.979H81.6979C81.9709 184.979 82.1922 185.196 82.1922 185.469V185.769C82.1922 186.204 82.7113 186.423 83.0298 186.137L86.1425 183.24C86.3555 183.037 86.3555 182.71 86.1425 182.506Z" fill="#CAD7FF"/>
<path d="M95.7643 189.275C92.2379 189.275 89.3672 186.406 89.3672 182.882C89.3672 179.347 92.2379 176.473 95.7643 176.473C99.2927 176.473 102.165 179.347 102.165 182.882C102.165 186.406 99.2947 189.275 95.7643 189.275ZM95.7643 177.302C92.695 177.302 90.1986 179.805 90.1986 182.88C90.1986 185.947 92.695 188.444 95.7643 188.444C98.8356 188.444 101.336 185.947 101.336 182.88C101.336 179.805 98.8377 177.302 95.7643 177.302Z" fill="#CAD7FF"/>
<path fill-rule="evenodd" clip-rule="evenodd" d="M98.0948 181.653H96.9863V180.989H94.5478V181.647L97.5426 183.145C97.7143 183.229 97.8508 183.358 97.9459 183.511C98.0431 183.668 98.0948 183.846 98.0948 184.034V184.867C98.0948 185.143 97.9832 185.393 97.8032 185.573C97.6233 185.753 97.373 185.864 97.0979 185.864H96.3223V186.307H95.2138V185.864H94.4382C94.1631 185.864 93.9128 185.753 93.7329 185.573C93.553 185.393 93.4392 185.143 93.4392 184.867V184.092H94.5478V184.758H96.9863V184.1L93.9914 182.603C93.8198 182.518 93.6833 182.392 93.5881 182.237C93.4909 182.079 93.4392 181.902 93.4392 181.713V180.878C93.4392 180.603 93.5509 180.352 93.7329 180.173C93.9128 179.993 94.1631 179.881 94.4382 179.881H95.2138V179.438H96.3223V179.881H97.0979C97.373 179.881 97.6233 179.993 97.8032 180.173C97.9832 180.352 98.0948 180.603 98.0948 180.878V181.653Z" fill="#CAD7FF"/>
<path d="M287.258 84.5732L280.426 82.5699L278.318 76.0794C278.274 75.9426 278.139 75.8494 277.988 75.8494C277.836 75.8494 277.703 75.9426 277.659 76.0794L275.55 82.5699L268.718 84.5732C268.574 84.6146 268.474 84.7431 268.474 84.886C268.474 85.0311 268.572 85.1574 268.718 85.1989L275.55 87.2022L277.659 93.6927C277.705 93.8294 277.838 93.9247 277.988 93.9247C278.139 93.9247 278.274 93.8315 278.318 93.6927L280.426 87.2022L287.258 85.1989C287.402 85.1554 287.501 85.029 287.501 84.886C287.501 84.7431 287.402 84.6146 287.258 84.5732Z" fill="#E7EDFF"/>
<path d="M173.181 27.6262L168.742 26.4669L167.372 22.7094C167.343 22.6308 167.256 22.5748 167.157 22.5748C167.058 22.5748 166.971 22.629 166.942 22.7094L165.572 26.4669L161.132 27.6262C161.037 27.6506 160.973 27.7241 160.973 27.808C160.973 27.8919 161.037 27.9654 161.132 27.9898L165.572 29.1491L166.942 32.9066C166.971 32.9853 167.058 33.0395 167.157 33.0395C167.256 33.0395 167.343 32.9853 167.372 32.9066L168.742 29.1491L173.181 27.9898C173.277 27.9654 173.341 27.8919 173.341 27.808C173.339 27.7241 173.274 27.6506 173.181 27.6262Z" fill="#E7EDFF"/>
<path d="M229.371 23.3985L226.639 22.6614L225.796 20.2713C225.779 20.2209 225.726 20.1854 225.664 20.1854C225.602 20.1854 225.549 20.219 225.532 20.2713L224.689 22.6614L221.957 23.3985C221.899 23.4134 221.859 23.4619 221.859 23.5142C221.859 23.5664 221.897 23.613 221.957 23.6298L224.689 24.3687L225.532 26.7589C225.549 26.8093 225.604 26.8448 225.664 26.8448C225.724 26.8448 225.779 26.8093 225.796 26.7589L226.639 24.3687L229.371 23.6298C229.429 23.6149 229.469 23.5683 229.469 23.5142C229.467 23.46 229.429 23.4134 229.371 23.3985Z" fill="#CAD7FF"/>
<path d="M96.1978 145.624L93.8057 144.675L93.0677 141.6C93.0527 141.536 93.0045 141.491 92.953 141.491C92.8998 141.491 92.8532 141.536 92.8383 141.6L92.1002 144.675L89.7081 145.624C89.6582 145.643 89.6233 145.705 89.6233 145.773C89.6233 145.842 89.6582 145.902 89.7081 145.921L92.1002 146.87L92.8383 149.944C92.8532 150.008 92.8998 150.053 92.953 150.053C93.0061 150.053 93.0527 150.008 93.0677 149.944L93.8057 146.87L96.1978 145.921C96.2477 145.902 96.2826 145.84 96.2826 145.773C96.2826 145.703 96.2477 145.643 96.1978 145.624Z" fill="#CAD7FF"/>
<path d="M28.0779 107.688L24.3248 106.431L23.1671 102.366C23.1044 102.148 22.9207 102 22.708 102C22.4975 102 22.3116 102.148 22.2512 102.366L21.0935 106.431L17.3381 107.688C17.1366 107.756 17 107.957 17 108.185C17 108.413 17.1366 108.614 17.3381 108.682L21.0935 109.936L22.2512 114.001C22.3139 114.219 22.4997 114.367 22.708 114.367C22.9185 114.367 23.1044 114.219 23.1671 114.001L24.3248 109.936L28.0779 108.682C28.2794 108.614 28.416 108.413 28.416 108.185C28.416 107.957 28.2794 107.756 28.0779 107.688Z" fill="#E7EDFF"/>
<path d="M156.692 212.841C237.342 212.841 302.722 211.776 302.722 210.463C302.722 209.149 237.342 208.085 156.692 208.085C76.0425 208.085 10.6628 209.149 10.6628 210.463C10.6628 211.776 76.0425 212.841 156.692 212.841Z" fill="#E7EDFF"/>
<path d="M279.342 208.968C280.467 208.006 283.061 207.347 283.061 207.347L282.957 209.325C282.957 209.325 280.186 209.355 279.464 209.325C279.276 209.317 279.2 209.091 279.342 208.968Z" fill="#212529"/>
<path d="M236.161 207.045L235.202 209.325C235.202 209.325 232.246 209.355 231.524 209.325C231.339 209.317 231.265 209.091 231.404 208.968C232.532 208.009 236.161 207.045 236.161 207.045Z" fill="#212529"/>
<path d="M299.958 128.13C299.958 128.13 289.332 143.109 253.726 143.109C253.723 143.112 286.891 118.943 299.958 128.13Z" fill="#C11F61"/>
<path d="M253.723 105.517C253.723 105.517 245.324 134.374 244.139 158.282C242.953 182.186 235.2 209.325 235.2 209.325C235.2 209.325 263.196 176.806 257.167 149.667C257.167 149.667 271.166 129.639 271.596 123.392C272.032 117.148 253.723 105.517 253.723 105.517Z" fill="#FFA8A8"/>
<path d="M252.288 152.683C250.601 148.362 248.16 145.673 245.534 144.027C246.719 135.459 248.414 127.092 249.956 120.354L271.602 123.286C271.602 123.321 271.602 123.357 271.599 123.392C271.169 129.637 257.17 149.667 257.17 149.667C263.199 176.803 235.203 209.325 235.203 209.325C235.203 209.325 258.175 167.758 252.288 152.683Z" fill="#FF8787"/>
<path d="M258.464 69.4826C254.95 66.0743 253.154 57.4268 255.334 56.5768C257.513 55.7267 261.962 59.4375 262.227 60.2167C279.721 60.2167 292.613 87.7912 287.826 91.8125C286.867 92.6189 284.246 92.9159 282.143 91.1423C290.273 124.844 264.733 121.174 259.535 114.14C255.14 108.192 257.731 92.6026 257.731 92.6026L261.853 72.2997L258.464 69.4826Z" fill="#212529"/>
<path d="M240.586 84.1949C240.586 84.1949 224.648 90.009 207.418 87.2109V90.2269C207.418 90.2269 227.015 98.196 244.139 93.9949L240.586 84.1949Z" fill="#FFA8A8"/>
<path d="M207.421 90.1369C225.503 93.8559 240.531 89.8727 240.531 89.8727C240.531 89.8727 241.313 89.5621 242.381 89.1425L244.141 93.9948C227.018 98.1932 207.421 90.2268 207.421 90.2268V90.1369Z" fill="#FF8787"/>
<path d="M261.477 72.1363C261.477 72.1363 247.792 80.5168 238.954 83.0642C238.84 83.0969 238.769 83.2086 238.788 83.3258C239.028 84.8569 240.744 94.5125 246.403 98.2314C246.471 98.275 246.555 98.2832 246.632 98.2478L259.112 92.7007L261.477 72.1363Z" fill="#E64980"/>
<path d="M240.529 89.8727C249.282 86.9057 257.587 79.7431 257.587 79.7431L259.728 87.3035L259.107 92.7034L246.626 98.2505C246.553 98.2832 246.465 98.2777 246.397 98.2341C243.545 96.3542 241.695 92.9677 240.529 89.8727Z" fill="#D6336C"/>
<path d="M256.094 104.01C256.094 104.01 255.162 133.516 262.842 152.898C270.523 172.28 278.375 188.864 282.957 209.325C282.957 209.325 290.42 163.308 273.972 146.869C273.972 146.869 281.08 124.686 272.68 109.827C264.278 94.9646 256.094 104.01 256.094 104.01Z" fill="#FFA8A8"/>
<path fill-rule="evenodd" clip-rule="evenodd" d="M273.825 157.949C264.493 145.218 266.79 132.535 266.79 132.535L276.775 127.694C276.814 137.984 273.969 146.869 273.969 146.869C290.417 163.311 282.955 209.325 282.955 209.325C282.955 209.325 283.159 170.681 273.825 157.949Z" fill="#FF8787"/>
<path d="M261.477 72.1363C261.477 72.1363 257.11 83.6309 250.064 87.6604C249.898 87.7558 249.819 87.952 249.882 88.1345L254.693 102.394C254.693 102.394 235.232 115.712 225.95 127.977C225.814 128.157 225.806 128.405 225.931 128.593C227.462 130.898 237.578 144.896 256.165 142.921C276.41 140.766 277.413 125.547 299.955 128.133C299.955 128.133 285.167 107.026 270.809 102.719L274.972 86.7804L261.477 72.1363Z" fill="#E64980"/>
<path d="M256.165 142.919C255.892 142.948 255.62 142.973 255.35 142.995C290.569 125.877 269.013 102.79 269.013 102.79L268.152 90.4422L272.762 95.2346L270.809 102.716C285.167 107.023 299.955 128.13 299.955 128.13C277.416 125.547 276.41 140.766 256.165 142.919Z" fill="#D6336C"/>
<path d="M290.014 90.8726C290.014 90.8726 288.398 96.6867 276.337 98.948C276.337 98.948 280.429 90.0117 290.014 90.8726Z" fill="#C11F61"/>
<path d="M276.337 93.349C276.337 93.349 285.445 105.775 285.041 121.885C285.041 121.885 284.576 124.038 286.082 125.117C287.589 126.193 288.488 122.605 287.104 122.209C287.104 122.209 293.782 100.133 285.167 89.6901L276.337 93.349Z" fill="#FFA8A8"/>
<path d="M285.167 89.6874C293.782 100.133 287.104 122.207 287.104 122.207C289.796 108.478 286.028 94.6405 286.028 94.6405C282.314 94.21 278.361 96.5885 278.361 96.5885C277.19 94.5124 276.337 93.3491 276.337 93.3491L285.167 89.6874Z" fill="#FF8787"/>
<path d="M261.477 72.1363C261.477 72.1363 280.107 74.0734 290.013 90.8726C290.013 90.8726 280.429 92.8124 276.337 98.948L268.152 90.4421L261.477 72.1363Z" fill="#E64980"/>
<path d="M262.801 73.4359C262.453 72.6594 262.289 70.5724 262.289 70.5724C263.471 68.8233 263.221 67.3685 262.305 68.0496C262.259 68.0823 262.196 68.0577 262.194 68.0033C262.131 66.5429 261.379 65.7392 260.6 65.5213C259.565 65.2325 258.401 66.1588 257.933 67.8343C257.241 70.3163 257.636 72.7548 258.6 73.0218C258.99 73.1307 259.496 72.94 259.987 72.6485C260.099 73.7274 259.347 75.0052 260.186 75.2831C261.303 75.6536 263.074 74.0353 262.801 73.4359Z" fill="#FFA8A8"/>
<path d="M260.371 68.9813C260.191 68.6926 259.608 68.4937 259.259 68.8097C259.199 68.51 259.461 68.0905 259.962 68.1368C260.382 68.1722 260.758 68.7334 260.371 68.9813Z" fill="#212529"/>
<path d="M258.128 70.6298C258.082 70.8995 258.18 71.3245 258.24 71.5288C259.017 71.7822 259.768 71.428 260.104 70.638C259.548 70.8886 258.442 70.9349 258.128 70.6298Z" fill="white"/>
<path d="M261.632 71.1311C261.632 71.1311 261.085 71.7714 259.992 72.6541C260.074 73.4551 259.684 74.3623 259.818 74.8909C260.831 74.2425 261.591 72.4797 261.632 71.1311Z" fill="#FF8787"/>
<path d="M167.774 71.259L168.401 73.602L168.621 74.4303L169.21 76.6208L169.485 77.6506L170.482 81.375L171.904 86.6795L174.177 95.1636L174.365 95.8665L174.787 97.4413L174.89 97.8227L174.953 98.0624L175.166 98.858L175.441 99.8797L175.754 101.051L175.977 101.885L176.604 104.228C179.111 105.487 181.865 106.293 184.745 106.552C186.48 106.71 188.257 106.669 190.058 106.413C202.536 104.628 211.205 93.063 209.418 80.5849C207.633 68.1067 196.071 59.4374 183.59 61.2247C179.884 61.756 176.517 63.1455 173.656 65.1697C171.324 66.8235 169.332 68.8914 167.774 71.259Z" fill="#FFD43B"/>
<path d="M169.21 76.6208L169.485 77.6507C170.572 74.6047 172.449 71.8938 174.901 69.8041C177.462 67.6191 180.65 66.1097 184.219 65.6003C184.518 65.5567 184.818 65.5212 185.115 65.494C189.679 65.0635 194.177 66.325 197.868 69.093C201.803 72.0437 204.353 76.3483 205.05 81.217C206.489 91.2676 199.481 100.61 189.433 102.051C187.412 102.34 185.415 102.288 183.508 101.937C180.293 101.343 177.326 99.9043 174.89 97.8309L174.953 98.0707L175.165 98.8662C177.626 100.771 180.546 102.078 183.685 102.604C185.279 102.874 186.927 102.939 188.602 102.781C188.908 102.754 189.213 102.719 189.521 102.672C199.912 101.185 207.156 91.521 205.669 81.1298C204.947 76.095 202.309 71.6432 198.242 68.5945C194.174 65.5458 189.161 64.2598 184.126 64.9818C180.538 65.4967 177.326 66.9843 174.719 69.1394C172.302 71.1364 170.403 73.7138 169.21 76.6208Z" fill="#FAB005"/>
<path d="M168.401 73.6021L168.621 74.4304C169.994 71.7767 171.937 69.4391 174.31 67.6028C177.021 65.5022 180.293 64.0583 183.922 63.5379C195.109 61.9386 205.508 69.7361 207.11 80.9201C208.709 92.1068 200.912 102.506 189.728 104.108C187.815 104.383 185.927 104.381 184.099 104.135C181.089 103.73 178.244 102.659 175.754 101.057L175.977 101.89C178.473 103.394 181.287 104.389 184.263 104.751C186.066 104.975 187.927 104.961 189.812 104.694C201.318 103.048 209.341 92.3466 207.693 80.8384C206.048 69.3329 195.346 61.3092 183.838 62.9576C180.189 63.4807 176.893 64.911 174.144 66.9925C171.784 68.7689 169.828 71.0302 168.401 73.6021Z" fill="#FAB005"/>
<path d="M180.497 75.0242C176.926 81.8817 187.63 87.2625 186.532 89.374C186.121 90.1641 185.227 90.2268 183.87 89.5211C182.157 88.6275 181.11 87.475 180.067 85.7123C179.841 85.3309 179.372 85.1701 178.964 85.3363L175.384 86.7749C174.931 86.9574 174.711 87.4641 174.88 87.9191C175.653 90.0143 176.915 91.9105 179.01 93.4335L178.517 94.3789C178.288 94.8175 178.46 95.357 178.898 95.5858L181.53 96.9562C181.969 97.1851 182.508 97.0135 182.737 96.5775L183.268 95.5613C187.497 96.9127 191.044 95.8038 192.755 92.5208C196.444 85.4371 185.581 80.356 186.916 77.795C187.309 77.0403 188.221 77.0376 189.616 77.7623C191.613 78.803 193.095 80.375 194.692 82.808C194.951 83.2031 195.477 83.3229 195.885 83.0886L199.514 80.9962C199.92 80.7619 200.078 80.2552 199.874 79.8329C198.7 77.4108 196.583 75.2203 194.575 73.8445L195.125 72.7874C195.354 72.3487 195.182 71.8093 194.744 71.5804L192.112 70.21C191.673 69.9811 191.134 70.1528 190.905 70.5914L190.262 71.8229C185.619 70.428 182.121 71.9073 180.497 75.0242Z" fill="#FAB005"/>
<path d="M210.276 87.6006C210.276 87.6006 209.442 86.023 209.143 86.2764C208.843 86.5325 209.037 88.1155 209.358 88.516C209.682 88.9165 210.276 87.6006 210.276 87.6006Z" fill="#FFA8A8"/>
<path fill-rule="evenodd" clip-rule="evenodd" d="M123.128 165.733H188.81C196.406 165.733 200.912 159.576 198.877 151.98L161.84 13.7532C159.805 6.15734 151.997 0 144.401 0H78.7188C71.1229 0 66.6167 6.15734 68.6518 13.7532L105.691 151.98C107.726 159.576 115.532 165.733 123.128 165.733Z" fill="#7B93F6"/>
<path fill-rule="evenodd" clip-rule="evenodd" d="M127.806 165.733H193.488C201.084 165.733 205.59 159.576 203.555 151.98L166.518 13.7532C164.483 6.15734 156.675 0 149.081 0H83.3968C75.8009 0 71.2946 6.15734 73.3298 13.7532L110.366 151.98C112.404 159.576 120.21 165.733 127.806 165.733Z" fill="#BAC8FF"/>
<path fill-rule="evenodd" clip-rule="evenodd" d="M84.1812 2.92339C78.2119 2.92339 74.6537 7.78114 76.253 13.7532L113.292 151.98C114.892 157.949 121.052 162.81 127.024 162.81H192.706C198.678 162.81 202.233 157.952 200.634 151.98L163.594 13.7532C161.995 7.78114 155.835 2.92339 149.863 2.92339H84.1812Z" fill="#DBE4FF"/>
<path fill-rule="evenodd" clip-rule="evenodd" d="M150.332 4.67794H138.063C137.053 4.67794 136.45 5.49801 136.723 6.50879L136.946 7.33975C137.603 9.79179 136.148 11.7779 133.696 11.7779H105.089C102.637 11.7779 100.117 9.78906 99.4601 7.33975L99.2367 6.50879C98.9643 5.49801 97.9262 4.67794 96.9155 4.67794H84.6471C79.6341 4.67794 76.6616 8.74014 78.0048 13.7532L115.044 151.98C116.387 156.99 121.539 161.055 126.55 161.055H192.231C197.245 161.055 200.217 156.993 198.874 151.98L161.84 13.7532C160.497 8.74287 155.345 4.67794 150.332 4.67794Z" fill="white"/>
<path fill-rule="evenodd" clip-rule="evenodd" d="M129.615 6.11386H106.138C105.419 6.11386 104.991 6.69691 105.184 7.41889C105.378 8.13816 106.119 8.72392 106.838 8.72392H130.315C131.034 8.72392 131.462 8.14088 131.269 7.41889C131.075 6.69691 130.337 6.11386 129.615 6.11386Z" fill="#7B93F6"/>
<path fill-rule="evenodd" clip-rule="evenodd" d="M161.84 13.7532C160.497 8.74287 155.345 4.67794 150.335 4.67794H138.066C137.056 4.67794 136.453 5.49801 136.726 6.50879L136.949 7.33975C137.606 9.79179 136.151 11.7779 133.699 11.7779H105.092C102.64 11.7779 100.12 9.78906 99.4631 7.33975L99.2396 6.50879C98.9672 5.49801 97.9292 4.67794 96.9184 4.67794H84.65C79.637 4.67794 76.6646 8.74014 78.0077 13.7532L78.5717 15.8565H162.404L161.84 13.7532Z" fill="#BAC8FF"/>
<path fill-rule="evenodd" clip-rule="evenodd" d="M145.918 10.3094H145.66L145.556 9.91711C145.54 9.85717 145.477 9.8054 145.414 9.8054H141.284C141.224 9.8054 141.186 9.85444 141.202 9.91711L141.714 11.8297C141.731 11.8896 141.794 11.9414 141.856 11.9414H145.986C146.049 11.9414 146.085 11.8924 146.068 11.8297L145.962 11.4374H146.221C146.281 11.4374 146.319 11.3883 146.303 11.3257L146.06 10.4184C146.041 10.3585 145.978 10.3094 145.918 10.3094ZM145.559 11.5572H144.414L144.049 10.1896H145.194C145.221 10.1896 145.251 10.2114 145.256 10.2413L145.597 11.5082C145.605 11.5327 145.586 11.5572 145.559 11.5572Z" fill="#DBE4FF"/>
<path fill-rule="evenodd" clip-rule="evenodd" d="M150.166 10.5302H149.534C149.471 10.5302 149.433 10.582 149.449 10.6447L149.798 11.9415H150.656L150.307 10.6447C150.294 10.582 150.228 10.5302 150.166 10.5302Z" fill="#DBE4FF"/>
<path fill-rule="evenodd" clip-rule="evenodd" d="M151.168 9.96358H150.536C150.473 9.96358 150.435 10.0153 150.452 10.078L150.95 11.9416H151.811L151.313 10.078C151.296 10.0126 151.231 9.96358 151.168 9.96358Z" fill="#DBE4FF"/>
<path fill-rule="evenodd" clip-rule="evenodd" d="M152.171 9.39398H151.539C151.476 9.39398 151.438 9.44574 151.454 9.50841L152.106 11.9414H152.964L152.313 9.50841C152.299 9.44574 152.234 9.39398 152.171 9.39398Z" fill="#DBE4FF"/>
<path fill-rule="evenodd" clip-rule="evenodd" d="M153.17 8.82476H152.538C152.476 8.82476 152.438 8.87653 152.454 8.93919L153.258 11.9416H154.116L153.312 8.93919C153.301 8.87653 153.236 8.82476 153.17 8.82476Z" fill="#DBE4FF"/>
<path fill-rule="evenodd" clip-rule="evenodd" d="M92.5698 8.06989C91.826 7.69392 91.0359 7.49503 90.2894 7.49503C89.5402 7.49503 88.859 7.69392 88.3141 8.06989C88.2242 8.13256 88.2269 8.26605 88.3169 8.37231C88.3768 8.44314 88.4613 8.48129 88.5375 8.48129C88.5757 8.48129 88.6111 8.47039 88.6411 8.45132C89.126 8.11348 89.739 7.93639 90.4093 7.93639C91.0795 7.93639 91.7851 8.11348 92.4526 8.45132C92.5753 8.51398 92.7006 8.47584 92.7333 8.37231C92.7632 8.26605 92.6897 8.13256 92.5698 8.06989Z" fill="#DBE4FF"/>
<path fill-rule="evenodd" clip-rule="evenodd" d="M92.2349 9.13533C91.7063 8.86833 91.1478 8.72666 90.6192 8.72666C90.0907 8.72666 89.6058 8.86833 89.2216 9.13533C89.1317 9.19527 89.1344 9.3315 89.2243 9.43775C89.3142 9.54129 89.4586 9.57943 89.5458 9.51676C89.8728 9.29063 90.2869 9.17075 90.7364 9.17075C91.1887 9.17075 91.6655 9.29063 92.115 9.51676C92.1559 9.53856 92.1967 9.54673 92.2349 9.54673C92.3112 9.54673 92.3738 9.50859 92.3956 9.43775C92.4283 9.3315 92.3575 9.19527 92.2349 9.13533Z" fill="#DBE4FF"/>
<path fill-rule="evenodd" clip-rule="evenodd" d="M91.8996 10.1979C91.589 10.0399 91.2594 9.95811 90.9488 9.95811C90.6382 9.95811 90.3521 10.0399 90.126 10.1979C90.0361 10.2605 90.0388 10.394 90.126 10.5003C90.2159 10.6038 90.3603 10.6392 90.4475 10.5793C90.6164 10.4621 90.8316 10.3995 91.0632 10.3995C91.2975 10.3995 91.5427 10.4621 91.777 10.5793C91.8179 10.6011 91.8587 10.6093 91.8969 10.6093C91.9732 10.6093 92.0358 10.5711 92.0576 10.5003C92.093 10.394 92.0222 10.2605 91.8996 10.1979Z" fill="#DBE4FF"/>
<path fill-rule="evenodd" clip-rule="evenodd" d="M91.6951 11.255C91.5725 11.1106 91.3954 11.0207 91.2319 11.0207C91.0684 11.0207 90.9377 11.1106 90.8941 11.2522C90.8913 11.2577 90.8913 11.2659 90.8913 11.2713C90.875 11.334 90.8777 11.4048 90.8968 11.4757C90.9622 11.7236 91.2128 11.9252 91.4608 11.9361C91.4662 11.9361 91.4744 11.9361 91.4798 11.9361C91.488 11.9361 91.4935 11.9361 91.4989 11.9361C91.7414 11.9252 91.8831 11.7236 91.815 11.4757C91.7959 11.4048 91.7605 11.334 91.7114 11.2713C91.706 11.2686 91.7005 11.2604 91.6951 11.255Z" fill="#DBE4FF"/>
<path fill-rule="evenodd" clip-rule="evenodd" d="M85.7096 69.8856C85.4072 69.8856 85.0939 69.6377 85.0121 69.3353L79.8356 50.0132C79.7539 49.7108 79.9337 49.4629 80.2388 49.4629H80.8818C81.1842 49.4629 81.4975 49.7081 81.5793 50.0132L86.7558 69.3353C86.8375 69.6377 86.6577 69.8856 86.3526 69.8856H85.7096ZM79.6258 44.7849C79.931 44.7849 80.1108 44.5397 80.029 44.2346L78.3698 38.0473C78.2881 37.7421 77.9748 37.4969 77.6724 37.4969H77.0294C76.7242 37.4969 76.5444 37.7421 76.6262 38.0473L78.2854 44.2346C78.3671 44.5397 78.6804 44.7849 78.9828 44.7849H79.6258ZM93.0221 94.7765C93.3273 94.7765 93.5071 94.5313 93.4254 94.2262L88.2488 74.9041C88.1671 74.6017 87.8565 74.3538 87.5514 74.3538H86.9084C86.606 74.3538 86.4234 74.6017 86.5052 74.9041L91.6817 94.2262C91.7634 94.5313 92.0767 94.7765 92.3792 94.7765H93.0221Z" fill="#BAC8FF"/>
<path fill-rule="evenodd" clip-rule="evenodd" d="M164.673 136.829H141.131C138.423 136.829 135.639 134.631 134.914 131.925C134.186 129.214 135.794 127.021 138.505 127.021H162.047C164.755 127.021 167.54 129.214 168.267 131.925C168.989 134.631 167.382 136.829 164.673 136.829Z" fill="#DBE4FF"/>
<path d="M153.078 30.0076H95.3242C95.1635 30.0076 95.0354 29.8768 95.0354 29.7188C95.0354 29.558 95.1662 29.43 95.3242 29.43H153.078C153.239 29.43 153.367 29.5608 153.367 29.7188C153.367 29.8768 153.239 30.0076 153.078 30.0076Z" fill="#DAE3FF"/>
<path d="M176.525 117.513H118.771C118.611 117.513 118.483 117.382 118.483 117.224C118.483 117.066 118.613 116.935 118.771 116.935H176.525C176.686 116.935 176.814 117.066 176.814 117.224C176.814 117.382 176.686 117.513 176.525 117.513Z" fill="#DAE3FF"/>
<path fill-rule="evenodd" clip-rule="evenodd" d="M101.302 36.8269C101.003 36.8269 100.725 36.8624 100.471 36.9305C99.9209 37.0776 99.4768 37.3773 99.1744 37.7805C98.8692 38.1892 98.7003 38.715 98.7003 39.3117C98.7003 39.6086 98.7412 39.922 98.8284 40.2435C99.1035 41.276 99.7792 42.216 100.648 42.8998C101.512 43.5809 102.558 44.0032 103.577 44.0032C103.877 44.0032 104.155 43.9678 104.408 43.8997C104.958 43.7526 105.403 43.4529 105.705 43.0469C106.01 42.641 106.179 42.1152 106.179 41.5158C106.179 41.2188 106.138 40.9055 106.051 40.584C105.773 39.5514 105.1 38.6115 104.231 37.9276C103.37 37.2492 102.324 36.8269 101.302 36.8269ZM101.302 36.1676C98.9564 36.1676 97.5615 38.0693 98.1908 40.4178C98.8202 42.7636 101.231 44.668 103.577 44.668C105.923 44.668 107.318 42.7663 106.688 40.4178C106.062 38.0693 103.648 36.1676 101.302 36.1676Z" fill="#DBE4FF"/>
<path fill-rule="evenodd" clip-rule="evenodd" d="M100.869 38.7967C101.158 39.4315 101.61 40.0935 102.242 40.4995C102.403 40.603 102.583 40.603 102.689 40.4995C103.103 40.0935 103.201 39.4315 103.147 38.7967C103.043 37.5625 100.308 37.5625 100.869 38.7967Z" fill="#DBE4FF"/>
<path fill-rule="evenodd" clip-rule="evenodd" d="M102.694 41.3577C101.348 41.3577 100.318 41.9816 99.8008 42.9597C100.842 43.9351 102.207 44.559 103.552 44.559C104.898 44.559 105.928 43.9323 106.446 42.9597C105.405 41.9843 104.037 41.3577 102.694 41.3577Z" fill="#DBE4FF"/>
<path fill-rule="evenodd" clip-rule="evenodd" d="M140.802 44.1067H110.566C110.214 44.1067 109.854 43.8233 109.762 43.4719C109.669 43.1231 109.876 42.837 110.225 42.837H140.461C140.81 42.837 141.17 43.1204 141.265 43.4719C141.358 43.8233 141.151 44.1067 140.802 44.1067Z" fill="#DBE4FF"/>
<path fill-rule="evenodd" clip-rule="evenodd" d="M154.53 40.3878H110.345C109.568 40.3878 108.767 39.7585 108.56 38.9793C108.35 38.2028 108.813 37.5707 109.59 37.5707H153.778C154.555 37.5707 155.356 38.2001 155.563 38.9793C155.767 39.7585 155.307 40.3878 154.53 40.3878Z" fill="#DBE4FF"/>
<path fill-rule="evenodd" clip-rule="evenodd" d="M157.685 49.2697H111.949C111.598 49.2697 111.238 48.9863 111.146 48.6349C111.053 48.2861 111.26 48.0001 111.609 48.0001H157.345C157.696 48.0001 158.053 48.2834 158.148 48.6349C158.241 48.9863 158.034 49.2697 157.685 49.2697Z" fill="#DBE4FF"/>
<path fill-rule="evenodd" clip-rule="evenodd" d="M158.609 52.719H112.873C112.524 52.719 112.164 52.4356 112.069 52.0842C111.976 51.7355 112.183 51.4494 112.532 51.4494H158.268C158.617 51.4494 158.976 51.7327 159.072 52.0842C159.164 52.4356 158.957 52.719 158.609 52.719Z" fill="#DBE4FF"/>
<path fill-rule="evenodd" clip-rule="evenodd" d="M136.968 145.256C136.431 145.256 136.115 145.689 136.257 146.226C136.401 146.763 136.952 147.196 137.488 147.196C138.025 147.196 138.341 146.763 138.2 146.226C138.055 145.689 137.505 145.256 136.968 145.256ZM173.351 145.256C172.814 145.256 172.498 145.689 172.64 146.226C172.784 146.763 173.334 147.196 173.868 147.196C174.405 147.196 174.724 146.763 174.58 146.226C174.438 145.689 173.888 145.256 173.351 145.256ZM164.256 145.256C163.722 145.256 163.404 145.689 163.545 146.226C163.69 146.763 164.24 147.196 164.774 147.196C165.311 147.196 165.627 146.763 165.485 146.226C165.341 145.689 164.79 145.256 164.256 145.256ZM155.159 145.256C154.625 145.256 154.307 145.689 154.448 146.226C154.593 146.763 155.143 147.196 155.68 147.196C156.214 147.196 156.533 146.763 156.391 146.226C156.247 145.689 155.696 145.256 155.159 145.256ZM146.065 145.256C145.528 145.256 145.212 145.689 145.354 146.226C145.498 146.763 146.049 147.196 146.583 147.196C147.119 147.196 147.436 146.763 147.294 146.226C147.149 145.689 146.599 145.256 146.065 145.256Z" fill="#DBE4FF"/>
<path fill-rule="evenodd" clip-rule="evenodd" d="M159.532 56.1681H113.796C113.445 56.1681 113.088 55.8847 112.993 55.5333C112.9 55.1845 113.107 54.8984 113.456 54.8984H159.192C159.543 54.8984 159.9 55.1818 159.995 55.5333C160.091 55.8847 159.881 56.1681 159.532 56.1681Z" fill="#DBE4FF"/>
<path fill-rule="evenodd" clip-rule="evenodd" d="M160.456 59.6171H114.72C114.369 59.6171 114.012 59.3338 113.916 58.9823C113.821 58.6336 114.031 58.3475 114.38 58.3475H160.115C160.464 58.3475 160.824 58.6309 160.919 58.9823C161.015 59.3338 160.807 59.6171 160.456 59.6171Z" fill="#DBE4FF"/>
<path fill-rule="evenodd" clip-rule="evenodd" d="M161.38 63.0663H115.647C115.295 63.0663 114.938 62.7829 114.843 62.4315C114.75 62.0828 114.957 61.7967 115.306 61.7967H161.042C161.393 61.7967 161.753 62.08 161.846 62.4315C161.938 62.7829 161.731 63.0663 161.38 63.0663Z" fill="#DBE4FF"/>
<path fill-rule="evenodd" clip-rule="evenodd" d="M162.306 66.5183H116.57C116.221 66.5183 115.859 66.235 115.766 65.8835C115.674 65.5348 115.881 65.2487 116.229 65.2487H161.965C162.314 65.2487 162.674 65.5321 162.769 65.8835C162.862 66.2323 162.655 66.5183 162.306 66.5183Z" fill="#DBE4FF"/>
<path fill-rule="evenodd" clip-rule="evenodd" d="M163.229 69.9675H117.493C117.142 69.9675 116.782 69.6841 116.69 69.3327C116.594 68.9839 116.804 68.7006 117.153 68.7006H162.889C163.237 68.7006 163.597 68.9839 163.692 69.3327C163.788 69.6841 163.578 69.9675 163.229 69.9675Z" fill="#DBE4FF"/>
<path fill-rule="evenodd" clip-rule="evenodd" d="M164.153 73.4167H118.417C118.068 73.4167 117.709 73.1334 117.613 72.7819C117.521 72.4332 117.728 72.1471 118.077 72.1471H163.812C164.161 72.1471 164.521 72.4304 164.616 72.7819C164.712 73.1334 164.504 73.4167 164.153 73.4167Z" fill="#DBE4FF"/>
<path fill-rule="evenodd" clip-rule="evenodd" d="M165.076 76.866H119.343C118.994 76.866 118.632 76.5826 118.539 76.2312C118.447 75.8825 118.654 75.5991 119.003 75.5991H164.738C165.09 75.5991 165.447 75.8825 165.542 76.2312C165.635 76.5826 165.428 76.866 165.076 76.866Z" fill="#DBE4FF"/>
<path fill-rule="evenodd" clip-rule="evenodd" d="M166.003 80.3151H120.267C119.916 80.3151 119.556 80.0317 119.463 79.6803C119.371 79.3315 119.578 79.0455 119.926 79.0455H165.662C166.014 79.0455 166.371 79.3288 166.466 79.6803C166.559 80.0317 166.352 80.3151 166.003 80.3151Z" fill="#DBE4FF"/>
<path fill-rule="evenodd" clip-rule="evenodd" d="M166.927 83.7642H121.191C120.842 83.7642 120.482 83.4809 120.387 83.1294C120.292 82.7807 120.501 82.4974 120.85 82.4974H166.586C166.935 82.4974 167.295 82.7807 167.39 83.1294C167.485 83.4809 167.275 83.7642 166.927 83.7642Z" fill="#DBE4FF"/>
<path fill-rule="evenodd" clip-rule="evenodd" d="M167.85 87.2135H122.117C121.768 87.2135 121.408 86.9302 121.313 86.5788C121.218 86.23 121.427 85.944 121.776 85.944H167.512C167.864 85.944 168.22 86.2273 168.316 86.5788C168.408 86.9302 168.201 87.2135 167.85 87.2135Z" fill="#DBE4FF"/>
<path fill-rule="evenodd" clip-rule="evenodd" d="M168.774 90.6628H123.041C122.689 90.6628 122.333 90.3794 122.237 90.0307C122.145 89.6792 122.352 89.3959 122.7 89.3959H168.436C168.785 89.3959 169.145 89.6792 169.24 90.0307C169.333 90.3794 169.126 90.6628 168.774 90.6628Z" fill="#DBE4FF"/>
<path fill-rule="evenodd" clip-rule="evenodd" d="M169.7 94.1147H123.964C123.613 94.1147 123.253 93.8313 123.161 93.4798C123.068 93.1311 123.275 92.8477 123.624 92.8477H169.36C169.708 92.8477 170.068 93.1311 170.163 93.4798C170.259 93.8286 170.049 94.1147 169.7 94.1147Z" fill="#DBE4FF"/>
<path fill-rule="evenodd" clip-rule="evenodd" d="M170.623 97.5638H124.888C124.536 97.5638 124.176 97.2805 124.084 96.929C123.988 96.5776 124.198 96.2942 124.547 96.2942H170.283C170.632 96.2942 170.991 96.5776 171.087 96.929C171.182 97.2805 170.975 97.5638 170.623 97.5638Z" fill="#DBE4FF"/>
<path fill-rule="evenodd" clip-rule="evenodd" d="M171.548 101.013H125.812C125.463 101.013 125.103 100.73 125.008 100.378C124.915 100.029 125.122 99.7461 125.471 99.7461H171.207C171.558 99.7461 171.918 100.029 172.011 100.378C172.106 100.73 171.899 101.013 171.548 101.013Z" fill="#DBE4FF"/>
<path fill-rule="evenodd" clip-rule="evenodd" d="M156.971 104.462H126.738C126.389 104.462 126.027 104.179 125.934 103.827C125.841 103.476 126.048 103.193 126.397 103.193H156.633C156.982 103.193 157.342 103.476 157.437 103.827C157.53 104.179 157.323 104.462 156.971 104.462Z" fill="#DBE4FF"/>
<path fill-rule="evenodd" clip-rule="evenodd" d="M64.8787 67.6924C64.8787 75.8958 67.9464 83.4045 72.9922 89.1314C78.9506 95.8935 87.6717 100.171 97.3572 100.171C107.236 100.171 116.11 95.7219 122.076 88.72C126.912 83.0476 129.836 75.6997 129.836 67.6924C129.836 49.8034 115.246 35.2138 97.3572 35.2138C79.4683 35.2138 64.8787 49.8034 64.8787 67.6924Z" fill="white"/>
<path fill-rule="evenodd" clip-rule="evenodd" d="M69.061 67.679C69.061 76.2012 72.8644 83.8625 78.8665 89.0553C83.8223 93.341 90.2766 95.9374 97.3194 95.9374C104.757 95.9374 111.538 93.0358 116.592 88.3034C122.115 83.1432 125.57 75.8007 125.57 67.679C125.57 52.1195 112.876 39.4261 97.3167 39.4261C81.7517 39.4261 69.061 52.1195 69.061 67.679Z" fill="#4C6EF4"/>
<path d="M64.3147 67.6926C64.3147 49.474 79.1386 34.6501 97.3572 34.6501C115.576 34.6501 130.4 49.474 130.4 67.6926C130.4 85.9113 115.576 100.735 97.3572 100.735C79.1386 100.735 64.3147 85.9113 64.3147 67.6926ZM66.0447 67.6926C66.0447 84.9577 80.0922 99.0051 97.3572 99.0051C114.622 99.0051 128.67 84.9604 128.67 67.6926C128.67 50.4276 114.622 36.3801 97.3572 36.3801C80.0922 36.3801 66.0447 50.4276 66.0447 67.6926Z" fill="#7B93F6"/>
<path d="M78.8662 89.0552C83.822 93.3408 90.2763 95.9372 97.3191 95.9372C104.757 95.9372 111.538 93.0356 116.592 88.3032C111.827 85.6114 102.673 81.0943 97.6788 80.9744C91.2245 80.8245 84.3152 83.7533 78.8662 89.0552Z" fill="#FFD43B"/>
<path d="M98.586 73.8662C98.586 73.8662 103.133 83.7343 101.286 89.1124C97.8367 87.6766 93.3822 82.5437 93.6356 81.2822C93.9571 79.672 93.9353 77.2963 93.9353 77.2963L98.586 73.8662Z" fill="#FFA8A8"/>
<path d="M97.1501 77.7213C98.3435 77.9556 99.4632 78.2717 100.365 78.6122C101.114 81.0043 101.785 83.9195 101.708 86.4723C98.8284 83.7642 97.3082 81.2577 97.1501 77.7213Z" fill="#FF8787"/>
<path d="M103.782 74.5773C106.893 70.2317 107.487 61.764 106.659 61.0312C105.814 60.2874 103.692 60.9794 102.654 61.478C103.621 56.7973 101.354 47.3787 98.8666 46.9619C96.8668 46.6268 92.3197 54.4134 91.2789 59.0205C90.0529 57.552 88.1349 56.0317 87.3121 56.3123C86.3585 56.6366 84.9227 62.3471 86.2005 67.807C84.9772 66.4829 83.8874 66.0333 83.4869 66.363C82.882 66.8588 85.5384 76.9258 97.0249 78.7158C98.1501 78.1873 103.782 74.5773 103.782 74.5773Z" fill="#212529"/>
<path d="M95.9649 73.877C96.0576 73.9261 96.1502 73.8334 96.1066 73.7354C94.6708 70.5913 95.1149 66.4119 98.0083 65.4257C102.901 63.7583 106.868 80.9334 104.356 82.2112C101.471 83.677 92.0172 75.8823 93.2622 73.907C93.8916 72.9071 95.3438 73.5419 95.9649 73.877Z" fill="#FFA8A8"/>
<path d="M97.5398 71.9099C97.5861 71.1171 98.883 70.6158 99.7603 71.2016C98.9157 71.1498 97.8449 71.5612 97.5398 71.9099Z" fill="#212529"/>
<path d="M104.196 76.8467C104.463 77.5196 104.359 78.9255 104.313 79.3668C103.509 79.7864 99.7002 79.7483 98.5532 76.7077C99.5667 77.2227 103.613 77.7376 104.196 76.8467Z" fill="white"/>
<defs>
<linearGradient id="paint0_linear_132_2644" x1="157.083" y1="208.195" x2="157.083" y2="11.1588" gradientUnits="userSpaceOnUse">
<stop stop-color="#FAFBFF"/>
<stop offset="1" stop-color="#DBE4FF"/>
</linearGradient>
</defs>
</svg>
