<svg width="318" height="241" viewBox="0 0 318 241" fill="none" xmlns="http://www.w3.org/2000/svg">
<path fill-rule="evenodd" clip-rule="evenodd" d="M137.248 41.0653C137.248 41.0653 90.1719 62.4866 108.417 95.5085H141.103C141.103 95.5085 106.092 75.2928 137.248 41.0653Z" fill="url(#paint0_linear_132_3046)"/>
<path d="M145.851 40.7035L149.016 43.569L164.124 32.8957L145.851 40.7035Z" fill="#BAC8FF"/>
<path d="M140.887 38.8412L138.298 45.0011L164.124 32.8957L129.377 36.6917L140.887 38.8412Z" fill="#E7EDFF"/>
<path d="M129.376 36.6918L152.828 35.6185L140.887 38.8413L129.376 36.6918Z" fill="#BAC8FF"/>
<path fill-rule="evenodd" clip-rule="evenodd" d="M120.827 240.01C120.827 240.01 93.6925 229.524 57.9822 230.001C55.979 230.027 54.0216 230.085 52.1085 230.166C52.6216 229.811 52.959 229.501 52.8536 229.375C52.5467 229.004 51.4368 229.217 49.7725 229.562C51.2795 228.787 54.3728 225.932 54.0369 225.558C53.701 225.184 49.4076 226.858 47.8152 227.679C48.1373 227.054 48.3816 224.995 47.89 224.821C47.3999 224.646 45.8731 225.904 45.5296 227.308C45.015 226.061 43.331 221.709 42.4607 221.792C41.5919 221.877 42.3935 225.316 43.1539 228.168C42.3691 227.282 39.6315 224.548 39.0804 224.897C38.5307 225.246 40.059 228.579 40.9614 229.935C40.0484 229.431 37.1856 229.523 36.9718 229.951C36.8497 230.198 37.581 230.704 38.5368 231.222C14.6057 233.948 0.737793 240.223 0.737793 240.223L120.827 240.01Z" fill="url(#paint1_linear_132_3046)"/>
<path d="M278.575 202.685C278.701 201.584 278.766 200.465 278.766 199.331C278.766 198.197 278.699 197.078 278.575 195.978L274.264 194.713C273.855 192.478 273.151 190.345 272.197 188.355L274.936 184.812C273.823 182.854 272.491 181.036 270.974 179.389L266.749 180.885C265.126 179.347 263.3 178.018 261.314 176.943L261.437 172.481C259.414 171.562 257.271 170.861 255.034 170.411L252.501 174.091C251.4 173.947 250.276 173.871 249.136 173.871C247.995 173.871 246.873 173.947 245.771 174.091L243.238 170.411C241.003 170.861 238.857 171.562 236.834 172.481L236.958 176.943C234.973 178.017 233.146 179.345 231.523 180.885L227.298 179.389C225.78 181.036 224.449 182.854 223.336 184.812L226.075 188.355C225.119 190.345 224.417 192.478 224.008 194.713L219.696 195.978C219.571 197.078 219.505 198.197 219.505 199.331C219.505 200.465 219.572 201.584 219.696 202.685L224.017 203.953C224.429 206.181 225.133 208.307 226.089 210.291L223.336 213.851C224.449 215.809 225.78 217.627 227.298 219.273L231.558 217.764C233.173 219.289 234.987 220.607 236.958 221.674L236.833 226.18C238.856 227.1 241 227.8 243.236 228.25L245.798 224.527C246.89 224.669 248.003 224.743 249.134 224.743C250.266 224.743 251.379 224.669 252.47 224.527L255.032 228.25C257.268 227.8 259.413 227.1 261.436 226.18L261.31 221.674C263.282 220.608 265.097 219.29 266.711 217.764L270.97 219.273C272.488 217.627 273.819 215.809 274.933 213.851L272.18 210.291C273.135 208.307 273.838 206.18 274.252 203.953L278.575 202.685ZM249.543 211.691C242.364 211.919 236.497 206.077 236.726 198.929C236.934 192.454 242.229 187.182 248.731 186.975C255.91 186.747 261.778 192.589 261.549 199.737C261.341 206.212 256.045 211.484 249.543 211.691Z" fill="url(#paint2_linear_132_3046)"/>
<path d="M249.138 219.485C237.977 219.485 228.897 210.444 228.897 199.333C228.897 188.22 237.977 179.18 249.138 179.18C260.299 179.18 269.377 188.22 269.377 199.333C269.377 210.444 260.297 219.485 249.138 219.485ZM249.138 180.622C238.777 180.622 230.346 189.015 230.346 199.333C230.346 209.649 238.775 218.042 249.138 218.042C259.498 218.042 267.928 209.649 267.928 199.333C267.928 189.015 259.498 180.622 249.138 180.622Z" fill="white"/>
<path d="M77.2852 141.033C77.3387 140.562 77.3677 140.084 77.3677 139.599C77.3677 139.114 77.3387 138.637 77.2852 138.166L75.4409 137.625C75.2653 136.668 74.9645 135.756 74.5568 134.906L75.7279 133.391C75.2515 132.553 74.682 131.776 74.0331 131.072L72.2269 131.713C71.5322 131.054 70.752 130.486 69.9031 130.027L69.9566 128.119C69.0924 127.725 68.1748 127.426 67.219 127.234L66.1365 128.807C65.6662 128.745 65.1853 128.713 64.6982 128.713C64.2112 128.713 63.7303 128.745 63.26 128.807L62.1775 127.234C61.2217 127.426 60.3041 127.725 59.4399 128.119L59.4934 130.027C58.6445 130.486 57.8627 131.054 57.1696 131.713L55.3633 131.072C54.7145 131.776 54.145 132.553 53.6686 133.391L54.8397 134.906C54.432 135.758 54.1312 136.67 53.9556 137.625L52.1113 138.166C52.0578 138.637 52.0288 139.114 52.0288 139.599C52.0288 140.084 52.0578 140.562 52.1113 141.033L53.9587 141.576C54.1358 142.529 54.4366 143.438 54.8442 144.286L53.6671 145.808C54.1434 146.646 54.7129 147.422 55.3618 148.126L57.1833 147.482C57.8734 148.134 58.649 148.698 59.4934 149.154L59.4399 151.08C60.3041 151.474 61.2217 151.773 62.1775 151.965L63.2722 150.373C63.7394 150.434 64.2158 150.466 64.6982 150.466C65.1807 150.466 65.6571 150.434 66.1243 150.373L67.219 151.965C68.1748 151.773 69.0924 151.474 69.9566 151.08L69.9031 149.154C70.7459 148.698 71.5215 148.134 72.2132 147.482L74.0347 148.126C74.6836 147.422 75.2531 146.646 75.7294 145.808L74.5523 144.286C74.9614 143.438 75.2622 142.529 75.4378 141.576L77.2852 141.033ZM64.8723 144.884C61.8019 144.981 59.2933 142.483 59.3911 139.426C59.4796 136.658 61.7439 134.403 64.5242 134.315C67.5946 134.218 70.1031 136.716 70.0054 139.773C69.9169 142.541 67.6526 144.795 64.8723 144.884Z" fill="url(#paint3_linear_132_3046)"/>
<path d="M64.6983 148.216C59.9271 148.216 56.0444 144.35 56.0444 139.599C56.0444 134.849 59.9271 130.983 64.6983 130.983C69.4696 130.983 73.3522 134.849 73.3522 139.599C73.3522 144.35 69.4696 148.216 64.6983 148.216ZM64.6983 131.599C60.2676 131.599 56.6643 135.188 56.6643 139.598C56.6643 144.01 60.2691 147.597 64.6983 147.597C69.1291 147.597 72.7324 144.008 72.7324 139.598C72.7324 135.188 69.1291 131.599 64.6983 131.599Z" fill="white"/>
<path fill-rule="evenodd" clip-rule="evenodd" d="M317.921 237.99C311.27 236.602 304.172 235.464 296.763 234.542C297.596 233.983 298.322 233.386 298.212 233.132C298.05 232.758 296.022 232.732 295.389 233.194C295.995 231.979 296.995 229.007 296.598 228.709C296.201 228.411 294.331 230.879 293.796 231.677C294.263 229.144 294.747 226.092 294.131 226.034C293.514 225.976 292.428 229.853 292.094 230.964C291.817 229.731 290.707 228.65 290.364 228.813C290.02 228.977 290.243 230.791 290.486 231.335C289.339 230.64 286.261 229.244 286.034 229.582C285.805 229.919 288.063 232.381 289.147 233.036C287.961 232.762 287.171 232.597 286.962 232.929C286.9 233.028 287.083 233.247 287.381 233.504C282.748 233.051 278.02 232.673 273.229 232.361C275.797 229.412 275.163 226.713 273.406 227.37C275.728 221.23 270.287 220.363 268.328 221.374C266.877 218.413 264.338 219.135 263.249 221.086C260.492 218.124 254.472 219.713 254.472 223.758C251.86 222.747 250.554 224.842 251.933 226.721C249.389 226.393 249.354 228.834 251.171 231.379C245.429 231.23 239.662 231.157 233.915 231.146C233.93 231.099 233.932 231.055 233.914 231.02C233.62 230.438 232.289 230.588 230.286 230.859C232.181 229.942 236.295 226.222 235.972 225.629C235.646 225.037 230.341 226.87 228.338 227.84C228.825 226.978 229.475 224.012 228.933 223.688C228.391 223.364 226.388 224.982 225.739 226.976C225.36 225.09 224.169 218.512 223.14 218.512C222.111 218.512 222.437 223.633 222.815 227.893C222.058 226.491 219.349 222.124 218.646 222.556C217.942 222.987 219.133 228.054 219.945 230.157C218.971 229.295 215.613 229.024 215.288 229.617C215.129 229.907 215.661 230.562 216.455 231.301C192.737 231.753 170.258 233.107 152.54 234.48C152.697 234.307 152.776 234.161 152.735 234.065C152.573 233.691 150.546 233.665 149.912 234.127C150.518 232.913 151.518 229.941 151.121 229.643C150.724 229.345 148.854 231.812 148.32 232.61C148.787 230.078 149.271 227.025 148.654 226.967C148.037 226.909 146.952 230.786 146.617 231.897C146.341 230.664 145.231 229.583 144.887 229.746C144.544 229.91 144.767 231.724 145.009 232.268C143.863 231.573 140.785 230.178 140.557 230.515C140.328 230.853 142.586 233.314 143.67 233.969C142.484 233.696 141.695 233.53 141.486 233.863C141.36 234.062 142.22 234.738 143.014 235.255C142.055 235.337 141.116 235.418 140.197 235.499C140.412 235.301 140.576 235.112 140.533 235.041C140.461 234.919 139.765 234.998 139.568 235.184C139.722 234.742 139.937 233.679 139.788 233.594C139.638 233.509 139.104 234.434 138.956 234.731C139.006 233.843 139.04 232.774 138.826 232.782C138.612 232.788 138.408 234.165 138.342 234.559C138.194 234.149 137.766 233.825 137.655 233.896C137.545 233.968 137.699 234.579 137.806 234.755C137.383 234.567 136.267 234.22 136.203 234.346C136.139 234.472 137.02 235.219 137.42 235.397C137.001 235.354 136.724 235.331 136.665 235.455C136.638 235.514 136.841 235.651 137.073 235.775C123.538 237.001 115.278 237.987 115.278 237.987H317.921V237.99Z" fill="url(#paint4_linear_132_3046)"/>
<path fill-rule="evenodd" clip-rule="evenodd" d="M122.65 223.869H122.851H156.656H190.461H190.663L190.661 223.866C194.942 223.76 198.379 220.271 198.379 215.982C198.379 211.627 194.834 208.097 190.46 208.097C189.033 208.097 187.698 208.472 186.542 209.128C185.899 203.305 180.943 198.775 174.923 198.775C173.246 198.775 171.652 199.128 170.211 199.76C168.241 194.196 162.916 190.209 156.655 190.209C150.393 190.209 145.068 194.196 143.098 199.76C141.657 199.128 140.063 198.775 138.386 198.775C132.368 198.775 127.412 203.305 126.767 209.128C125.612 208.471 124.274 208.097 122.85 208.097C118.475 208.097 114.93 211.627 114.93 215.982C114.93 220.271 118.368 223.76 122.648 223.866L122.65 223.869Z" fill="url(#paint5_linear_132_3046)"/>
<path d="M148.402 231.088H103.682C96.5598 231.088 90.764 225.319 90.764 218.226V215.924C90.764 215.526 91.0877 215.204 91.4878 215.204C91.8878 215.204 92.2115 215.526 92.2115 215.924V218.226C92.2115 224.524 97.3568 229.647 103.682 229.647H147.679V225.869C147.679 225.471 148.002 225.149 148.402 225.149C148.802 225.149 149.126 225.471 149.126 225.869V230.366C149.126 230.766 148.802 231.088 148.402 231.088Z" fill="#D8E3FF"/>
<path d="M94.0021 218.612C93.8464 218.612 93.6891 218.562 93.5563 218.459L91.4874 216.843L89.4186 218.459C89.1041 218.703 88.6491 218.65 88.4033 218.337C88.1559 218.024 88.2109 217.571 88.5254 217.326L91.0401 215.36C91.3027 215.155 91.6707 215.155 91.9333 215.36L94.448 217.326C94.7625 217.572 94.8175 218.024 94.5701 218.337C94.4296 218.516 94.2174 218.612 94.0021 218.612Z" fill="#D8E3FF"/>
<path d="M210.025 231.088H165.305C164.905 231.088 164.582 230.766 164.582 230.368V225.871C164.582 225.473 164.905 225.151 165.305 225.151C165.705 225.151 166.029 225.473 166.029 225.871V229.649H210.025C216.351 229.649 221.496 224.526 221.496 218.228V215.926C221.496 215.528 221.82 215.205 222.22 215.205C222.62 215.205 222.944 215.528 222.944 215.926V218.228C222.944 225.319 217.149 231.088 210.025 231.088Z" fill="#D8E3FF"/>
<path d="M219.705 218.612C219.49 218.612 219.278 218.518 219.136 218.337C218.889 218.024 218.944 217.571 219.258 217.326L221.773 215.36C222.035 215.155 222.403 215.155 222.666 215.36L225.181 217.326C225.495 217.572 225.55 218.024 225.303 218.337C225.055 218.65 224.602 218.705 224.287 218.459L222.219 216.843L220.15 218.459C220.02 218.562 219.863 218.612 219.705 218.612Z" fill="#D8E3FF"/>
<path fill-rule="evenodd" clip-rule="evenodd" d="M144.683 204.486C140.939 204.486 137.904 207.508 137.904 211.236C137.904 214.964 140.939 217.986 144.683 217.986H156.642H156.655H156.667H168.626C172.37 217.986 175.405 214.964 175.405 211.236C175.405 207.508 172.37 204.486 168.626 204.486C167.764 204.486 166.939 204.647 166.18 204.939C164.878 200.938 161.105 198.044 156.653 198.044C152.201 198.044 148.428 200.937 147.126 204.939C146.37 204.646 145.546 204.486 144.683 204.486Z" fill="white"/>
<path fill-rule="evenodd" clip-rule="evenodd" d="M204.708 192.497H256.046C261.983 192.497 265.506 187.705 263.914 181.794L234.965 74.2227C233.376 68.3114 227.272 63.5197 221.337 63.5197H169.999C164.062 63.5197 160.539 68.3114 162.131 74.2227L191.08 181.794C192.669 187.705 198.771 192.497 204.708 192.497Z" fill="#7B93F6"/>
<path fill-rule="evenodd" clip-rule="evenodd" d="M208.365 192.497H259.703C265.64 192.497 269.163 187.705 267.571 181.794L238.623 74.2228C237.033 68.3114 230.929 63.5197 224.994 63.5197H173.655C167.717 63.5197 164.194 68.3114 165.786 74.2228L194.735 181.794C196.327 187.705 202.428 192.497 208.365 192.497Z" fill="#BAC8FF"/>
<path fill-rule="evenodd" clip-rule="evenodd" d="M174.267 65.7938C169.6 65.7938 166.819 69.5738 168.07 74.2207L197.018 181.794C198.269 186.441 203.083 190.221 207.75 190.221H259.088C263.755 190.221 266.535 186.441 265.284 181.794L236.336 74.2207C235.086 69.5738 230.271 65.7938 225.604 65.7938H174.267Z" fill="#DBE4FF"/>
<path fill-rule="evenodd" clip-rule="evenodd" d="M263.894 185.383C263.22 187.46 261.321 188.854 258.721 188.854H207.384C203.467 188.854 199.44 185.692 198.389 181.792L178.953 109.569L169.443 74.2208C168.764 71.7033 169.493 69.4948 171.147 68.2457C172.056 67.5584 173.245 67.1588 174.635 67.1588H184.223C185.014 67.1588 185.827 67.7959 186.038 68.5835L186.213 69.2303C186.726 71.1377 188.694 72.6841 190.612 72.6841H212.972C214.888 72.6841 216.024 71.1358 215.51 69.2303L215.335 68.5835C215.124 67.7959 215.593 67.1588 216.382 67.1588H225.972C229.889 67.1588 233.914 70.3211 234.965 74.2208L259.119 163.969V163.971L262.824 177.74L263.916 181.794C264.267 183.105 264.237 184.332 263.894 185.383Z" fill="white"/>
<path fill-rule="evenodd" clip-rule="evenodd" d="M209.778 68.2766H191.43C190.868 68.2766 190.532 68.7303 190.684 69.2921C190.835 69.8519 191.413 70.3075 191.977 70.3075H210.325C210.887 70.3075 211.223 69.8539 211.072 69.2921C210.92 68.7303 210.341 68.2766 209.778 68.2766Z" fill="#7B93F6"/>
<path fill-rule="evenodd" clip-rule="evenodd" d="M234.966 74.2208C233.917 70.3211 229.889 67.1588 225.973 67.1588H216.385C215.594 67.1588 215.124 67.7978 215.338 68.5836L215.512 69.2303C216.026 71.1377 214.888 72.6841 212.972 72.6841H190.614C188.699 72.6841 186.729 71.1377 186.215 69.2303L186.04 68.5836C185.829 67.7959 185.017 67.1588 184.225 67.1588H174.637C170.721 67.1588 168.396 70.3211 169.445 74.2208L169.885 75.858H235.408L234.966 74.2208Z" fill="#BAC8FF"/>
<path fill-rule="evenodd" clip-rule="evenodd" d="M175.463 117.904C175.227 117.904 174.983 117.713 174.919 117.475L170.872 102.438C170.808 102.202 170.95 102.009 171.186 102.009H171.688C171.925 102.009 172.169 102.201 172.233 102.438L176.28 117.475C176.344 117.711 176.202 117.904 175.966 117.904H175.463Z" fill="#BAC8FF"/>
<path d="M239.947 130.877H194.809C194.657 130.877 194.535 130.756 194.535 130.605C194.535 130.454 194.657 130.333 194.809 130.333H239.949C240.1 130.333 240.222 130.454 240.222 130.605C240.222 130.756 240.098 130.877 239.947 130.877Z" fill="#DBE4FF"/>
<path d="M246.839 156.482H201.698C201.547 156.482 201.425 156.361 201.425 156.21C201.425 156.06 201.547 155.938 201.698 155.938H246.839C246.99 155.938 247.112 156.06 247.112 156.21C247.112 156.361 246.99 156.482 246.839 156.482Z" fill="#DBE4FF"/>
<path fill-rule="evenodd" clip-rule="evenodd" d="M218.779 170.002H237.18C239.297 170.002 240.553 168.292 239.985 166.185C239.417 164.075 237.242 162.368 235.124 162.368H216.724C214.607 162.368 213.35 164.077 213.918 166.185C214.484 168.292 216.662 170.002 218.779 170.002Z" fill="#DBE4FF"/>
<path fill-rule="evenodd" clip-rule="evenodd" d="M243.963 176.56C243.544 176.56 243.296 176.898 243.409 177.315C243.521 177.732 243.952 178.07 244.37 178.07C244.789 178.07 245.037 177.732 244.925 177.315C244.812 176.898 244.382 176.56 243.963 176.56ZM215.526 176.56C215.108 176.56 214.859 176.898 214.972 177.315C215.084 177.732 215.515 178.07 215.934 178.07C216.353 178.07 216.601 177.732 216.488 177.315C216.376 176.898 215.945 176.56 215.526 176.56ZM222.637 176.56C222.218 176.56 221.97 176.898 222.082 177.315C222.195 177.732 222.625 178.07 223.044 178.07C223.463 178.07 223.711 177.732 223.598 177.315C223.486 176.898 223.055 176.56 222.637 176.56ZM229.745 176.56C229.326 176.56 229.078 176.898 229.19 177.315C229.303 177.732 229.733 178.07 230.152 178.07C230.571 178.07 230.819 177.732 230.707 177.315C230.594 176.898 230.164 176.56 229.745 176.56ZM236.299 177.315C236.411 177.732 236.841 178.07 237.26 178.07C237.679 178.07 237.927 177.732 237.815 177.315C237.702 176.898 237.272 176.56 236.853 176.56C236.436 176.56 236.186 176.898 236.299 177.315Z" fill="#DBE4FF"/>
<path fill-rule="evenodd" clip-rule="evenodd" d="M195.448 135.261C195.19 135.261 194.954 135.292 194.739 135.35C194.267 135.476 193.887 135.73 193.628 136.076C193.366 136.424 193.222 136.871 193.222 137.381C193.222 137.634 193.257 137.9 193.331 138.176C193.568 139.057 194.145 139.858 194.89 140.441C195.631 141.022 196.524 141.381 197.399 141.381C197.657 141.381 197.893 141.35 198.109 141.292C198.58 141.167 198.96 140.912 199.22 140.567C199.481 140.219 199.625 139.771 199.625 139.261C199.625 139.009 199.59 138.742 199.516 138.466C199.28 137.586 198.702 136.785 197.957 136.202C197.219 135.62 196.323 135.261 195.448 135.261ZM195.448 134.698C193.438 134.698 192.245 136.319 192.784 138.321C193.323 140.323 195.388 141.945 197.399 141.945C199.41 141.945 200.602 140.323 200.063 138.321C199.524 136.321 197.459 134.698 195.448 134.698Z" fill="#DBE4FF"/>
<path fill-rule="evenodd" clip-rule="evenodd" d="M195.077 136.943C195.323 137.485 195.711 138.049 196.252 138.397C196.389 138.486 196.545 138.486 196.634 138.397C196.989 138.049 197.072 137.485 197.027 136.943C196.94 135.887 194.598 135.887 195.077 136.943Z" fill="#DBE4FF"/>
<path fill-rule="evenodd" clip-rule="evenodd" d="M196.638 139.124C195.486 139.124 194.602 139.657 194.16 140.489C195.05 141.321 196.221 141.854 197.373 141.854C198.525 141.854 199.409 141.321 199.851 140.489C198.961 139.659 197.792 139.124 196.638 139.124Z" fill="#DBE4FF"/>
<path fill-rule="evenodd" clip-rule="evenodd" d="M229.281 141.47H203.382C203.082 141.47 202.774 141.229 202.694 140.929C202.615 140.63 202.791 140.389 203.092 140.389H228.99C229.29 140.389 229.597 140.63 229.678 140.929C229.758 141.229 229.581 141.47 229.281 141.47Z" fill="#DBE4FF"/>
<path fill-rule="evenodd" clip-rule="evenodd" d="M241.042 138.298H203.193C202.526 138.298 201.841 137.762 201.663 137.098C201.484 136.435 201.88 135.897 202.545 135.897H240.395C241.06 135.897 241.744 136.433 241.923 137.098C242.103 137.762 241.707 138.298 241.042 138.298Z" fill="#DBE4FF"/>
<path fill-rule="evenodd" clip-rule="evenodd" d="M243.743 145.872H204.567C204.266 145.872 203.96 145.63 203.878 145.331C203.799 145.032 203.975 144.791 204.276 144.791H243.452C243.753 144.791 244.059 145.032 244.141 145.331C244.22 145.63 244.042 145.872 243.743 145.872Z" fill="#DBE4FF"/>
<path fill-rule="evenodd" clip-rule="evenodd" d="M244.535 148.814H205.358C205.058 148.814 204.749 148.573 204.67 148.273C204.59 147.974 204.767 147.733 205.067 147.733H244.244C244.544 147.733 244.851 147.974 244.932 148.273C245.012 148.573 244.835 148.814 244.535 148.814Z" fill="#DBE4FF"/>
<path fill-rule="evenodd" clip-rule="evenodd" d="M232.049 151.756H206.151C205.85 151.756 205.542 151.515 205.463 151.216C205.383 150.916 205.559 150.675 205.86 150.675H231.758C232.059 150.675 232.365 150.916 232.447 151.216C232.526 151.515 232.35 151.756 232.049 151.756Z" fill="#DBE4FF"/>
<path fill-rule="evenodd" clip-rule="evenodd" d="M223.135 71.659H222.936L222.854 71.3559C222.841 71.3095 222.792 71.2709 222.746 71.2709H219.554C219.508 71.2709 219.479 71.3095 219.492 71.3559L219.888 72.8289C219.901 72.8753 219.95 72.9139 219.996 72.9139H223.188C223.234 72.9139 223.263 72.8753 223.25 72.8289L223.168 72.5258H223.368C223.415 72.5258 223.444 72.4872 223.43 72.4409L223.242 71.7439C223.231 71.6976 223.182 71.659 223.135 71.659ZM222.858 72.6185H221.974L221.691 71.5663H222.575C222.596 71.5663 222.618 71.5837 222.624 71.6049L222.885 72.5799C222.891 72.6011 222.88 72.6185 222.858 72.6185Z" fill="#DBE4FF"/>
<path fill-rule="evenodd" clip-rule="evenodd" d="M226.417 71.8287H225.928C225.88 71.8287 225.851 71.8674 225.864 71.9176L226.132 72.9138H226.797L226.529 71.9176C226.516 71.8693 226.465 71.8287 226.417 71.8287Z" fill="#DBE4FF"/>
<path fill-rule="evenodd" clip-rule="evenodd" d="M227.193 71.3925H226.704C226.655 71.3925 226.626 71.4311 226.64 71.4794L227.026 72.9139H227.691L227.305 71.4794C227.291 71.4311 227.241 71.3925 227.193 71.3925Z" fill="#DBE4FF"/>
<path fill-rule="evenodd" clip-rule="evenodd" d="M227.966 70.9541H227.478C227.429 70.9541 227.4 70.9927 227.414 71.041L227.918 72.9136H228.582L228.078 71.041C228.065 70.9946 228.015 70.9541 227.966 70.9541Z" fill="#DBE4FF"/>
<path fill-rule="evenodd" clip-rule="evenodd" d="M228.741 70.5179H228.252C228.204 70.5179 228.175 70.5565 228.188 70.6047L228.811 72.9138H229.476L228.855 70.6047C228.84 70.5565 228.789 70.5179 228.741 70.5179Z" fill="#DBE4FF"/>
<path fill-rule="evenodd" clip-rule="evenodd" d="M181.912 69.9368C181.336 69.6473 180.727 69.4948 180.149 69.4948C179.572 69.4948 179.044 69.6473 178.623 69.9368C178.556 69.9832 178.556 70.0874 178.625 70.1685C178.672 70.2225 178.736 70.2534 178.796 70.2534C178.825 70.2534 178.852 70.2457 178.876 70.2303C179.252 69.9716 179.723 69.8345 180.241 69.8345C180.758 69.8345 181.305 69.9716 181.819 70.2303C181.912 70.2766 182.009 70.2496 182.036 70.1685C182.061 70.0874 182.005 69.9832 181.912 69.9368Z" fill="#DBE4FF"/>
<path fill-rule="evenodd" clip-rule="evenodd" d="M181.652 70.7553C181.245 70.5507 180.812 70.4425 180.403 70.4425C179.994 70.4425 179.62 70.5507 179.323 70.7553C179.255 70.8016 179.255 70.9059 179.325 70.987C179.395 71.068 179.506 71.0951 179.575 71.0487C179.829 70.8731 180.147 70.7823 180.496 70.7823C180.845 70.7823 181.214 70.875 181.561 71.0487C181.592 71.0642 181.623 71.0719 181.652 71.0719C181.71 71.0719 181.759 71.041 181.776 70.987C181.801 70.9059 181.745 70.8016 181.652 70.7553Z" fill="#DBE4FF"/>
<path fill-rule="evenodd" clip-rule="evenodd" d="M181.395 71.5739C181.154 71.4523 180.9 71.3886 180.66 71.3886C180.419 71.3886 180.198 71.4523 180.024 71.5739C179.956 71.6202 179.956 71.7245 180.026 71.8056C180.096 71.8867 180.206 71.9137 180.276 71.8673C180.408 71.7766 180.572 71.7284 180.753 71.7284C180.933 71.7284 181.123 71.7766 181.303 71.8673C181.334 71.8828 181.365 71.8905 181.395 71.8905C181.453 71.8905 181.501 71.8596 181.519 71.8056C181.544 71.7245 181.488 71.6202 181.395 71.5739Z" fill="#DBE4FF"/>
<path fill-rule="evenodd" clip-rule="evenodd" d="M181.234 72.3866C181.234 72.3866 181.234 72.3847 181.234 72.3866C181.139 72.2746 181.003 72.2071 180.875 72.2071C180.747 72.2071 180.649 72.2746 180.616 72.3866C180.614 72.3924 180.614 72.3963 180.612 72.402C180.6 72.4503 180.602 72.5063 180.616 72.5604C180.666 72.7495 180.86 72.9059 181.05 72.9136C181.056 72.9136 181.06 72.9136 181.066 72.9136C181.071 72.9136 181.075 72.9136 181.081 72.9136C181.267 72.9059 181.378 72.7495 181.325 72.5604C181.31 72.5063 181.283 72.4503 181.244 72.402C181.244 72.3963 181.24 72.3924 181.234 72.3866Z" fill="#DBE4FF"/>
<path fill-rule="evenodd" clip-rule="evenodd" d="M206.127 82.6421C195.383 82.6421 188.541 91.3142 190.842 102.011C193.144 112.709 203.721 121.381 214.465 121.381C225.208 121.381 232.051 112.709 229.749 102.011C229.331 100.065 228.636 98.187 227.719 96.4147C227.611 96.2043 227.421 96.0556 227.196 96.0016C226.971 95.9475 226.775 96.0054 226.651 96.1599L225.082 98.1484C224.964 98.297 224.949 98.4959 225.038 98.7024C225.497 99.7681 225.856 100.876 226.1 102.009C227.971 110.701 222.41 117.747 213.681 117.747C204.952 117.747 196.359 110.701 194.488 102.009C192.617 93.3181 198.178 86.2715 206.907 86.2715C210.565 86.2715 214.201 87.511 217.327 89.5883C217.61 89.7774 217.947 89.7562 218.12 89.5381L219.481 87.8141C219.58 87.6886 219.607 87.5322 219.558 87.3546C219.51 87.177 219.401 87.0264 219.238 86.9163C215.329 84.2425 210.744 82.6421 206.127 82.6421Z" fill="#DBE4FF"/>
<path fill-rule="evenodd" clip-rule="evenodd" d="M199.263 101.61C198.031 100.664 197.572 99.131 198.239 98.187C198.906 97.241 200.445 97.241 201.676 98.187L210.489 104.95L221.236 89.7137C221.903 88.7678 223.443 88.7678 224.674 89.7137C225.905 90.6597 226.365 92.1926 225.698 93.1366L213.742 110.085C213.075 111.031 211.536 111.031 210.305 110.085L199.263 101.61Z" fill="#7B93F6"/>
<path fill-rule="evenodd" clip-rule="evenodd" d="M100.965 192.497H49.628C43.6909 192.497 40.1679 187.705 41.7597 181.794L70.7081 74.2228C72.298 68.3114 78.4018 63.5197 84.3369 63.5197H135.674C141.611 63.5197 145.134 68.3114 143.542 74.2228L114.594 181.794C113.004 187.705 106.902 192.497 100.965 192.497Z" fill="#7B93F6"/>
<path fill-rule="evenodd" clip-rule="evenodd" d="M97.3082 192.497H45.971C40.0339 192.497 36.5109 187.705 38.1028 181.794L67.0511 74.2227C68.641 68.3114 74.7448 63.5197 80.6799 63.5197H132.017C137.954 63.5197 141.477 68.3114 139.885 74.2227L110.937 181.794C109.347 187.705 103.245 192.497 97.3082 192.497Z" fill="#BAC8FF"/>
<path fill-rule="evenodd" clip-rule="evenodd" d="M131.406 65.7938C136.073 65.7938 138.854 69.5738 137.603 74.2207L108.655 181.794C107.404 186.441 102.59 190.221 97.9229 190.221H46.5837C41.9167 190.221 39.1362 186.441 40.3868 181.794L69.3352 74.2207C70.5858 69.5738 75.4002 65.7938 80.0672 65.7938H131.406Z" fill="#DBE4FF"/>
<path fill-rule="evenodd" clip-rule="evenodd" d="M136.231 74.2208L127.64 106.145L107.283 181.792C106.234 185.692 102.206 188.854 98.2898 188.854H46.9525C43.6117 188.854 41.4304 186.555 41.5099 183.46C41.5235 182.925 41.603 182.367 41.76 181.792L43.7727 174.313L47.478 160.544V160.542L70.7065 74.2208C71.7554 70.3211 75.7846 67.1588 79.7012 67.1588H89.2893C90.0804 67.1588 90.5496 67.7959 90.3382 68.5835L90.1637 69.2303C89.648 71.1377 90.7861 72.6841 92.7018 72.6841H115.062C116.085 72.6841 117.125 72.242 117.951 71.5373L117.955 71.5334C118.453 71.1107 118.87 70.5894 119.157 70.016L119.159 70.0122C119.287 69.7612 119.389 69.4986 119.461 69.2303L119.636 68.5835C119.845 67.8075 120.638 67.1762 121.417 67.1626C121.429 67.1607 121.439 67.1607 121.45 67.1607H131.039C131.863 67.1607 132.617 67.3017 133.284 67.5584C135.785 68.5237 137.059 71.1415 136.231 74.2208Z" fill="white"/>
<path fill-rule="evenodd" clip-rule="evenodd" d="M70.7072 74.2208C71.7562 70.3211 75.7834 67.1588 79.7 67.1588H89.2881C90.0792 67.1588 90.5484 67.7978 90.3351 68.5836L90.1606 69.2303C89.6468 71.1377 90.7849 72.6841 92.7006 72.6841H115.059C116.974 72.6841 118.944 71.1377 119.458 69.2303L119.632 68.5836C119.844 67.7959 120.656 67.1588 121.447 67.1588H131.035C134.952 67.1588 137.277 70.3211 136.228 74.2208L135.788 75.858H70.2671L70.7072 74.2208Z" fill="#BAC8FF"/>
<path fill-rule="evenodd" clip-rule="evenodd" d="M125.229 71.5413H125.027L125.109 71.2363C125.122 71.188 125.093 71.1494 125.045 71.1494H121.816C121.768 71.1494 121.72 71.188 121.706 71.2363L121.305 72.7247C121.291 72.7729 121.32 72.8115 121.369 72.8115H124.599C124.647 72.8115 124.696 72.7729 124.709 72.7247L124.791 72.4197H124.993C125.041 72.4197 125.089 72.381 125.103 72.3328L125.293 71.6281C125.305 71.5799 125.278 71.5413 125.229 71.5413ZM124.426 72.5123H123.532L123.819 71.4486H124.713C124.735 71.4486 124.748 71.466 124.742 71.4872L124.477 72.4718C124.469 72.4949 124.448 72.5123 124.426 72.5123Z" fill="#DBE4FF"/>
<path fill-rule="evenodd" clip-rule="evenodd" d="M128.455 71.7131H127.963C127.914 71.7131 127.862 71.7536 127.85 71.8019L127.579 72.8097H128.25L128.521 71.8019C128.533 71.7536 128.504 71.7131 128.455 71.7131Z" fill="#DBE4FF"/>
<path fill-rule="evenodd" clip-rule="evenodd" d="M129.477 71.2712H128.985C128.936 71.2712 128.884 71.3118 128.872 71.36L128.482 72.8118H129.153L129.543 71.36C129.555 71.3118 129.526 71.2712 129.477 71.2712Z" fill="#DBE4FF"/>
<path fill-rule="evenodd" clip-rule="evenodd" d="M130.499 70.829H130.006C129.958 70.829 129.906 70.8695 129.894 70.9178L129.384 72.8117H130.055L130.565 70.9178C130.576 70.8676 130.547 70.829 130.499 70.829Z" fill="#DBE4FF"/>
<path fill-rule="evenodd" clip-rule="evenodd" d="M131.521 70.387H131.029C130.98 70.387 130.928 70.4275 130.916 70.4758L130.288 72.8118H130.959L131.587 70.4758C131.599 70.4256 131.57 70.387 131.521 70.387Z" fill="#DBE4FF"/>
<path fill-rule="evenodd" clip-rule="evenodd" d="M84.4703 69.798C84.0456 69.5064 83.5124 69.352 82.9269 69.352C82.3413 69.352 81.7247 69.5064 81.143 69.798C81.048 69.8462 80.9918 69.9505 81.0189 70.0335C81.0364 70.0875 81.0848 70.1184 81.145 70.1184C81.174 70.1184 81.207 70.1107 81.238 70.0953C81.7596 69.8327 82.3103 69.6956 82.8357 69.6956C83.3592 69.6956 83.8382 69.8346 84.2163 70.0953C84.2861 70.1435 84.3985 70.1146 84.4683 70.0335C84.5381 69.9505 84.5381 69.8462 84.4703 69.798Z" fill="#DBE4FF"/>
<path fill-rule="evenodd" clip-rule="evenodd" d="M83.7623 70.626C83.4618 70.4195 83.0837 70.3094 82.6688 70.3094C82.2539 70.3094 81.8177 70.4195 81.4047 70.626C81.3097 70.6743 81.2535 70.7785 81.2806 70.8616C81.3058 70.9426 81.4047 70.9716 81.4997 70.9233C81.8506 70.7457 82.2229 70.6531 82.5758 70.6531C82.9286 70.6531 83.2505 70.7457 83.5064 70.9233C83.5297 70.9388 83.5568 70.9465 83.5859 70.9465C83.646 70.9465 83.7119 70.9156 83.7584 70.8616C83.8302 70.7785 83.8302 70.6743 83.7623 70.626Z" fill="#DBE4FF"/>
<path fill-rule="evenodd" clip-rule="evenodd" d="M83.0549 71.4543C82.8784 71.3327 82.6555 71.2671 82.4112 71.2671C82.1669 71.2671 81.911 71.3308 81.6667 71.4543C81.5717 71.5026 81.5155 71.6068 81.5426 71.6898C81.5678 71.7709 81.6667 71.7999 81.7617 71.7516C81.9439 71.6609 82.1359 71.6126 82.3201 71.6126C82.5023 71.6126 82.6691 71.6609 82.8028 71.7516C82.8261 71.7671 82.8532 71.7748 82.8823 71.7748C82.9424 71.7748 83.0083 71.7439 83.0549 71.6898C83.1227 71.6068 83.1247 71.5026 83.0549 71.4543Z" fill="#DBE4FF"/>
<path fill-rule="evenodd" clip-rule="evenodd" d="M82.4535 72.2768C82.4516 72.2768 82.4516 72.2768 82.4535 72.2768C82.4516 72.2768 82.4516 72.2768 82.4535 72.2768C82.4186 72.1629 82.3178 72.0953 82.1898 72.0953C82.0618 72.0953 81.9222 72.1648 81.8291 72.2768C81.8253 72.2826 81.8214 72.2864 81.8175 72.2922C81.7787 72.3424 81.7496 72.3964 81.7361 72.4524C81.6837 72.6455 81.7942 72.8018 81.9843 72.8096C81.9901 72.8096 81.994 72.8096 81.9998 72.8096C82.0056 72.8096 82.0114 72.8096 82.0153 72.8096C82.2092 72.8018 82.4031 72.6435 82.4555 72.4524C82.471 72.3964 82.471 72.3424 82.4594 72.2922C82.4555 72.2864 82.4535 72.2826 82.4535 72.2768Z" fill="#DBE4FF"/>
<path fill-rule="evenodd" clip-rule="evenodd" d="M55.5374 169.768C54.6164 169.768 53.6741 170.147 52.8947 170.759C52.1113 171.373 51.5025 172.216 51.2543 173.143C51.1768 173.432 51.14 173.712 51.14 173.981C51.14 174.517 51.2931 174.99 51.5684 175.355C51.8418 175.718 52.2413 175.987 52.7376 176.12C52.9645 176.18 53.2146 176.212 53.486 176.212C54.407 176.212 55.3493 175.834 56.1288 175.222C56.9121 174.608 57.5209 173.765 57.7691 172.838C57.8467 172.548 57.8835 172.268 57.8835 172C57.8835 171.463 57.7303 170.99 57.4569 170.625C57.1835 170.262 56.7841 169.994 56.2878 169.861C56.059 169.799 55.8089 169.768 55.5374 169.768ZM55.5374 169.174C53.4201 169.174 51.2466 170.882 50.6785 172.988C50.1123 175.097 51.3668 176.803 53.4841 176.803C55.6014 176.803 57.7749 175.095 58.343 172.988C58.9111 170.882 57.6547 169.174 55.5374 169.174Z" fill="#DBE4FF"/>
<path fill-rule="evenodd" clip-rule="evenodd" d="M53.8753 171.537C53.8268 172.108 53.916 172.701 54.2882 173.068C54.3833 173.16 54.5461 173.16 54.6915 173.068C55.2616 172.703 55.6688 172.108 55.9286 171.537C56.4346 170.427 53.9664 170.427 53.8753 171.537Z" fill="#DBE4FF"/>
<path fill-rule="evenodd" clip-rule="evenodd" d="M54.2828 173.836C53.069 173.836 51.8378 174.398 50.8993 175.272C51.3666 176.149 52.2953 176.711 53.5091 176.711C54.7229 176.711 55.9542 176.149 56.8927 175.272C56.4273 174.396 55.4966 173.836 54.2828 173.836Z" fill="#DBE4FF"/>
<path fill-rule="evenodd" clip-rule="evenodd" d="M87.3208 176.303H60.0535C59.7375 176.303 59.5513 176.048 59.6347 175.734C59.72 175.419 60.0438 175.164 60.3599 175.164H87.6252C87.9413 175.164 88.1274 175.419 88.0441 175.734C87.9607 176.048 87.6369 176.303 87.3208 176.303Z" fill="#DBE4FF"/>
<path fill-rule="evenodd" clip-rule="evenodd" d="M101.499 172.965H61.6516C60.9497 172.965 60.5348 172.4 60.7229 171.701C60.911 171.002 61.6323 170.436 62.3322 170.436H102.179C102.879 170.436 103.296 171.002 103.108 171.701C102.92 172.398 102.201 172.965 101.499 172.965Z" fill="#DBE4FF"/>
<path fill-rule="evenodd" clip-rule="evenodd" d="M50.4287 183.358C49.7733 183.358 49.0986 183.887 48.924 184.539C48.7476 185.192 49.1373 185.721 49.7927 185.721C50.448 185.721 51.1228 185.192 51.2973 184.539C51.4718 183.887 51.084 183.358 50.4287 183.358ZM94.9408 183.358C94.2855 183.358 93.6107 183.887 93.4362 184.539C93.2598 185.192 93.6495 185.721 94.3049 185.721C94.9602 185.721 95.635 185.192 95.8095 184.539C95.9859 183.887 95.5962 183.358 94.9408 183.358ZM83.8133 183.358C83.1579 183.358 82.4832 183.887 82.3087 184.539C82.1322 185.192 82.5219 185.721 83.1773 185.721C83.8327 185.721 84.5074 185.192 84.6819 184.539C84.8564 183.887 84.4686 183.358 83.8133 183.358ZM72.6838 183.358C72.0284 183.358 71.3537 183.887 71.1792 184.539C71.0027 185.192 71.3924 185.721 72.0478 185.721C72.7032 185.721 73.3779 185.192 73.5524 184.539C73.7289 183.887 73.3391 183.358 72.6838 183.358ZM61.5562 183.358C60.9009 183.358 60.2261 183.887 60.0516 184.539C59.8752 185.192 60.2649 185.721 60.9202 185.721C61.5756 185.721 62.2504 185.192 62.4249 184.539C62.6013 183.887 62.2116 183.358 61.5562 183.358Z" fill="#DBE4FF"/>
<path fill-rule="evenodd" clip-rule="evenodd" d="M72.6624 87.312C72.3347 87.312 71.9974 87.5765 71.9101 87.9027C71.8229 88.229 72.0168 88.4935 72.3444 88.4935C72.6721 88.4935 73.0095 88.229 73.0967 87.9027C73.184 87.5765 72.9901 87.312 72.6624 87.312ZM94.9194 87.312C94.5918 87.312 94.2544 87.5765 94.1671 87.9027C94.0799 88.229 94.2738 88.4935 94.6014 88.4935C94.9291 88.4935 95.2665 88.229 95.3538 87.9027C95.441 87.5765 95.2471 87.312 94.9194 87.312ZM89.3547 87.312C89.027 87.312 88.6896 87.5765 88.6024 87.9027C88.5151 88.229 88.709 88.4935 89.0367 88.4935C89.3644 88.4935 89.7018 88.229 89.789 87.9027C89.8782 87.5765 89.6824 87.312 89.3547 87.312ZM83.79 87.312C83.4623 87.312 83.1249 87.5765 83.0377 87.9027C82.9504 88.229 83.1443 88.4935 83.472 88.4935C83.7997 88.4935 84.137 88.229 84.2243 87.9027C84.3135 87.5765 84.1176 87.312 83.79 87.312ZM78.2272 87.312C77.8995 87.312 77.5621 87.5765 77.4749 87.9027C77.3876 88.229 77.5815 88.4935 77.9092 88.4935C78.2369 88.4935 78.5742 88.229 78.6615 87.9027C78.7487 87.5765 78.5548 87.312 78.2272 87.312Z" fill="#DBE4FF"/>
<path fill-rule="evenodd" clip-rule="evenodd" d="M73.6874 83.2578C73.3597 83.2578 73.0223 83.5223 72.9351 83.8485C72.8478 84.1748 73.0417 84.4393 73.3694 84.4393C73.6971 84.4393 74.0345 84.1748 74.1217 83.8485C74.2109 83.5223 74.0151 83.2578 73.6874 83.2578ZM95.9445 83.2578C95.6168 83.2578 95.2795 83.5223 95.1922 83.8485C95.1049 84.1748 95.2988 84.4393 95.6265 84.4393C95.9542 84.4393 96.2916 84.1748 96.3788 83.8485C96.468 83.5223 96.2722 83.2578 95.9445 83.2578ZM90.3797 83.2578C90.0521 83.2578 89.7147 83.5223 89.6274 83.8485C89.5402 84.1748 89.7341 84.4393 90.0618 84.4393C90.3894 84.4393 90.7268 84.1748 90.8141 83.8485C90.9033 83.5223 90.7094 83.2578 90.3797 83.2578ZM84.8169 83.2578C84.4892 83.2578 84.1519 83.5223 84.0646 83.8485C83.9774 84.1748 84.1713 84.4393 84.4989 84.4393C84.8266 84.4393 85.164 84.1748 85.2512 83.8485C85.3385 83.5223 85.1446 83.2578 84.8169 83.2578ZM79.2522 83.2578C78.9245 83.2578 78.5871 83.5223 78.4998 83.8485C78.4126 84.1748 78.6065 84.4393 78.9342 84.4393C79.2618 84.4393 79.5992 84.1748 79.6865 83.8485C79.7737 83.5223 79.5798 83.2578 79.2522 83.2578Z" fill="#DBE4FF"/>
<path fill-rule="evenodd" clip-rule="evenodd" d="M130.209 117.904C130.446 117.904 130.69 117.713 130.754 117.475L134.801 102.438C134.865 102.202 134.723 102.009 134.487 102.009H133.984C133.748 102.009 133.504 102.201 133.44 102.438L129.393 117.475C129.329 117.711 129.471 117.904 129.707 117.904H130.209Z" fill="#BAC8FF"/>
<path fill-rule="evenodd" clip-rule="evenodd" d="M95.8943 68.2766H114.242C114.805 68.2766 115.14 68.7303 114.989 69.2921C114.838 69.8519 114.26 70.3075 113.696 70.3075H95.3475C94.7853 70.3075 94.4498 69.8539 94.601 69.2921C94.7523 68.7303 95.332 68.2766 95.8943 68.2766Z" fill="#7B93F6"/>
<path d="M108.362 94.6732C107.125 93.0669 106.78 90.9298 107.392 88.6556C108.589 84.2114 113.201 80.5936 117.674 80.5936C119.867 80.5936 121.727 81.4392 122.91 82.9759C124.147 84.5821 124.492 86.7192 123.879 88.9935C122.683 93.4376 118.07 97.0555 113.597 97.0555C111.406 97.0555 109.546 96.2099 108.362 94.6732ZM108.668 88.9935C108.164 90.8642 108.428 92.5959 109.411 93.8701C110.339 95.0747 111.827 95.7388 113.599 95.7388C117.514 95.7388 121.554 92.5592 122.605 88.6517C123.109 86.781 122.846 85.0493 121.863 83.7751C120.934 82.5705 119.447 81.9063 117.674 81.9063C113.76 81.9083 109.719 85.086 108.668 88.9935Z" fill="#DBE4FF"/>
<path d="M115.73 89.6885H111.716L112.108 89.3816C112.348 89.1924 112.391 88.8449 112.201 88.6055C112.011 88.3661 111.662 88.3256 111.421 88.5148L109.905 89.7059C109.67 89.8893 109.624 90.2272 109.8 90.4666L110.677 91.6577C110.785 91.8064 110.954 91.8836 111.125 91.8836C111.239 91.8836 111.353 91.8489 111.452 91.7774C111.701 91.596 111.753 91.2504 111.573 91.0052L111.367 90.7253H115.734C116.021 90.7253 116.253 90.4936 116.253 90.2079C116.249 89.9202 116.017 89.6885 115.73 89.6885Z" fill="#DBE4FF"/>
<path d="M121.475 87.1827L120.599 85.9915C120.416 85.7444 120.069 85.6922 119.823 85.8718C119.575 86.0533 119.523 86.3988 119.703 86.644L119.87 86.8718H115.587C115.3 86.8718 115.067 87.1035 115.067 87.3892C115.067 87.675 115.3 87.9066 115.587 87.9066H119.623L119.164 88.2677C118.923 88.4568 118.881 88.8044 119.071 89.0438C119.181 89.1828 119.342 89.2542 119.507 89.2542C119.627 89.2542 119.749 89.2156 119.85 89.1345L121.366 87.9433C121.605 87.7599 121.651 87.424 121.475 87.1827Z" fill="#DBE4FF"/>
<path d="M98.4778 103.579L96.6707 110.292L96.217 111.979L96.0619 112.558L95.6682 114.016L95.4938 114.67L94.9741 116.603L94.3886 118.777L94.183 119.545L93.6362 121.576L93.3784 122.531L92.4477 125.987L91.1234 130.908L89.0061 138.777L88.8316 139.428L88.438 140.889L88.341 141.244L88.2809 141.468L88.0831 142.206L87.8272 143.152L87.5344 144.239L87.325 145.011L86.7395 147.187L84.5368 155.368C84.1297 156.874 82.7647 157.87 81.2678 157.87C80.9789 157.87 80.6822 157.83 80.3933 157.751C78.5862 157.272 77.516 155.426 78.0026 153.627L79.1563 149.345L79.6081 147.669L79.7612 147.098L80.1451 145.675L80.3119 145.055L80.6939 143.634L81.0836 142.177L81.2193 141.681L81.4384 140.858L81.5451 140.461L81.6905 139.934L82.9954 135.084L84.4884 129.545L85.1825 126.96L85.2329 126.773L86.7007 121.325L88.3333 115.257L88.5 114.637L88.882 113.217L89.0371 112.647L89.4908 110.964L89.7429 110.025L89.8883 109.494L90.214 108.278L90.3459 107.782L90.7395 106.321L91.9455 101.844C92.4264 100.044 94.28 98.9786 96.0871 99.4632C97.8903 99.9342 98.9644 101.78 98.4778 103.579Z" fill="#4C6EF4"/>
<path d="M80.898 153.465L82.0516 149.183L82.5034 147.507L82.6566 146.936L83.0405 145.513L83.2072 144.893L83.5892 143.472L83.9789 142.015L84.1147 141.518L84.3338 140.696L84.4404 140.298L84.5858 139.771L85.8907 134.922L87.3837 129.383L88.0778 126.798L88.1283 126.611L89.596 121.163L91.2286 115.095L91.3953 114.475L91.7773 113.054L91.9324 112.485L92.3861 110.801L92.6382 109.863L92.7836 109.332L93.1094 108.116L93.2412 107.62L93.6348 106.158L94.8408 101.681C95.089 100.753 95.7037 100.021 96.4889 99.5942C96.361 99.5421 96.2291 99.4977 96.0934 99.461C94.2863 98.9764 92.4327 100.044 91.9518 101.841L90.7458 106.318L90.3522 107.78L90.2204 108.276L89.8946 109.492L89.7492 110.023L89.4971 110.961L89.0434 112.645L88.8883 113.214L88.5063 114.635L88.3396 115.255L86.707 121.323L85.2392 126.771L85.1888 126.958L84.4947 129.543L83.0017 135.082L81.6968 139.931L81.5514 140.459L81.4448 140.856L81.2257 141.679L81.0899 142.175L80.7002 143.632L80.3182 145.053L80.1515 145.673L79.7676 147.096L79.6144 147.667L79.1626 149.343L78.009 153.625C77.5242 155.424 78.5945 157.272 80.3997 157.749C80.6905 157.828 80.9852 157.868 81.2741 157.868C81.85 157.868 82.4045 157.72 82.8951 157.453C81.3323 156.83 80.4501 155.129 80.898 153.465Z" fill="#7B93F6"/>
<path d="M94.974 116.602L94.3884 118.776L94.1829 119.545L93.6361 121.575L93.3782 122.531L92.4475 125.987L91.1232 130.908L89.0059 138.777L88.8314 139.427L88.4378 140.889L88.3409 141.244L88.2808 141.468L88.083 142.206L87.827 143.151L87.5343 144.238L87.3249 145.011L86.7393 147.186C84.4048 148.354 81.8377 149.101 79.1561 149.343C77.541 149.49 75.8832 149.451 74.2079 149.213C62.582 147.559 54.5083 136.831 56.1719 125.257C57.8336 113.681 68.6083 105.643 80.2322 107.299C83.6835 107.791 86.8227 109.083 89.4868 110.957C91.6642 112.49 93.5217 114.409 94.974 116.602Z" fill="#FFD43B"/>
<path d="M88.4989 114.633C86.0713 112.633 83.0776 111.253 79.7349 110.776C75.0426 110.108 70.3737 111.299 66.585 114.127C62.7944 116.956 60.3377 121.085 59.6669 125.755C58.2805 135.394 65.03 144.358 74.7111 145.738C74.9961 145.781 75.2811 145.814 75.5662 145.839C77.127 145.986 78.6646 145.924 80.1479 145.675C83.0718 145.186 85.7941 143.974 88.0859 142.207L88.2837 141.47L88.3438 141.246C86.0752 143.171 83.3103 144.505 80.3166 145.055C78.5385 145.381 76.6811 145.431 74.7964 145.161C65.4352 143.825 58.9068 135.159 60.2466 125.836C60.8961 121.321 63.2733 117.326 66.9379 114.591C70.3776 112.023 74.5676 110.851 78.8197 111.251C79.097 111.276 79.3762 111.311 79.6554 111.349C82.9807 111.822 85.9511 113.224 88.336 115.249C90.6181 117.189 92.3671 119.703 93.3811 122.529L93.639 121.574C92.5222 118.88 90.7539 116.488 88.4989 114.633Z" fill="#FAB005"/>
<path d="M89.0369 112.641C86.4755 110.71 83.4043 109.384 80.0053 108.899C69.285 107.372 59.3149 114.813 57.7813 125.487C56.2456 136.161 63.7202 146.088 74.4406 147.615C76.1953 147.864 77.9307 147.876 79.6098 147.669C82.3786 147.331 85.002 146.41 87.3267 145.015L87.5361 144.242C85.2172 145.729 82.5686 146.723 79.763 147.098C78.0606 147.325 76.3 147.327 74.5181 147.074C64.0983 145.588 56.8331 135.941 58.3242 125.566C59.8171 115.191 69.506 107.957 79.9258 109.442C83.3073 109.925 86.3573 111.264 88.8818 113.212C91.0941 114.917 92.9031 117.083 94.1828 119.547L94.3883 118.778C93.0582 116.392 91.2356 114.295 89.0369 112.641Z" fill="#FAB005"/>
<path d="M87.0519 129.726C84.8861 122.886 74.2898 126.377 73.6247 124.272C73.3746 123.483 73.9233 122.857 75.2825 122.431C77.0004 121.892 78.4469 121.964 80.2966 122.435C80.6961 122.537 81.111 122.334 81.2719 121.958L82.6815 118.666C82.8599 118.251 82.6718 117.772 82.2608 117.583C80.3723 116.716 78.2898 116.299 75.9088 116.676L75.6102 115.734C75.4725 115.297 75.0033 115.054 74.5651 115.191L71.9281 116.019C71.4899 116.156 71.2456 116.624 71.3833 117.06L71.7052 118.075C68.027 119.963 66.4235 123.016 67.4589 126.292C69.6964 133.358 80.1958 129.566 81.0063 132.12C81.2448 132.871 80.6456 133.474 79.2496 133.912C77.2486 134.539 75.236 134.481 72.5816 133.933C72.1511 133.844 71.7265 134.109 71.6121 134.531L70.6 138.284C70.4875 138.703 70.7163 139.142 71.1293 139.284C73.4987 140.103 76.3354 140.151 78.5652 139.736L78.8987 140.79C79.0363 141.227 79.5055 141.47 79.9437 141.333L82.5807 140.505C83.0189 140.368 83.2632 139.9 83.1256 139.464L82.7358 138.234C86.7049 136.103 88.0369 132.836 87.0519 129.726Z" fill="#FAB005"/>
<path d="M183.777 11.7591C183.8 11.7127 183.822 11.6664 183.843 11.6181C183.853 11.593 183.862 11.5699 183.872 11.5448C183.886 11.5081 183.899 11.4714 183.911 11.4347C183.919 11.4077 183.928 11.3826 183.934 11.3556C183.946 11.315 183.955 11.2745 183.963 11.232C183.967 11.2108 183.973 11.1896 183.977 11.1664C183.988 11.1065 183.996 11.0467 184.002 10.9868C184.004 10.9617 184.006 10.9366 184.008 10.9115C184.01 10.8729 184.012 10.8343 184.012 10.7938C184.012 10.7668 184.012 10.7397 184.01 10.7127C184.01 10.6953 184.01 10.676 184.01 10.6586L183.703 5.0909C183.637 3.89009 182.606 2.97114 181.4 3.03485C180.194 3.10049 179.269 4.12755 179.335 5.32836L179.414 6.77821C171.372 2.33212 162.34 0 153.051 0C142.501 0 132.267 3.00975 123.457 8.70492C123.362 8.76669 123.269 8.82847 123.176 8.89025L123.067 8.96168C122.059 9.62579 121.783 10.9753 122.449 11.9792C122.869 12.6124 123.565 12.956 124.275 12.956C124.69 12.956 125.109 12.8383 125.479 12.595L125.595 12.5178C125.677 12.4637 125.758 12.4097 125.84 12.3575C133.939 7.12185 143.348 4.35342 153.051 4.35342C161.475 4.35342 169.667 6.44036 176.983 10.4154L175.829 10.8903C174.712 11.3498 174.183 12.624 174.645 13.734C174.994 14.5738 175.808 15.0796 176.667 15.0796C176.946 15.0796 177.229 15.0256 177.503 14.9136L182.658 12.79C182.67 12.7842 182.683 12.7784 182.695 12.7726C182.742 12.7514 182.788 12.7301 182.833 12.707C182.856 12.6954 182.879 12.6819 182.903 12.6684C182.935 12.6491 182.968 12.6317 182.999 12.6104C183.023 12.595 183.048 12.5796 183.071 12.5641C183.102 12.5429 183.133 12.5197 183.162 12.4965C183.184 12.4811 183.205 12.4637 183.226 12.4463C183.273 12.4077 183.317 12.3691 183.358 12.3267C183.37 12.3151 183.381 12.3035 183.391 12.2919C183.428 12.2552 183.463 12.2166 183.496 12.1761C183.509 12.1587 183.523 12.1413 183.537 12.1259C183.568 12.0873 183.597 12.0487 183.624 12.0081C183.632 11.9985 183.639 11.9888 183.647 11.9772C183.651 11.9714 183.653 11.9656 183.657 11.9598C183.694 11.9039 183.727 11.8479 183.758 11.79C183.765 11.7822 183.771 11.7706 183.777 11.7591Z" fill="#FE6A92"/>
<path d="M183.654 96.3776C182.988 95.3737 181.631 95.0996 180.623 95.7617L180.509 95.837C180.427 95.8911 180.346 95.9451 180.264 95.9973C172.165 101.233 162.756 104.001 153.053 104.001C144.629 104.001 136.438 101.916 129.123 97.9394L130.276 97.4606C131.391 96.9992 131.921 95.7251 131.455 94.615C130.992 93.5049 129.712 92.9779 128.595 93.4412L123.624 95.4992C123.161 95.644 122.742 95.9413 122.453 96.3757C122.119 96.8776 122.022 97.4664 122.135 98.0128L122.399 103.254C122.457 104.418 123.424 105.322 124.582 105.322C124.619 105.322 124.655 105.322 124.692 105.32C125.898 105.26 126.827 104.237 126.767 103.036L126.693 101.58C134.734 106.023 143.764 108.355 153.051 108.355C163.601 108.355 173.835 105.345 182.645 99.648C182.74 99.5862 182.833 99.5244 182.926 99.4626L183.035 99.3912C184.043 98.7329 184.319 97.3815 183.654 96.3776Z" fill="#FE6A92"/>
<path d="M180.203 82.5274C195.202 67.5937 195.202 43.3813 180.203 28.4475C165.205 13.5138 140.887 13.5138 125.889 28.4475C110.89 43.3813 110.89 67.5937 125.889 82.5274C140.887 97.4612 165.205 97.4612 180.203 82.5274Z" fill="#FFD43B"/>
<path d="M140.579 84.8673C140.104 84.6665 139.633 84.4541 139.162 84.2302C123.245 76.6064 116.525 57.5092 124.182 41.6612C127.891 33.9834 134.38 28.2033 142.456 25.3866C150.532 22.5699 159.222 23.0506 166.935 26.7457C182.852 34.3695 189.572 53.4666 181.915 69.3146C174.485 84.6935 156.199 91.4505 140.579 84.8673ZM165.091 27.0681C157.989 24.0757 150.134 23.8209 142.805 26.3789C134.997 29.1029 128.721 34.6919 125.134 42.1168C117.729 57.4436 124.228 75.9094 139.619 83.2823C155.011 90.6512 173.559 84.1838 180.963 68.8571L181.438 69.0849L180.963 68.8571C188.368 53.5303 181.869 35.0645 166.476 27.6917C166.018 27.4716 165.557 27.265 165.091 27.0681Z" fill="#FAB005"/>
<path d="M137.671 87.3154C120.044 78.8731 112.602 57.7276 121.081 40.1768C129.56 22.6261 150.797 15.2166 168.424 23.6589C186.051 32.1013 193.493 53.2467 185.014 70.7975C176.535 88.3463 155.298 95.7578 137.671 87.3154ZM167.996 24.5489C150.863 16.3421 130.217 23.545 121.977 40.6054C113.734 57.6639 120.969 78.2205 138.103 86.4254C155.235 94.6322 175.881 87.4293 184.122 70.3708C192.362 53.3104 185.128 32.7557 167.996 24.5489Z" fill="#FAB005"/>
<path d="M169.17 63.3473C169.182 50.3932 149.025 50.6615 149.027 46.6769C149.028 45.1826 150.316 44.4007 152.889 44.4027C156.141 44.4046 158.595 45.3139 161.521 47.1286C162.153 47.5205 162.977 47.397 163.462 46.8352L167.691 41.9315C168.224 41.3137 168.162 40.3871 167.557 39.8388C164.777 37.3233 161.422 35.4757 157.114 34.8309L157.116 33.0451C157.116 32.2169 156.443 31.5451 155.611 31.5451L150.616 31.5412C149.785 31.5412 149.11 32.2111 149.11 33.0393L149.108 34.9603C141.744 36.2171 137.31 40.6052 137.304 46.8081C137.292 60.1889 157.449 59.351 157.445 64.191C157.443 65.6138 156.086 66.3242 153.44 66.3223C149.649 66.3184 146.219 65.1253 141.944 62.743C141.251 62.3569 140.373 62.5809 139.946 63.2469L136.15 69.1602C135.725 69.8205 135.882 70.6989 136.513 71.168C140.146 73.8612 145.003 75.4828 149.069 75.9771L149.067 77.9713C149.067 78.7995 149.74 79.4714 150.572 79.4714L155.567 79.4752C156.398 79.4752 157.073 78.8053 157.073 77.9771L157.075 75.6489C165.085 74.1372 169.166 69.2375 169.17 63.3473Z" fill="#FAB005"/>
<path d="M167.298 167.58C167.342 167.19 167.367 166.793 167.367 166.39C167.367 165.987 167.344 165.59 167.298 165.2L165.768 164.751C165.623 163.958 165.374 163.202 165.035 162.495L166.006 161.238C165.611 160.543 165.139 159.899 164.6 159.315L163.101 159.845C162.525 159.3 161.876 158.828 161.172 158.447L161.217 156.864C160.499 156.537 159.739 156.29 158.945 156.13L158.046 157.436C157.655 157.384 157.256 157.358 156.852 157.358C156.447 157.358 156.048 157.386 155.658 157.436L154.758 156.13C153.964 156.29 153.204 156.537 152.486 156.864L152.531 158.447C151.827 158.828 151.178 159.3 150.602 159.845L149.103 159.315C148.564 159.899 148.092 160.543 147.697 161.238L148.668 162.495C148.329 163.201 148.08 163.958 147.935 164.751L146.405 165.2C146.361 165.59 146.336 165.987 146.336 166.39C146.336 166.793 146.359 167.19 146.405 167.58L147.938 168.03C148.085 168.821 148.334 169.575 148.672 170.279L147.695 171.542C148.091 172.237 148.563 172.881 149.102 173.465L150.613 172.93C151.186 173.471 151.83 173.939 152.529 174.316L152.485 175.916C153.203 176.242 153.963 176.49 154.757 176.65L155.665 175.329C156.053 175.379 156.447 175.405 156.849 175.405C157.25 175.405 157.644 175.379 158.032 175.329L158.94 176.65C159.734 176.49 160.495 176.242 161.212 175.916L161.168 174.316C161.867 173.938 162.511 173.471 163.084 172.93L164.595 173.465C165.134 172.881 165.606 172.237 166.002 171.542L165.025 170.279C165.363 169.575 165.612 168.821 165.759 168.03L167.298 167.58ZM156.998 170.774C154.451 170.855 152.369 168.783 152.451 166.245C152.525 163.948 154.404 162.079 156.711 162.004C159.258 161.924 161.34 163.996 161.258 166.533C161.183 168.83 159.305 170.701 156.998 170.774Z" fill="url(#paint6_linear_132_3046)"/>
<defs>
<linearGradient id="paint0_linear_132_3046" x1="122.659" y1="36.0453" x2="122.659" y2="98.4683" gradientUnits="userSpaceOnUse">
<stop stop-color="#DBE4FF"/>
<stop offset="0.7765" stop-color="white"/>
</linearGradient>
<linearGradient id="paint1_linear_132_3046" x1="60.7827" y1="223.573" x2="60.7827" y2="240.198" gradientUnits="userSpaceOnUse">
<stop stop-color="#DBE4FF"/>
<stop offset="1" stop-color="white"/>
</linearGradient>
<linearGradient id="paint2_linear_132_3046" x1="249.137" y1="165.898" x2="249.137" y2="215.803" gradientUnits="userSpaceOnUse">
<stop stop-color="#DBE4FF"/>
<stop offset="0.7765" stop-color="white"/>
</linearGradient>
<linearGradient id="paint3_linear_132_3046" x1="64.6981" y1="125.303" x2="64.6981" y2="146.641" gradientUnits="userSpaceOnUse">
<stop stop-color="#DBE4FF"/>
<stop offset="0.7765" stop-color="white"/>
</linearGradient>
<linearGradient id="paint4_linear_132_3046" x1="216.603" y1="218.1" x2="216.602" y2="240.729" gradientUnits="userSpaceOnUse">
<stop stop-color="#DBE4FF"/>
<stop offset="1" stop-color="white"/>
</linearGradient>
<linearGradient id="paint5_linear_132_3046" x1="156.656" y1="189.272" x2="156.656" y2="254.437" gradientUnits="userSpaceOnUse">
<stop stop-color="#DBE4FF"/>
<stop offset="0.7765" stop-color="white"/>
</linearGradient>
<linearGradient id="paint6_linear_132_3046" x1="156.854" y1="158.2" x2="156.854" y2="183.82" gradientUnits="userSpaceOnUse">
<stop stop-color="#DBE4FF"/>
<stop offset="0.7765" stop-color="white"/>
</linearGradient>
</defs>
</svg>
