<svg width="20" height="19" viewBox="0 0 20 19" fill="none" xmlns="http://www.w3.org/2000/svg">
<path d="M6.60255 18.6717C5.23432 18.6709 3.91258 18.1751 2.88122 
17.2761C1.84986 16.377 1.17849 15.1352 0.990993 13.7799C0.803494 12.4246 1.11252
 11.0472 1.86105 9.90185C2.60958 8.75654 3.74709 7.9206 5.06369 7.5483C6.02066 7.27425 7.03359
  7.26173 7.99704 7.51202L13.9741 1.53648C14.2914 1.21699 14.669 0.963673 15.0849 0.791241C15.5009 0.618809
   15.947 0.53069 16.3973 0.531997C17.1059 0.532597 17.7853 0.814365 18.2864 1.31544C18.7875 1.81652 19.0692 2.49595 19.0698
    3.20458C19.071 3.6549 18.9829 4.10097 18.8106 4.51703C18.6383 4.93308 18.3853 5.31085 18.0661 5.62851L17.5582 6.13642C17.274 
    6.41867 16.89 6.57754 16.4895 6.57858H15.2907V7.3344C15.2907 7.73531 15.1315 8.1198 14.848 8.40329C14.5645 8.68678 14.18 8.84604
     13.7791 8.84604H13.0233V10.0448C13.0238 10.2434 12.9849 10.4401 12.9089 10.6235C12.8329 10.807 12.7212 10.9735 12.5803 11.1135L12.0891 
     11.6048C12.3407 12.5678 12.3285 13.5808 12.0535 14.5374C11.7442 15.6273 11.1166 16.6 10.251 17.3311C9.38546 18.0621 8.32141 18.5181
      7.19511 18.6407C6.99825 18.6612 6.80047 18.6715 6.60255 18.6717ZM6.60255 8.84604C5.8287 8.84529 5.07 9.06056 4.41186 9.46762C3.75372 9.87468 3.22227 10.4574 2.87733 11.1501C2.53239 11.8428 2.38765 12.618 2.45941 13.3886C2.53118 14.1591 2.81659 14.8943 3.28352 15.5114C3.75045 16.1285 4.38037 16.603 5.10236 16.8815C5.82435 17.16 6.60975 17.2315 7.37015 17.0878C8.13055 16.9442 8.83577 16.5912 9.4064 16.0685C9.97704 15.5458 10.3904 14.8742 10.6001 14.1292C10.8359 13.3103 10.8095 12.4382 10.5245 11.635C10.478 11.5009 10.4702 11.3564 10.502 11.218C10.5338 11.0797 10.604 10.9531 10.7044 10.8527L11.5116 10.0448V8.84604C11.5116 8.44513 11.6709 8.06064 11.9544 7.77715C12.2379 7.49366 12.6223 7.3344 13.0233 7.3344H13.7791V6.57858C13.7791 6.17766 13.9383 5.79317 14.2218 5.50968C14.5053 5.22619 14.8898 5.06693 15.2907 5.06693H16.4895L16.9974 4.55902C17.1757 4.38152 17.3171 4.17042 17.4134 3.93794C17.5096 3.70546 17.5589 3.45621 17.5582 3.20458C17.558 2.89688 17.4357 2.60182 17.2182 2.38416C17.0007 2.16651 16.7057 2.04404 16.398 2.04364C16.1462 2.04302 15.8968 2.09234 15.6642 2.18873C15.4316 2.28512 15.2204 2.42668 15.0428 2.60522L8.74606 8.90122C8.64557 9.00165 8.51881 9.07173 8.38031 9.10341C8.24181 9.1351 8.09719 9.1271 7.96303 9.08035C7.5247 8.92602 7.06347 8.8468 6.59877 8.84604H6.60255ZM4.70921 14.1368C4.70921 14.2863 4.75354 14.4324 4.83659 14.5567C4.91964 14.681 5.03769 14.7779 5.1758 14.8351C5.3139 14.8923 5.46587 14.9073 5.61249 14.8781C5.7591 14.8489 5.89378 14.7769 5.99948 14.6712C6.10519 14.5655 6.17717 14.4309 6.20634 14.2843C6.2355 14.1376 6.22053 13.9857 6.16332 13.8476C6.10612 13.7094 6.00924 13.5914 5.88495 13.5084C5.76065 13.4253 5.61452 13.381 5.46504 13.381C5.26458 13.381 5.07233 13.4606 4.93059 13.6024C4.78884 13.7441 4.70921 13.9363 4.70921 14.1368Z" fill="#959FBA"/>
</svg>
